<?xml version="1.0" standalone="no"?>
<!DOCTYPE svg PUBLIC "-//W3C//DTD SVG 1.1//EN" "http://www.w3.org/Graphics/SVG/1.1/DTD/svg11.dtd" >
<svg>
<metadata>
Created by FontForge 20090914 at Thu Jul  9 21:28:47 2020
 By www-data
Typeface&#194;&#169;OPXWORK Studio. 2020. All Rights Reserved
</metadata>
<defs>
<font id="Aftershocks-Demo" horiz-adv-x="1052" >
  <font-face 
    font-family="Aftershock Demo"
    font-weight="400"
    font-stretch="normal"
    units-per-em="2048"
    panose-1="2 0 6 0 0 0 0 0 0 0"
    ascent="1638"
    descent="-410"
    x-height="1461"
    cap-height="1548"
    bbox="-2.99805 -236 1551 1639"
    underline-thickness="150"
    underline-position="-142"
    unicode-range="U+0020-U+E4D1"
  />
<missing-glyph 
d="M982 0h-912v1587h912v-1587zM927 55v1477h-802v-1477h802zM488 503l-35.001 0.000976562c-26 71.333 -39 125.666 -39 162.999c0 56.667 30.167 137.334 90.5 242.001s90.5 184.667 90.5 240c0 41.333 -12.167 74.333 -36.5 99s-58.166 37 -101.499 37
c-26.667 0 -50.334 -5.33301 -71.001 -16s-43 -26.334 -67 -47.001v50c32.667 29.333 64.334 50.166 95.001 62.499s61.667 18.5 93 18.5c66 0 120.167 -17.167 162.5 -51.5s63.5 -81.833 63.5 -142.5c0 -37.333 -9.16699 -75 -27.5 -113s-49.833 -84.333 -94.5 -139
c-46.667 -59.333 -83.167 -108.166 -109.5 -146.499s-39.5 -74.833 -39.5 -109.5c0 -28 8.66699 -77 26 -147zM474.999 236.001c-8 0 -15.333 3.66699 -22 11l-68 78c-4.66699 6.66699 -7 13.334 -7 20.001c0 7.33301 4 15.666 12 24.999l63 64c8 7.33301 15.333 11 22 11
c7.33301 0 15.333 -4 24 -12l62 -67c6.66699 -8 10 -15.333 10 -22c0 -8 -3.66699 -16 -11 -24l-62 -69c-10 -10 -17.667 -15 -23 -15z" />
    <glyph glyph-name=".notdef" 
d="M982 0h-912v1587h912v-1587zM927 55v1477h-802v-1477h802zM488 503l-35.001 0.000976562c-26 71.333 -39 125.666 -39 162.999c0 56.667 30.167 137.334 90.5 242.001s90.5 184.667 90.5 240c0 41.333 -12.167 74.333 -36.5 99s-58.166 37 -101.499 37
c-26.667 0 -50.334 -5.33301 -71.001 -16s-43 -26.334 -67 -47.001v50c32.667 29.333 64.334 50.166 95.001 62.499s61.667 18.5 93 18.5c66 0 120.167 -17.167 162.5 -51.5s63.5 -81.833 63.5 -142.5c0 -37.333 -9.16699 -75 -27.5 -113s-49.833 -84.333 -94.5 -139
c-46.667 -59.333 -83.167 -108.166 -109.5 -146.499s-39.5 -74.833 -39.5 -109.5c0 -28 8.66699 -77 26 -147zM474.999 236.001c-8 0 -15.333 3.66699 -22 11l-68 78c-4.66699 6.66699 -7 13.334 -7 20.001c0 7.33301 4 15.666 12 24.999l63 64c8 7.33301 15.333 11 22 11
c7.33301 0 15.333 -4 24 -12l62 -67c6.66699 -8 10 -15.333 10 -22c0 -8 -3.66699 -16 -11 -24l-62 -69c-10 -10 -17.667 -15 -23 -15z" />
    <glyph glyph-name="space" unicode=" " horiz-adv-x="401" 
 />
    <glyph glyph-name="space" unicode="&#xa0;" horiz-adv-x="401" 
 />
    <glyph glyph-name="exclam" unicode="!" horiz-adv-x="454" 
d="M211 -26c-43.333 0 -81 15.167 -113 45.5s-48 66.833 -48 109.5c0 8.66699 1 17.667 3 27c8 40 25.333 71.167 52 93.5s57 33.5 91 33.5c22 0 44.333 -5 67 -15c28.667 -13.333 50.667 -31.833 66 -55.5s23 -48.834 23 -75.501c0 -14.667 -2.33301 -29 -7 -43l33 -15
c-24.667 -37.333 -51.667 -64.166 -81 -80.499s-58 -24.5 -86 -24.5zM47 348c-6.66699 48 -10.001 99.999 -10.001 155.999c0 79.333 3.66699 165 11 257c8 100 12 202 12 306c0 166.667 -18.333 309.334 -55 428.001c68.667 4 131.834 14.833 189.501 32.5
s104.5 35.167 140.5 52.5l54 26c10.667 -68.667 16 -140 16 -214c0 -79.333 -4.33301 -160.5 -13 -243.5s-18.667 -164.833 -30 -245.5c-9.33301 -74 -17.833 -145.833 -25.5 -215.5s-11.5 -135.167 -11.5 -196.5c0 -32 1.33301 -62.333 4 -91l-28 1
c-50.667 0 -95 -4.5 -133 -13.5s-67.667 -17.833 -89 -26.5z" />
    <glyph glyph-name="quotedbl" unicode="&#x22;" 
d="M982 0h-912v1587h912v-1587zM927 55v1477h-802v-1477h802zM488 503l-35.001 0.000976562c-26 71.333 -39 125.666 -39 162.999c0 56.667 30.167 137.334 90.5 242.001s90.5 184.667 90.5 240c0 41.333 -12.167 74.333 -36.5 99s-58.166 37 -101.499 37
c-26.667 0 -50.334 -5.33301 -71.001 -16s-43 -26.334 -67 -47.001v50c32.667 29.333 64.334 50.166 95.001 62.499s61.667 18.5 93 18.5c66 0 120.167 -17.167 162.5 -51.5s63.5 -81.833 63.5 -142.5c0 -37.333 -9.16699 -75 -27.5 -113s-49.833 -84.333 -94.5 -139
c-46.667 -59.333 -83.167 -108.166 -109.5 -146.499s-39.5 -74.833 -39.5 -109.5c0 -28 8.66699 -77 26 -147zM474.999 236.001c-8 0 -15.333 3.66699 -22 11l-68 78c-4.66699 6.66699 -7 13.334 -7 20.001c0 7.33301 4 15.666 12 24.999l63 64c8 7.33301 15.333 11 22 11
c7.33301 0 15.333 -4 24 -12l62 -67c6.66699 -8 10 -15.333 10 -22c0 -8 -3.66699 -16 -11 -24l-62 -69c-10 -10 -17.667 -15 -23 -15z" />
    <glyph glyph-name="numbersign" unicode="#" 
d="M982 0h-912v1587h912v-1587zM927 55v1477h-802v-1477h802zM488 503l-35.001 0.000976562c-26 71.333 -39 125.666 -39 162.999c0 56.667 30.167 137.334 90.5 242.001s90.5 184.667 90.5 240c0 41.333 -12.167 74.333 -36.5 99s-58.166 37 -101.499 37
c-26.667 0 -50.334 -5.33301 -71.001 -16s-43 -26.334 -67 -47.001v50c32.667 29.333 64.334 50.166 95.001 62.499s61.667 18.5 93 18.5c66 0 120.167 -17.167 162.5 -51.5s63.5 -81.833 63.5 -142.5c0 -37.333 -9.16699 -75 -27.5 -113s-49.833 -84.333 -94.5 -139
c-46.667 -59.333 -83.167 -108.166 -109.5 -146.499s-39.5 -74.833 -39.5 -109.5c0 -28 8.66699 -77 26 -147zM474.999 236.001c-8 0 -15.333 3.66699 -22 11l-68 78c-4.66699 6.66699 -7 13.334 -7 20.001c0 7.33301 4 15.666 12 24.999l63 64c8 7.33301 15.333 11 22 11
c7.33301 0 15.333 -4 24 -12l62 -67c6.66699 -8 10 -15.333 10 -22c0 -8 -3.66699 -16 -11 -24l-62 -69c-10 -10 -17.667 -15 -23 -15z" />
    <glyph glyph-name="dollar" unicode="$" 
d="M982 0h-912v1587h912v-1587zM927 55v1477h-802v-1477h802zM488 503l-35.001 0.000976562c-26 71.333 -39 125.666 -39 162.999c0 56.667 30.167 137.334 90.5 242.001s90.5 184.667 90.5 240c0 41.333 -12.167 74.333 -36.5 99s-58.166 37 -101.499 37
c-26.667 0 -50.334 -5.33301 -71.001 -16s-43 -26.334 -67 -47.001v50c32.667 29.333 64.334 50.166 95.001 62.499s61.667 18.5 93 18.5c66 0 120.167 -17.167 162.5 -51.5s63.5 -81.833 63.5 -142.5c0 -37.333 -9.16699 -75 -27.5 -113s-49.833 -84.333 -94.5 -139
c-46.667 -59.333 -83.167 -108.166 -109.5 -146.499s-39.5 -74.833 -39.5 -109.5c0 -28 8.66699 -77 26 -147zM474.999 236.001c-8 0 -15.333 3.66699 -22 11l-68 78c-4.66699 6.66699 -7 13.334 -7 20.001c0 7.33301 4 15.666 12 24.999l63 64c8 7.33301 15.333 11 22 11
c7.33301 0 15.333 -4 24 -12l62 -67c6.66699 -8 10 -15.333 10 -22c0 -8 -3.66699 -16 -11 -24l-62 -69c-10 -10 -17.667 -15 -23 -15z" />
    <glyph glyph-name="percent" unicode="%" 
d="M982 0h-912v1587h912v-1587zM927 55v1477h-802v-1477h802zM488 503l-35.001 0.000976562c-26 71.333 -39 125.666 -39 162.999c0 56.667 30.167 137.334 90.5 242.001s90.5 184.667 90.5 240c0 41.333 -12.167 74.333 -36.5 99s-58.166 37 -101.499 37
c-26.667 0 -50.334 -5.33301 -71.001 -16s-43 -26.334 -67 -47.001v50c32.667 29.333 64.334 50.166 95.001 62.499s61.667 18.5 93 18.5c66 0 120.167 -17.167 162.5 -51.5s63.5 -81.833 63.5 -142.5c0 -37.333 -9.16699 -75 -27.5 -113s-49.833 -84.333 -94.5 -139
c-46.667 -59.333 -83.167 -108.166 -109.5 -146.499s-39.5 -74.833 -39.5 -109.5c0 -28 8.66699 -77 26 -147zM474.999 236.001c-8 0 -15.333 3.66699 -22 11l-68 78c-4.66699 6.66699 -7 13.334 -7 20.001c0 7.33301 4 15.666 12 24.999l63 64c8 7.33301 15.333 11 22 11
c7.33301 0 15.333 -4 24 -12l62 -67c6.66699 -8 10 -15.333 10 -22c0 -8 -3.66699 -16 -11 -24l-62 -69c-10 -10 -17.667 -15 -23 -15z" />
    <glyph glyph-name="ampersand" unicode="&#x26;" 
d="M982 0h-912v1587h912v-1587zM927 55v1477h-802v-1477h802zM488 503l-35.001 0.000976562c-26 71.333 -39 125.666 -39 162.999c0 56.667 30.167 137.334 90.5 242.001s90.5 184.667 90.5 240c0 41.333 -12.167 74.333 -36.5 99s-58.166 37 -101.499 37
c-26.667 0 -50.334 -5.33301 -71.001 -16s-43 -26.334 -67 -47.001v50c32.667 29.333 64.334 50.166 95.001 62.499s61.667 18.5 93 18.5c66 0 120.167 -17.167 162.5 -51.5s63.5 -81.833 63.5 -142.5c0 -37.333 -9.16699 -75 -27.5 -113s-49.833 -84.333 -94.5 -139
c-46.667 -59.333 -83.167 -108.166 -109.5 -146.499s-39.5 -74.833 -39.5 -109.5c0 -28 8.66699 -77 26 -147zM474.999 236.001c-8 0 -15.333 3.66699 -22 11l-68 78c-4.66699 6.66699 -7 13.334 -7 20.001c0 7.33301 4 15.666 12 24.999l63 64c8 7.33301 15.333 11 22 11
c7.33301 0 15.333 -4 24 -12l62 -67c6.66699 -8 10 -15.333 10 -22c0 -8 -3.66699 -16 -11 -24l-62 -69c-10 -10 -17.667 -15 -23 -15z" />
    <glyph glyph-name="quotesingle" unicode="'" 
d="M982 0h-912v1587h912v-1587zM927 55v1477h-802v-1477h802zM488 503l-35.001 0.000976562c-26 71.333 -39 125.666 -39 162.999c0 56.667 30.167 137.334 90.5 242.001s90.5 184.667 90.5 240c0 41.333 -12.167 74.333 -36.5 99s-58.166 37 -101.499 37
c-26.667 0 -50.334 -5.33301 -71.001 -16s-43 -26.334 -67 -47.001v50c32.667 29.333 64.334 50.166 95.001 62.499s61.667 18.5 93 18.5c66 0 120.167 -17.167 162.5 -51.5s63.5 -81.833 63.5 -142.5c0 -37.333 -9.16699 -75 -27.5 -113s-49.833 -84.333 -94.5 -139
c-46.667 -59.333 -83.167 -108.166 -109.5 -146.499s-39.5 -74.833 -39.5 -109.5c0 -28 8.66699 -77 26 -147zM474.999 236.001c-8 0 -15.333 3.66699 -22 11l-68 78c-4.66699 6.66699 -7 13.334 -7 20.001c0 7.33301 4 15.666 12 24.999l63 64c8 7.33301 15.333 11 22 11
c7.33301 0 15.333 -4 24 -12l62 -67c6.66699 -8 10 -15.333 10 -22c0 -8 -3.66699 -16 -11 -24l-62 -69c-10 -10 -17.667 -15 -23 -15z" />
    <glyph glyph-name="parenleft" unicode="(" 
d="M982 0h-912v1587h912v-1587zM927 55v1477h-802v-1477h802zM488 503l-35.001 0.000976562c-26 71.333 -39 125.666 -39 162.999c0 56.667 30.167 137.334 90.5 242.001s90.5 184.667 90.5 240c0 41.333 -12.167 74.333 -36.5 99s-58.166 37 -101.499 37
c-26.667 0 -50.334 -5.33301 -71.001 -16s-43 -26.334 -67 -47.001v50c32.667 29.333 64.334 50.166 95.001 62.499s61.667 18.5 93 18.5c66 0 120.167 -17.167 162.5 -51.5s63.5 -81.833 63.5 -142.5c0 -37.333 -9.16699 -75 -27.5 -113s-49.833 -84.333 -94.5 -139
c-46.667 -59.333 -83.167 -108.166 -109.5 -146.499s-39.5 -74.833 -39.5 -109.5c0 -28 8.66699 -77 26 -147zM474.999 236.001c-8 0 -15.333 3.66699 -22 11l-68 78c-4.66699 6.66699 -7 13.334 -7 20.001c0 7.33301 4 15.666 12 24.999l63 64c8 7.33301 15.333 11 22 11
c7.33301 0 15.333 -4 24 -12l62 -67c6.66699 -8 10 -15.333 10 -22c0 -8 -3.66699 -16 -11 -24l-62 -69c-10 -10 -17.667 -15 -23 -15z" />
    <glyph glyph-name="parenright" unicode=")" 
d="M982 0h-912v1587h912v-1587zM927 55v1477h-802v-1477h802zM488 503l-35.001 0.000976562c-26 71.333 -39 125.666 -39 162.999c0 56.667 30.167 137.334 90.5 242.001s90.5 184.667 90.5 240c0 41.333 -12.167 74.333 -36.5 99s-58.166 37 -101.499 37
c-26.667 0 -50.334 -5.33301 -71.001 -16s-43 -26.334 -67 -47.001v50c32.667 29.333 64.334 50.166 95.001 62.499s61.667 18.5 93 18.5c66 0 120.167 -17.167 162.5 -51.5s63.5 -81.833 63.5 -142.5c0 -37.333 -9.16699 -75 -27.5 -113s-49.833 -84.333 -94.5 -139
c-46.667 -59.333 -83.167 -108.166 -109.5 -146.499s-39.5 -74.833 -39.5 -109.5c0 -28 8.66699 -77 26 -147zM474.999 236.001c-8 0 -15.333 3.66699 -22 11l-68 78c-4.66699 6.66699 -7 13.334 -7 20.001c0 7.33301 4 15.666 12 24.999l63 64c8 7.33301 15.333 11 22 11
c7.33301 0 15.333 -4 24 -12l62 -67c6.66699 -8 10 -15.333 10 -22c0 -8 -3.66699 -16 -11 -24l-62 -69c-10 -10 -17.667 -15 -23 -15z" />
    <glyph glyph-name="asterisk" unicode="*" 
d="M982 0h-912v1587h912v-1587zM927 55v1477h-802v-1477h802zM488 503l-35.001 0.000976562c-26 71.333 -39 125.666 -39 162.999c0 56.667 30.167 137.334 90.5 242.001s90.5 184.667 90.5 240c0 41.333 -12.167 74.333 -36.5 99s-58.166 37 -101.499 37
c-26.667 0 -50.334 -5.33301 -71.001 -16s-43 -26.334 -67 -47.001v50c32.667 29.333 64.334 50.166 95.001 62.499s61.667 18.5 93 18.5c66 0 120.167 -17.167 162.5 -51.5s63.5 -81.833 63.5 -142.5c0 -37.333 -9.16699 -75 -27.5 -113s-49.833 -84.333 -94.5 -139
c-46.667 -59.333 -83.167 -108.166 -109.5 -146.499s-39.5 -74.833 -39.5 -109.5c0 -28 8.66699 -77 26 -147zM474.999 236.001c-8 0 -15.333 3.66699 -22 11l-68 78c-4.66699 6.66699 -7 13.334 -7 20.001c0 7.33301 4 15.666 12 24.999l63 64c8 7.33301 15.333 11 22 11
c7.33301 0 15.333 -4 24 -12l62 -67c6.66699 -8 10 -15.333 10 -22c0 -8 -3.66699 -16 -11 -24l-62 -69c-10 -10 -17.667 -15 -23 -15z" />
    <glyph glyph-name="plus" unicode="+" 
d="M982 0h-912v1587h912v-1587zM927 55v1477h-802v-1477h802zM488 503l-35.001 0.000976562c-26 71.333 -39 125.666 -39 162.999c0 56.667 30.167 137.334 90.5 242.001s90.5 184.667 90.5 240c0 41.333 -12.167 74.333 -36.5 99s-58.166 37 -101.499 37
c-26.667 0 -50.334 -5.33301 -71.001 -16s-43 -26.334 -67 -47.001v50c32.667 29.333 64.334 50.166 95.001 62.499s61.667 18.5 93 18.5c66 0 120.167 -17.167 162.5 -51.5s63.5 -81.833 63.5 -142.5c0 -37.333 -9.16699 -75 -27.5 -113s-49.833 -84.333 -94.5 -139
c-46.667 -59.333 -83.167 -108.166 -109.5 -146.499s-39.5 -74.833 -39.5 -109.5c0 -28 8.66699 -77 26 -147zM474.999 236.001c-8 0 -15.333 3.66699 -22 11l-68 78c-4.66699 6.66699 -7 13.334 -7 20.001c0 7.33301 4 15.666 12 24.999l63 64c8 7.33301 15.333 11 22 11
c7.33301 0 15.333 -4 24 -12l62 -67c6.66699 -8 10 -15.333 10 -22c0 -8 -3.66699 -16 -11 -24l-62 -69c-10 -10 -17.667 -15 -23 -15z" />
    <glyph glyph-name="comma" unicode="," 
d="M982 0h-912v1587h912v-1587zM927 55v1477h-802v-1477h802zM488 503l-35.001 0.000976562c-26 71.333 -39 125.666 -39 162.999c0 56.667 30.167 137.334 90.5 242.001s90.5 184.667 90.5 240c0 41.333 -12.167 74.333 -36.5 99s-58.166 37 -101.499 37
c-26.667 0 -50.334 -5.33301 -71.001 -16s-43 -26.334 -67 -47.001v50c32.667 29.333 64.334 50.166 95.001 62.499s61.667 18.5 93 18.5c66 0 120.167 -17.167 162.5 -51.5s63.5 -81.833 63.5 -142.5c0 -37.333 -9.16699 -75 -27.5 -113s-49.833 -84.333 -94.5 -139
c-46.667 -59.333 -83.167 -108.166 -109.5 -146.499s-39.5 -74.833 -39.5 -109.5c0 -28 8.66699 -77 26 -147zM474.999 236.001c-8 0 -15.333 3.66699 -22 11l-68 78c-4.66699 6.66699 -7 13.334 -7 20.001c0 7.33301 4 15.666 12 24.999l63 64c8 7.33301 15.333 11 22 11
c7.33301 0 15.333 -4 24 -12l62 -67c6.66699 -8 10 -15.333 10 -22c0 -8 -3.66699 -16 -11 -24l-62 -69c-10 -10 -17.667 -15 -23 -15z" />
    <glyph glyph-name="hyphen" unicode="-" 
d="M982 0h-912v1587h912v-1587zM927 55v1477h-802v-1477h802zM488 503l-35.001 0.000976562c-26 71.333 -39 125.666 -39 162.999c0 56.667 30.167 137.334 90.5 242.001s90.5 184.667 90.5 240c0 41.333 -12.167 74.333 -36.5 99s-58.166 37 -101.499 37
c-26.667 0 -50.334 -5.33301 -71.001 -16s-43 -26.334 -67 -47.001v50c32.667 29.333 64.334 50.166 95.001 62.499s61.667 18.5 93 18.5c66 0 120.167 -17.167 162.5 -51.5s63.5 -81.833 63.5 -142.5c0 -37.333 -9.16699 -75 -27.5 -113s-49.833 -84.333 -94.5 -139
c-46.667 -59.333 -83.167 -108.166 -109.5 -146.499s-39.5 -74.833 -39.5 -109.5c0 -28 8.66699 -77 26 -147zM474.999 236.001c-8 0 -15.333 3.66699 -22 11l-68 78c-4.66699 6.66699 -7 13.334 -7 20.001c0 7.33301 4 15.666 12 24.999l63 64c8 7.33301 15.333 11 22 11
c7.33301 0 15.333 -4 24 -12l62 -67c6.66699 -8 10 -15.333 10 -22c0 -8 -3.66699 -16 -11 -24l-62 -69c-10 -10 -17.667 -15 -23 -15z" />
    <glyph glyph-name="period" unicode="." 
d="M982 0h-912v1587h912v-1587zM927 55v1477h-802v-1477h802zM488 503l-35.001 0.000976562c-26 71.333 -39 125.666 -39 162.999c0 56.667 30.167 137.334 90.5 242.001s90.5 184.667 90.5 240c0 41.333 -12.167 74.333 -36.5 99s-58.166 37 -101.499 37
c-26.667 0 -50.334 -5.33301 -71.001 -16s-43 -26.334 -67 -47.001v50c32.667 29.333 64.334 50.166 95.001 62.499s61.667 18.5 93 18.5c66 0 120.167 -17.167 162.5 -51.5s63.5 -81.833 63.5 -142.5c0 -37.333 -9.16699 -75 -27.5 -113s-49.833 -84.333 -94.5 -139
c-46.667 -59.333 -83.167 -108.166 -109.5 -146.499s-39.5 -74.833 -39.5 -109.5c0 -28 8.66699 -77 26 -147zM474.999 236.001c-8 0 -15.333 3.66699 -22 11l-68 78c-4.66699 6.66699 -7 13.334 -7 20.001c0 7.33301 4 15.666 12 24.999l63 64c8 7.33301 15.333 11 22 11
c7.33301 0 15.333 -4 24 -12l62 -67c6.66699 -8 10 -15.333 10 -22c0 -8 -3.66699 -16 -11 -24l-62 -69c-10 -10 -17.667 -15 -23 -15z" />
    <glyph glyph-name="slash" unicode="/" 
d="M982 0h-912v1587h912v-1587zM927 55v1477h-802v-1477h802zM488 503l-35.001 0.000976562c-26 71.333 -39 125.666 -39 162.999c0 56.667 30.167 137.334 90.5 242.001s90.5 184.667 90.5 240c0 41.333 -12.167 74.333 -36.5 99s-58.166 37 -101.499 37
c-26.667 0 -50.334 -5.33301 -71.001 -16s-43 -26.334 -67 -47.001v50c32.667 29.333 64.334 50.166 95.001 62.499s61.667 18.5 93 18.5c66 0 120.167 -17.167 162.5 -51.5s63.5 -81.833 63.5 -142.5c0 -37.333 -9.16699 -75 -27.5 -113s-49.833 -84.333 -94.5 -139
c-46.667 -59.333 -83.167 -108.166 -109.5 -146.499s-39.5 -74.833 -39.5 -109.5c0 -28 8.66699 -77 26 -147zM474.999 236.001c-8 0 -15.333 3.66699 -22 11l-68 78c-4.66699 6.66699 -7 13.334 -7 20.001c0 7.33301 4 15.666 12 24.999l63 64c8 7.33301 15.333 11 22 11
c7.33301 0 15.333 -4 24 -12l62 -67c6.66699 -8 10 -15.333 10 -22c0 -8 -3.66699 -16 -11 -24l-62 -69c-10 -10 -17.667 -15 -23 -15z" />
    <glyph glyph-name="zero" unicode="0" horiz-adv-x="1181" 
d="M573 287c42 0 87.667 28.666 137 85.999c38 51.333 65.5 105.666 82.5 162.999s25.5 119.333 25.5 186c0 19.333 -0.666992 39 -2 59c-4.66699 74 -20.667 140.333 -48 199c-31.333 68.667 -72.666 103 -123.999 103c-14.667 0 -30.334 -3 -47.001 -9l-5 4
c-8 8 -12.333 13.333 -13 16c0 4 5.5 12.333 16.5 25s24.167 24.334 39.5 35.001c-37.333 -13.333 -75 -43.166 -113 -89.499s-70 -104.5 -96 -174.5s-39 -146.667 -39 -230c0 -72.667 13 -148 39 -226c40 -98 89 -147 147 -147zM551 -3.00098
c-69.333 0 -135.501 18.001 -198.501 54.001s-117.5 89.667 -163.5 161c-48 76.667 -83.333 158.167 -106 244.5s-34 173.5 -34 261.5c0 135.333 23.833 265.166 71.5 389.499s114.167 229 199.5 314s185 138.5 299 160.5c-4 -43.333 -6 -82.666 -6 -117.999l2 -57l9 56
c4.66699 27.333 7.33398 41 8.00098 41c6 -0.666992 11.667 -1.33398 17 -2.00098s11 -1.66699 17 -3c98.667 -17.333 183.167 -60.166 253.5 -128.499s124.333 -153.5 162 -255.5s56.5 -210.333 56.5 -325c0 -122.667 -23.667 -245 -71 -367
c-60.667 -142.667 -137.667 -249.334 -231 -320.001s-188.333 -106 -285 -106z" />
    <glyph glyph-name="one" unicode="1" horiz-adv-x="681" 
d="M233 -28l5.99902 146.001c4 96.667 8 215.167 12 355.5s6 275.833 6 406.5c0 89.333 -1.33301 169.666 -4 240.999c64.667 37.333 119.334 65.333 164.001 84l-45 -16c-43.333 -16.667 -90.666 -32.167 -141.999 -46.5s-110.333 -21.5 -177 -21.5c-6 30 -9 59 -9 87
c0 46 5.5 87.167 16.5 123.5s21.833 65.166 32.5 86.499l16 31c14 -10.667 32.333 -16 55 -16c36.667 0 78 8.5 124 25.5s84 32.5 114 46.5c89.333 39.333 153.666 62.666 192.999 69.999c9.33301 1.33301 19.666 4 30.999 8c-16 -44 -24 -99.667 -24 -167
c0 -49.333 3 -93 9 -131l8 -57c-17.333 -57.333 -30.833 -145.666 -40.5 -264.999s-14.5 -245.666 -14.5 -378.999c0 -235.333 13.333 -415 40 -539c-23.333 6 -47.666 9 -72.999 9c-46 0 -92 -6.83301 -138 -20.5s-84 -27.5 -114 -41.5z" />
    <glyph glyph-name="two" unicode="2" horiz-adv-x="1066" 
d="M168 -13c-8.66699 0 -17 0.332031 -25 0.999023c-28 24 -42 60.667 -42 110c0 41.333 7.5 84.166 22.5 128.499s29.833 81.833 44.5 112.5l23 46c90 57.333 169.167 124.833 237.5 202.5s123.833 154.5 166.5 230.5s70.334 140.333 83.001 193c6 26.667 9 51.667 9 75
c0 47.333 -8.33301 83 -25 107h4c2 0 5 -0.666992 9 -2s9.5 -4.5 16.5 -9.5s16.167 -12.5 27.5 -22.5c-26.667 50.667 -59 76 -97 76c-35.333 0 -71.5 -20 -108.5 -60s-70.5 -90.667 -100.5 -152l-16 24c-11.333 16 -30 35.167 -56 57.5s-61.833 43.833 -107.5 64.5
s-102.834 36.334 -171.501 47.001c30.667 57.333 70 114.333 118 171s103 104.334 165 143.001c67.333 41.333 140 62.666 218 63.999c80 0 153.667 -19.667 221 -59s121.333 -94 162 -164s61 -150.667 61 -242c0 -145.333 -60 -303 -180 -473
c-64.667 -91.333 -142.334 -177 -233.001 -257c-41.333 -36.667 -84.666 -70.334 -129.999 -101.001l123 66c29.333 15.333 106.666 23 231.999 23c50.667 0 106.667 -2.66699 168 -8c-21.333 -25.333 -38.333 -57.666 -51 -96.999s-22.167 -78.833 -28.5 -118.5
s-10.166 -73.5 -11.499 -101.5l-3 -41c-42 22 -100.333 33 -175 33c-52 0 -107 -4.16699 -165 -12.5s-114.333 -17.166 -169 -26.499c-43.333 -8 -83.5 -14.667 -120.5 -20s-68.833 -8 -95.5 -8z" />
    <glyph glyph-name="three" unicode="3" horiz-adv-x="1000" 
d="M516 -24c-54 0 -120.33 6.00293 -198.997 18.0029c-48.667 8 -90 12 -124 12c-22 0 -40.333 -3 -55 -9c-20.667 26 -33.334 55.667 -38.001 89c-4 29.333 -6 58.666 -6 87.999v13c0 28.667 -1.33301 55 -4 79s-10.667 43.667 -24 59c64.667 30.667 132.667 46 204 46
c34.667 0 67.667 -2.83301 99 -8.5s61.333 -11.834 90 -18.501c31.333 -8 61 -14 89 -18c-12.667 -16 -36.667 -24 -72 -24c11.333 -2 22 -3 32 -3c78 0 125.667 50 143 150c2.66699 14 4 29 4 45c0 46.667 -10.5 93.5 -31.5 140.5s-52.5 72.833 -94.5 77.5h-3
c-41.333 0 -97.333 -21.667 -168 -65c-18 22.667 -37.167 41 -57.5 55s-38.333 31 -54 51s-25.5 50 -29.5 90c14.667 12 30 23.333 46 34l3 4c81.333 90.667 160.666 192 237.999 304c1.33301 2.66699 19 8 53 16c12.667 4 24.334 7.5 35.001 10.5s18 5.5 22 7.5
c-44.667 -4.66699 -82.667 -9.33398 -114 -14.001l-26 -3c-158.667 -22.667 -260.334 -34 -305.001 -34c-12.667 0 -22.834 0.5 -30.501 1.5s-21.167 1.5 -40.5 1.5l-1 11c-1.33301 7.33301 -2 18 -2 32c0 19.333 2.33301 45.166 7 77.499s14.5 70.666 29.5 114.999
s36.833 94.833 65.5 151.5c50.667 -26 120.334 -39 209.001 -39c81.333 0 188.333 10.333 321 31c41.333 6 79.833 11.167 115.5 15.5s68.167 6.5 97.5 6.5c-38.667 -86 -58 -179.667 -58 -281c0 -40 1.66699 -66.667 5 -80l3 -2l-2 -3
c-62.667 -67.333 -169.334 -168.333 -320.001 -303c2 0 18.167 9.5 48.5 28.5s46.833 28.5 49.5 28.5c8 -2.66699 15.333 -5.5 22 -8.5s14 -6.83301 22 -11.5c76.667 -40 138 -103.167 184 -189.5s69 -181.166 69 -284.499c0 -84 -18 -168.667 -54 -254
c-30.667 -63.333 -67 -112.166 -109 -146.499s-87.5 -57.833 -136.5 -70.5s-98.167 -19 -147.5 -19z" />
    <glyph glyph-name="four" unicode="4" horiz-adv-x="1257" 
d="M697 -26c14 156 22.667 345.334 26 568.001c-137.333 -8.66699 -255.833 -21.5 -355.5 -38.5s-153.167 -30.167 -160.5 -39.5c-35.333 30.667 -60.833 66 -76.5 106s-27.5 79.667 -35.5 119c-9.33301 43.333 -21.333 79.666 -36 108.999l10 4
c7.33301 4.66699 19.666 9.33398 36.999 14.001c80 66 160.167 149 240.5 249s152 199.667 215 299s109.167 180.666 138.5 243.999c58 -62.667 109.833 -109.167 155.5 -139.5s81.834 -49.833 108.501 -58.5l40 -13c-82 -82.667 -257.667 -297.334 -527 -644.001l89 76
l235 8c-44 5.33301 -70 9.66602 -78 12.999l-4 175c37.333 12 71.333 27 102 45c21.333 12 42.166 22.333 62.499 31s41.166 13 62.499 13c26 0 53.333 -9.33301 82 -28c-2 -77.333 -3.33301 -156.666 -4 -237.999c88.667 5.33301 147.334 9.33301 176.001 12l-15 -59
c-10 -39.333 -15 -89.333 -15 -150c0 -41.333 4.33301 -85.666 13 -132.999c-66 14.667 -139.667 23.667 -221 27c6.66699 -1.33301 19 -4.83301 37 -10.5s27 -9.16699 27 -10.5c2.66699 -180 7.33398 -336.333 14.001 -469l-31 1c-68.667 0 -126 -6.83301 -172 -20.5
s-81 -27.5 -105 -41.5z" />
    <glyph glyph-name="five" unicode="5" horiz-adv-x="1064" 
d="M516 -24c-54 0 -120.334 5.99707 -199.001 17.9971c-48.667 8 -90 12 -124 12c-22 0 -40.333 -3 -55 -9c-20.667 26 -33.334 55.667 -38.001 89c-4 29.333 -6 58.666 -6 87.999v13c0 28.667 -1.33301 55 -4 79s-10.667 43.667 -24 59c64 30.667 131.333 46 202 46
c34.667 0 68.167 -2.66699 100.5 -8s64.5 -11.666 96.5 -18.999c23.333 -5.33301 46.333 -10 69 -14c14 -3.33301 23.667 -5.33301 29 -6c-12 -12 -31.333 -18 -58 -18c-11.333 0 -20 0.666992 -26 2c19.333 -7.33301 37 -11 53 -11c60.667 0 100.334 50.667 119.001 152
c2.66699 14 4 29 4 45c0 46.667 -10.5 93.5 -31.5 140.5s-52.5 72.833 -94.5 77.5h-3c-41.333 0 -97.333 -21.667 -168 -65c-10.667 -6 -21 -9 -31 -9c-22.667 0 -43.5 11.333 -62.5 34s-36.833 47.834 -53.5 75.501s-32.334 48.834 -47.001 63.501
c27.333 78.667 42 192.667 44 342c27.333 3.33301 53.666 9.33301 78.999 18c-25.333 -2.66699 -44.666 -4 -57.999 -4c-12 0 -22 0.666992 -30 2s-21 2 -39 2l-1 11c-1.33301 7.33301 -2 18 -2 32c0 19.333 2.33301 45.166 7 77.499s14.5 70.666 29.5 114.999
s36.833 94.833 65.5 151.5c50.667 -26 120.334 -39 209.001 -39c81.333 0 188.333 10.333 321 31c41.333 6 79.833 11.167 115.5 15.5s68.167 6.5 97.5 6.5c-38 -83.333 -57 -176.666 -57 -279.999c0 -26 1 -46.667 3 -62l2 -24c-28 14 -73.667 21 -137 21
c-50 0 -101 -3 -153 -9c-41.333 -4.66699 -103.666 -13 -186.999 -25c-29.333 -107.333 -54.333 -210.666 -75 -309.999l19.5 43c10.333 22.667 17.166 35.667 20.499 39c36 10.667 72 16 108 16c54.667 0 109.334 -13.667 164.001 -41c76.667 -40 138 -103 184 -189
s69 -180.667 69 -284c0 -84.667 -18 -169.667 -54 -255c-30.667 -63.333 -67 -112.166 -109 -146.499s-87.5 -57.833 -136.5 -70.5s-98.167 -19 -147.5 -19z" />
    <glyph glyph-name="six" unicode="6" horiz-adv-x="1036" 
d="M487 -20c-100 0 -191 29.002 -273 87.002c-32 22.667 -61 52.167 -87 88.5s-46.667 79.666 -62 129.999s-23 108.5 -23 174.5c0 36.667 2.66699 75.667 8 117l1 7c6 38.667 14.667 80 26 124c38 150 105.333 306 202 468s219.667 316.333 369 463
c6 -50 26.833 -98.333 62.5 -145s74.5 -85.5 116.5 -116.5s76 -48.833 102 -53.5c-149.333 -103.333 -268 -217.666 -356 -342.999l-6 -1c-51.333 -4.66699 -97 -16.334 -137 -35.001c36.667 8.66699 73.667 13 111 13c25.333 0 51 -2 77 -6c124 -22 218 -75 282 -159
s96 -178.667 96 -284c0 -54.667 -8.83301 -109.334 -26.5 -164.001s-44.5 -107 -80.5 -157c-53.333 -72 -115.5 -124.667 -186.5 -158s-142.833 -50 -215.5 -50zM480 293.002c27.333 0 54.499 6.66699 81.499 20s50.5 33.666 70.5 60.999c30.667 47.333 46 89 46 125
c0 36.667 -12 65.834 -36 87.501s-51.667 32.5 -83 32.5c-30.667 0 -60.667 -12 -90 -36s-51.333 -62.333 -66 -115c-16.667 -24 -39.667 -42.667 -69 -56s-60.333 -20 -93 -20c-13.333 0 -26.666 1.33301 -39.999 4c21.333 -10 44.666 -15 69.999 -15
c14 0 27.333 0.833008 40 2.5s23 3.5 31 5.5l12 2c6.66699 -32.667 21.834 -57.167 45.501 -73.5s50.5 -24.5 80.5 -24.5z" />
    <glyph glyph-name="seven" unicode="7" horiz-adv-x="967" 
d="M463 -20c-71.333 34.667 -151 51.9951 -239 51.9951c-37.333 0 -67.666 -2 -90.999 -6l-35 -6c39.333 194.667 86.333 387 141 577h-23c-23.333 0 -46 1 -68 3l-9 27c-6 18 -9 41 -9 69c0 50.667 14 98.334 42 143.001c22 -4 46 -6 72 -6
c44.667 0 93.334 3.66699 146.001 11c-6.66699 0 -15.5 0.333008 -26.5 1s-21 1.33398 -30 2.00098s-14.833 1.33398 -17.5 2.00098c44.667 136.667 87 258 127 364l39 10c40.667 10.667 66.334 17.667 77.001 21c-40.667 -4 -75.667 -8.33301 -105 -13
c-183.333 -24.667 -295.333 -37 -336 -37c-12.667 0 -23 0.5 -31 1.5s-20 1.5 -36 1.5h-6l-2 11c-1.33301 7.33301 -2 18 -2 32c0 96.667 35 211.334 105 344.001c51.333 -26 122.666 -39 213.999 -39c52.667 0 107.167 3.33301 163.5 10s110.833 13.667 163.5 21
c103.333 14.667 174 22 212 22h5c-38.667 -86 -58 -179.667 -58 -281c0 -26 0.666992 -46.667 2 -62l3 -23l-12 5c-72 -84 -137.667 -209.333 -197 -376c35.333 0 69.666 -3.66699 102.999 -11l-12 -33c-8 -22 -16 -50.667 -24 -86s-12.667 -73.666 -14 -114.999
c-25.333 4.66699 -53 7 -83 7c-40.667 0 -84 -2.66699 -130 -8c8 0 18.167 -0.5 30.5 -1.5s23.666 -2.16699 33.999 -3.5s16.5 -2.33301 18.5 -3c-52.667 -202 -86.667 -411 -102 -627z" />
    <glyph glyph-name="eight" unicode="8" horiz-adv-x="1069" 
d="M540 -36c-93.333 0 -175.169 17.332 -245.502 51.999s-126.5 82.334 -168.5 143.001c-56.667 80 -85 174.333 -85 283c0 52.667 6.5 102 19.5 148s29.5 90.333 49.5 133l71 137c2 -2 7.33301 -7 16 -15l29.5 -27c11 -10 21.5 -19 31.5 -27
c-98 116.667 -147 235.334 -147 356.001c0 67.333 16.333 132.666 49 195.999c43.333 78.667 101.5 138.334 174.5 179.001s150.167 61 231.5 61c73.333 0 144.333 -17.167 213 -51.5s127 -86.833 175 -157.5c51.333 -78.667 77 -161.334 77 -248.001
c0 -59.333 -10.167 -117.333 -30.5 -174s-45.666 -111 -75.999 -163s-61.5 -101.333 -93.5 -148c24.667 25.333 42 41.333 52 48c87.333 -86 131 -182 131 -288c0 -20 -1.66699 -41 -5 -63c-14.667 -98 -60.167 -181.667 -136.5 -251s-178.166 -110 -305.499 -122z
M579.997 918.999c69.333 86.667 105 158.668 107 216.001c0 28 -6 51.167 -18 69.5s-27.5 32.166 -46.5 41.499s-38.833 14 -59.5 14c-22.667 0 -44 -5.66699 -64 -17c6 10 18.333 18.667 37 26c-34 -5.33301 -60.333 -20.333 -79 -45s-28 -51.667 -28 -81
c4.66699 -71.333 49.667 -141.333 135 -210zM530.997 282c-13.333 1.33301 -25.332 4.49902 -35.999 9.49902s-18.334 10.833 -23.001 17.5c19.333 -8 42 -12 68 -12c32.667 0 64.334 7 95.001 21c35.333 16.667 54.666 43.667 57.999 81c0 28.667 -15.5 56.167 -46.5 82.5
s-70.833 55.5 -119.5 87.5l-55 38c-22 -34.667 -39.667 -67.167 -53 -97.5s-20 -60.5 -20 -90.5v-11c0 -33.333 10.5 -62.666 31.5 -87.999s53.167 -38 96.5 -38h4z" />
    <glyph glyph-name="nine" unicode="9" horiz-adv-x="1133" 
d="M478 862c20 0 42.332 7.33301 66.999 22c44 26 89.333 77.333 136 154c20 32 33 54.333 39 67c-8.66699 -12 -20 -26.5 -34 -43.5s-25 -28.5 -33 -34.5c8 35.333 12 67 12 95c0 50.667 -10.333 88.834 -31 114.501s-45.667 38.5 -75 38.5
c-21.333 0 -43.666 -7.16699 -66.999 -21.5s-45 -36 -65 -65s-34.333 -58.333 -43 -88s-13 -57.834 -13 -84.501c0 -43.333 9.66699 -79.833 29 -109.5s45.333 -44.5 78 -44.5zM360.999 -80c-28.667 67.333 -64.666 122.997 -107.999 166.997s-82.666 77 -117.999 99l-53 32
c130.667 92 240 196.333 328 313c-106.667 22 -194.167 77 -262.5 165s-102.5 191.333 -102.5 310c0 26.667 2 54 6 82c17.333 108 59.5 207 126.5 297s152.833 152 257.5 186c38 11.333 78 17 120 17c60.667 0 121.167 -13 181.5 -39s112.166 -67 155.499 -123
s72 -128.667 86 -218c3.33301 -22.667 5 -47 5 -73v-16c36 -23.333 70.667 -57.333 104 -102c-32 -66 -76 -136.333 -132 -211s-121.333 -139 -196 -193c16 6.66699 37.667 19.334 65 38.001s49.666 35.334 66.999 50.001c-48 -128.667 -116 -260.167 -204 -394.5
s-196.667 -263.166 -326 -386.499z" />
    <glyph glyph-name="colon" unicode=":" 
d="M982 0h-912v1587h912v-1587zM927 55v1477h-802v-1477h802zM488 503l-35.001 0.000976562c-26 71.333 -39 125.666 -39 162.999c0 56.667 30.167 137.334 90.5 242.001s90.5 184.667 90.5 240c0 41.333 -12.167 74.333 -36.5 99s-58.166 37 -101.499 37
c-26.667 0 -50.334 -5.33301 -71.001 -16s-43 -26.334 -67 -47.001v50c32.667 29.333 64.334 50.166 95.001 62.499s61.667 18.5 93 18.5c66 0 120.167 -17.167 162.5 -51.5s63.5 -81.833 63.5 -142.5c0 -37.333 -9.16699 -75 -27.5 -113s-49.833 -84.333 -94.5 -139
c-46.667 -59.333 -83.167 -108.166 -109.5 -146.499s-39.5 -74.833 -39.5 -109.5c0 -28 8.66699 -77 26 -147zM474.999 236.001c-8 0 -15.333 3.66699 -22 11l-68 78c-4.66699 6.66699 -7 13.334 -7 20.001c0 7.33301 4 15.666 12 24.999l63 64c8 7.33301 15.333 11 22 11
c7.33301 0 15.333 -4 24 -12l62 -67c6.66699 -8 10 -15.333 10 -22c0 -8 -3.66699 -16 -11 -24l-62 -69c-10 -10 -17.667 -15 -23 -15z" />
    <glyph glyph-name="semicolon" unicode=";" 
d="M982 0h-912v1587h912v-1587zM927 55v1477h-802v-1477h802zM488 503l-35.001 0.000976562c-26 71.333 -39 125.666 -39 162.999c0 56.667 30.167 137.334 90.5 242.001s90.5 184.667 90.5 240c0 41.333 -12.167 74.333 -36.5 99s-58.166 37 -101.499 37
c-26.667 0 -50.334 -5.33301 -71.001 -16s-43 -26.334 -67 -47.001v50c32.667 29.333 64.334 50.166 95.001 62.499s61.667 18.5 93 18.5c66 0 120.167 -17.167 162.5 -51.5s63.5 -81.833 63.5 -142.5c0 -37.333 -9.16699 -75 -27.5 -113s-49.833 -84.333 -94.5 -139
c-46.667 -59.333 -83.167 -108.166 -109.5 -146.499s-39.5 -74.833 -39.5 -109.5c0 -28 8.66699 -77 26 -147zM474.999 236.001c-8 0 -15.333 3.66699 -22 11l-68 78c-4.66699 6.66699 -7 13.334 -7 20.001c0 7.33301 4 15.666 12 24.999l63 64c8 7.33301 15.333 11 22 11
c7.33301 0 15.333 -4 24 -12l62 -67c6.66699 -8 10 -15.333 10 -22c0 -8 -3.66699 -16 -11 -24l-62 -69c-10 -10 -17.667 -15 -23 -15z" />
    <glyph glyph-name="less" unicode="&#x3c;" 
d="M982 0h-912v1587h912v-1587zM927 55v1477h-802v-1477h802zM488 503l-35.001 0.000976562c-26 71.333 -39 125.666 -39 162.999c0 56.667 30.167 137.334 90.5 242.001s90.5 184.667 90.5 240c0 41.333 -12.167 74.333 -36.5 99s-58.166 37 -101.499 37
c-26.667 0 -50.334 -5.33301 -71.001 -16s-43 -26.334 -67 -47.001v50c32.667 29.333 64.334 50.166 95.001 62.499s61.667 18.5 93 18.5c66 0 120.167 -17.167 162.5 -51.5s63.5 -81.833 63.5 -142.5c0 -37.333 -9.16699 -75 -27.5 -113s-49.833 -84.333 -94.5 -139
c-46.667 -59.333 -83.167 -108.166 -109.5 -146.499s-39.5 -74.833 -39.5 -109.5c0 -28 8.66699 -77 26 -147zM474.999 236.001c-8 0 -15.333 3.66699 -22 11l-68 78c-4.66699 6.66699 -7 13.334 -7 20.001c0 7.33301 4 15.666 12 24.999l63 64c8 7.33301 15.333 11 22 11
c7.33301 0 15.333 -4 24 -12l62 -67c6.66699 -8 10 -15.333 10 -22c0 -8 -3.66699 -16 -11 -24l-62 -69c-10 -10 -17.667 -15 -23 -15z" />
    <glyph glyph-name="equal" unicode="=" 
d="M982 0h-912v1587h912v-1587zM927 55v1477h-802v-1477h802zM488 503l-35.001 0.000976562c-26 71.333 -39 125.666 -39 162.999c0 56.667 30.167 137.334 90.5 242.001s90.5 184.667 90.5 240c0 41.333 -12.167 74.333 -36.5 99s-58.166 37 -101.499 37
c-26.667 0 -50.334 -5.33301 -71.001 -16s-43 -26.334 -67 -47.001v50c32.667 29.333 64.334 50.166 95.001 62.499s61.667 18.5 93 18.5c66 0 120.167 -17.167 162.5 -51.5s63.5 -81.833 63.5 -142.5c0 -37.333 -9.16699 -75 -27.5 -113s-49.833 -84.333 -94.5 -139
c-46.667 -59.333 -83.167 -108.166 -109.5 -146.499s-39.5 -74.833 -39.5 -109.5c0 -28 8.66699 -77 26 -147zM474.999 236.001c-8 0 -15.333 3.66699 -22 11l-68 78c-4.66699 6.66699 -7 13.334 -7 20.001c0 7.33301 4 15.666 12 24.999l63 64c8 7.33301 15.333 11 22 11
c7.33301 0 15.333 -4 24 -12l62 -67c6.66699 -8 10 -15.333 10 -22c0 -8 -3.66699 -16 -11 -24l-62 -69c-10 -10 -17.667 -15 -23 -15z" />
    <glyph glyph-name="greater" unicode="&#x3e;" 
d="M982 0h-912v1587h912v-1587zM927 55v1477h-802v-1477h802zM488 503l-35.001 0.000976562c-26 71.333 -39 125.666 -39 162.999c0 56.667 30.167 137.334 90.5 242.001s90.5 184.667 90.5 240c0 41.333 -12.167 74.333 -36.5 99s-58.166 37 -101.499 37
c-26.667 0 -50.334 -5.33301 -71.001 -16s-43 -26.334 -67 -47.001v50c32.667 29.333 64.334 50.166 95.001 62.499s61.667 18.5 93 18.5c66 0 120.167 -17.167 162.5 -51.5s63.5 -81.833 63.5 -142.5c0 -37.333 -9.16699 -75 -27.5 -113s-49.833 -84.333 -94.5 -139
c-46.667 -59.333 -83.167 -108.166 -109.5 -146.499s-39.5 -74.833 -39.5 -109.5c0 -28 8.66699 -77 26 -147zM474.999 236.001c-8 0 -15.333 3.66699 -22 11l-68 78c-4.66699 6.66699 -7 13.334 -7 20.001c0 7.33301 4 15.666 12 24.999l63 64c8 7.33301 15.333 11 22 11
c7.33301 0 15.333 -4 24 -12l62 -67c6.66699 -8 10 -15.333 10 -22c0 -8 -3.66699 -16 -11 -24l-62 -69c-10 -10 -17.667 -15 -23 -15z" />
    <glyph glyph-name="question" unicode="?" horiz-adv-x="1025" 
d="M467 -51c-8.66699 0 -17.666 0.999023 -26.999 2.99902c-40.667 8 -72.167 25.333 -94.5 52s-33.5 57.334 -33.5 92.001c0 21.333 5 43.333 15 66c13.333 28.667 32 50.667 56 66s49.667 23 77 23c14 0 28 -2.33301 42 -7l14 33
c37.333 -24.667 64.166 -51.667 80.499 -81s24.5 -58.333 24.5 -87c0 -42.667 -15 -80 -45 -112s-66.333 -48 -109 -48zM347.001 344.999c-2.66699 23.333 -4.00488 45.3311 -4.00488 65.998c0 49.333 9.66699 100.333 29 153c16.667 47.333 37.834 91.333 63.501 132
s52.834 80.667 81.501 120c47.333 60.667 90.333 128.334 129 203.001l-1 -1c28 64.667 42 118.334 42 161.001c0 23.333 -3.66699 43.666 -11 60.999c10.667 -4 21 -18 31 -42l4 -8c0 38.667 -10 66.167 -30 82.5s-43.333 24.5 -70 24.5c-42 0 -82.667 -15.333 -122 -46
c-42.667 -37.333 -73.834 -83.666 -93.501 -138.999s-32.834 -111.333 -39.501 -168l-24 19c-15.333 12.667 -40.833 25.334 -76.5 38.001s-83.167 19 -142.5 19c-32.667 0 -69.667 -3 -111 -9c27.333 104 63.166 197.833 107.499 281.5s107.833 155.5 190.5 215.5
c88.667 61.333 181.334 92 278.001 92c70.667 0 135.834 -16.5 195.501 -49.5s107.334 -79.833 143.001 -140.5s53.5 -131.667 53.5 -213c0 -52.667 -8.66699 -109 -26 -169c-22.667 -72.667 -51.667 -133 -87 -181s-71.666 -91.333 -108.999 -130
c-44 -44 -82.167 -91.5 -114.5 -142.5s-51.166 -117.167 -56.499 -198.5c-21.333 6 -43 9 -65 9c-28 0 -54.667 -3.33301 -80 -10s-45.666 -13.334 -60.999 -20.001z" />
    <glyph glyph-name="at" unicode="@" horiz-adv-x="1211" 
d="M492 701c9.33301 0 25.833 13.3311 49.5 39.998s49.167 58 76.5 94l73 100c-10.667 4.66699 -22 7 -34 7c-42.667 -7.33301 -82 -36.666 -118 -87.999s-54 -96.666 -54 -135.999c0 -2.66699 0.166992 -6.16699 0.5 -10.5s2.5 -6.5 6.5 -6.5zM605 174.998
c-72.667 0 -143.164 10.832 -211.497 32.499s-129.5 53.5 -183.5 95.5c-70.667 56 -122.834 122.333 -156.501 199s-50.5 156.667 -50.5 240c0 92 19.167 182.667 57.5 272s93.5 168 165.5 236c60.667 56 126 97.667 196 125s140.667 41 212 41
c108.667 0 210.667 -31.667 306 -95c73.333 -52 128 -115.333 164 -190s54 -151.667 54 -231c0 -54 -8.33301 -106.667 -25 -158s-41.334 -98.333 -74.001 -141c-25.333 -32.667 -55 -59.334 -89 -80.001s-71 -31 -111 -31c-14 0 -28 1.33301 -42 4
c-79.333 20.667 -126 66.667 -140 138l9 16c18 29.333 29.667 52.333 35 69c-44.667 -74 -96 -130.333 -154 -169c-35.333 -22 -69.666 -33 -102.999 -33c-49.333 0 -91.833 20.5 -127.5 61.5s-53.5 93.5 -53.5 157.5c1.33301 72 21.333 141 60 207
c36 60 81.667 109.5 137 148.5s113.333 58.5 174 58.5c61.333 0 117.333 -22.333 168 -67l-56 -73c12 4 27 6 45 6c45.333 0 71.333 -21.333 78 -64c-24.667 -81.333 -37 -141.333 -37 -180c0 -37.333 4.33301 -56 13 -56c4.66699 0 12 6.66699 22 20
c34.667 48.667 52 104.334 52 167.001c0 45.333 -10 90 -30 134s-50.667 81.667 -92 113c-59.333 41.333 -122.333 62 -189 62c-63.333 0 -125.333 -17.833 -186 -53.5s-112.667 -88.5 -156 -158.5c-47.333 -80 -71 -162.667 -71 -248c0 -80.667 19.667 -148 59 -202
c34.667 -47.333 80.667 -84 138 -110s117.666 -39 180.999 -39c88 0 166 24 234 72l10 -35c7.33301 -23.333 20.833 -50.166 40.5 -80.499s48.5 -57.5 86.5 -81.5c-108.667 -66 -228.334 -99 -359.001 -99z" />
    <glyph glyph-name="A" unicode="A" horiz-adv-x="1332" 
d="M336 -55l-36.999 35.998c-24.667 24 -61.5 48.833 -110.5 74.5s-110.5 43.5 -184.5 53.5c72.667 116.667 134.334 246.334 185.001 389.001c-18.667 0 -38.334 0.666992 -59.001 2l-6 12c-3.33301 8.66699 -6.83301 20.5 -10.5 35.5s-5.5 32.167 -5.5 51.5
c0 66.667 27 130.334 81 191.001c24.667 -8 51 -13.667 79 -17c19.333 91.333 32.333 182.333 39 273l-76 -28l-19 28c-12.667 18.667 -27.334 43.5 -44.001 74.5s-31.334 65.5 -44.001 103.5s-19 76.667 -19 116c0 36.667 8.33301 72.334 25 107.001
c58 6 111.667 15.5 161 28.5s97 27.167 143 42.5s93.333 29.166 142 41.499s95.334 18.5 140.001 18.5c108.667 0 198.834 -33.333 270.501 -100s115.5 -161 131.5 -283c4 -41.333 6 -84.666 6 -129.999c0 -46 -1 -93.667 -3 -143c38 6 75 9.33301 111 10
c-14.667 -54.667 -22 -104.334 -22 -149.001c0 -42.667 3.33301 -78 10 -106l10 -41c-32 4 -63.667 6 -95 6c-50 0 -99.667 -4 -149 -12h23c59.333 0 97 -3 113 -9c4.66699 -74.667 18.167 -151.5 40.5 -230.5s56.166 -151.5 101.499 -217.5
c-66 -14.667 -124.5 -39.667 -175.5 -75s-91.167 -69 -120.5 -101l-44 -48c-73.333 133.333 -121 294 -143 482c-4.66699 50.667 -7.66699 102 -9 154l-49 -12c-110 -29.333 -229 -52 -357 -68c10 -2 22 -3 36 -3c38.667 0 81 4.33301 127 13l-31 -95l-75 -226z
M602.001 804.998c56.667 12.667 114.001 26.667 172.001 42c2.66699 88 4 148.667 4 182c0 88.667 -6 145.667 -18 171c-4.66699 10 -13.334 15 -26.001 15c-13.333 0 -32.333 -4.33301 -57 -13c-32.667 -11.333 -67.667 -26 -105 -44l22 5c48 10 75.667 15 83 15l2 -1z" />
    <glyph glyph-name="B" unicode="B" horiz-adv-x="1121" 
d="M452 925c32.667 15.333 62.666 33.833 89.999 55.5s49 47.167 65 76.5c4 8 8.83301 20.667 14.5 38s8.5 35 8.5 53c0 50 -25.667 75 -77 75c-46.667 -2.66699 -104.667 -14.334 -174 -35.001c-27.333 -8 -55 -15.333 -83 -22c18 2.66699 38 6.33398 60 11.001
c46.667 8.66699 76.334 13 89.001 13h5c1.33301 -96.667 2 -185 2 -265zM617.999 392c57.333 0 96.667 13.667 118 41c15.333 19.333 23 41.333 23 66c0 26.667 -8 53.167 -24 79.5s-39 47.5 -69 63.5c-65.333 32.667 -153.333 49 -264 49c-25.333 0 -50 -0.666992 -74 -2
c14.667 -0.666992 34.667 -2.66699 60 -6s44.666 -7.33301 57.999 -12l-2 -81c-1.33301 -64 -3.66602 -123 -6.99902 -177c68 -14 128.333 -21 181 -21zM548 3c-68 0 -137.83 4.16699 -209.497 12.5s-144.834 12.5 -219.501 12.5l-58 -1c10 75.333 15 142.333 15 201
c0 74 -4 132.333 -12 175l-13 64c14.667 0 29.334 -0.666992 44.001 -2l22 -1c14 103.333 21 208.333 21 315c0 122.667 -10.333 243.334 -31 362.001c-32.667 0 -66.334 3.33301 -101.001 10c19.333 80 29 158.667 29 236c0 50 -2.66699 89.333 -8 118l-8 44
c35.333 -7.33301 71.333 -11 108 -11c44 0 106.833 5.83301 188.5 17.5s145.5 17.5 191.5 17.5s91.667 -5.66699 137 -17c63.333 -18 115.5 -45.333 156.5 -82s71.167 -79.5 90.5 -128.5s29 -99.5 29 -151.5s-9 -103.333 -27 -154
c-30 -84.667 -82.333 -154.334 -157 -209.001c30.667 12.667 55.667 29 75 49l14 -7c13.333 -5.33301 25.666 -11 36.999 -17c73.333 -44 128.666 -101.167 165.999 -171.5s56 -144.166 56 -221.499c0 -72 -17 -141.5 -51 -208.5s-85.333 -122.833 -154 -167.5
c-52 -32.667 -105.833 -54.834 -161.5 -66.501s-112.167 -17.5 -169.5 -17.5z" />
    <glyph glyph-name="C" unicode="C" horiz-adv-x="1217" 
d="M472 -23c-73.333 0 -150 23.3359 -230 70.0029c-62.667 44 -111.334 100.167 -146.001 168.5s-58.5 142.666 -71.5 222.999s-19.5 159.5 -19.5 237.5v37c7.33301 240.667 43.333 428.334 108 563.001c98.667 204 235.667 306 411 306c86.667 0 172 -26 256 -78
c-0.666992 -6 -8.33398 -39 -23.001 -99l-5 -21c41.333 88 72 144.333 92 169l11 16l37 -32c25.333 -20.667 59.5 -45.334 102.5 -74.001s92.833 -55.667 149.5 -81l-55 -54c-36.667 -36 -80.5 -85 -131.5 -147s-99.833 -132.667 -146.5 -212l-174 89
c-0.666992 0.666992 -1 1.66699 -1 3c-6 21.333 -15 41.666 -27 60.999c-28 44.667 -63.667 67 -107 67c-31.333 0 -68.333 -16 -111 -48c26.667 13.333 51.334 20 74.001 20h7c-25.333 -30 -46.333 -71.167 -63 -123.5s-28.667 -99.5 -36 -141.5
c-20.667 -106 -31 -198.333 -31 -277c0 -126.667 24.667 -208.667 74 -246c13.333 -9.33301 28.333 -14 45 -14c30 0 65 15.667 105 47s84.333 80.666 133 147.999l37 -44c24.667 -28.667 60.334 -63 107.001 -103s103 -77.667 169 -113
c-56 -57.333 -113.167 -109.833 -171.5 -157.5s-118 -86.167 -179 -115.5s-124.167 -44 -189.5 -44z" />
    <glyph glyph-name="D" unicode="D" horiz-adv-x="1169" 
d="M492 388c65.333 9.33301 120.168 39.333 164.501 90s76.5 111.667 96.5 183c16 55.333 24 111 24 167c0 56.667 -8.83301 111 -26.5 163s-44.834 96 -81.501 132c-44.667 42.667 -98 64 -160 64c-28 0 -57.333 -3.33301 -88 -10c-35.333 -8 -72.333 -17.333 -111 -28
c76.667 12 135 18 175 18c8.66699 0 16 -0.333008 22 -1c-13.333 -142 -20 -323.333 -20 -544c0 -78 1.33301 -156 4 -234h1zM165.002 -18l-9.00098 41.0029c-6 27.333 -15.667 61.166 -29 101.499s-30.333 81.333 -51 123s-46 77.5 -76 107.5
c49.333 22.667 151.666 34 306.999 34c-10 1.33301 -24.5 3 -43.5 5s-37.667 3.66699 -56 5s-30.833 2 -37.5 2c1.33301 56.667 2 115 2 175c0 203.333 -8.33301 384 -25 542c-17.333 -2 -34.666 -3 -51.999 -3c-24.667 0 -50 2.33301 -76 7c-9.33301 32 -14 69.333 -14 112
c0 54.667 6 111.834 18 171.501s26.333 108.167 43 145.5c6.66699 -1.33301 13 -3 19 -5c8.66699 -2 19.167 -4.16699 31.5 -6.5s29.5 -3.5 51.5 -3.5c23.333 0 77 4 161 12c58.667 8 115.667 12 171 12c51.333 0 102.333 -6.5 153 -19.5s103.334 -37.5 158.001 -73.5
c108 -74.667 186.833 -168.834 236.5 -282.501s74.5 -234.834 74.5 -363.501c0 -124 -18.667 -235 -56 -333s-85 -180.667 -143 -248c-111.333 -130.667 -243.666 -205.334 -396.999 -224.001c-64.667 -8 -124.667 -12 -180 -12h-13
c-60.667 0 -103.334 -2.33301 -128.001 -7c-18.667 -3.33301 -31 -7.33301 -37 -12z" />
    <glyph glyph-name="E" unicode="E" horiz-adv-x="1042" 
d="M532 -10c-62 0 -124.669 13.6641 -188.002 40.9971c-79.333 38 -139.166 90.167 -179.499 156.5s-67 143.666 -80 231.999s-19.5 183.833 -19.5 286.5c0 132.667 7.66699 267.667 23 405l-43 -11l-11 45c-7.33301 29.333 -14.5 66.333 -21.5 111
s-10.5 89.334 -10.5 134.001c0 67.333 11 117.333 33 150c42.667 -14 111.334 -21 206.001 -21c58.667 0 114.334 2 167.001 6c199.333 10.667 344.666 16 435.999 16h90l-22 -48c-14.667 -32.667 -29.334 -77.5 -44.001 -134.5s-22 -122.5 -22 -196.5v-22
c-69.333 30 -157 45 -263 45c-51.333 0 -100.333 -2.66699 -147 -8c-42 -5.33301 -84 -11.666 -126 -18.999c36 2.66699 77 4 123 4c30 0 50 -1 60 -3c-19.333 -67.333 -36 -140.666 -50 -219.999c42.667 0.666992 86 1 130 1c53.333 0 105.666 -0.666992 156.999 -2
c-24 -37.333 -36 -98.333 -36 -183c0 -32.667 2 -68.667 6 -108c-58.667 27.333 -128.334 41 -209.001 41c-60 0 -119.667 -8.33301 -179 -25c21.333 2.66699 42 4 62 4s34.667 -1 44 -3v-30c0 -69.333 6 -136.666 18 -201.999c10 -51.333 38.333 -77 85 -77
c25.333 0 53 6.33301 83 19s59.167 27.5 87.5 44.5s52.833 33.167 73.5 48.5l5 -31c2.66699 -20 10.334 -47 23.001 -81s32.834 -72 60.501 -114s65.5 -84.667 113.5 -128l-50 -20c-66.667 -27.333 -131.667 -51.333 -195 -72s-126.666 -31 -189.999 -31z" />
    <glyph glyph-name="F" unicode="F" horiz-adv-x="1047" 
d="M85 -18c8.66699 112 12.998 410.667 12.998 896l-1 232l-62 -15l-8 39c-5.33301 25.333 -10.833 58.5 -16.5 99.5s-8.5 84.5 -8.5 130.5c0 59.333 7.66699 116.333 23 171c40 -13.333 115.333 -20 226 -20c62.667 0 121 1.66699 175 5c152 8 263.333 13 334 15
c52 2 125.333 3.33301 220 4l-20 -48c-13.333 -32 -26.5 -77.5 -39.5 -136.5s-19.5 -128.5 -19.5 -208.5v-9c-34.667 16 -79.5 27.333 -134.5 34s-109.833 10 -164.5 10c-81.333 0 -178.666 -9.33301 -291.999 -28c28 2 54.333 3 79 3c42 0 68.667 -1.33301 80 -4
c-8 -70 -13.667 -143.667 -17 -221c126 4 220.333 6 283 6c56 0 84.333 -0.333008 85 -1l-13 -36c-8.66699 -24 -17.5 -57.667 -26.5 -101s-14.833 -94.333 -17.5 -153c-66.667 21.333 -136.667 32 -210 32c-74 0 -143.667 -13 -209 -39c18.667 4 38.167 7.33301 58.5 10
s34.833 4 43.5 4h3c4.66699 -320 25 -530 61 -630c-31.333 3.33301 -62.666 5 -93.999 5c-56 0 -109.333 -3.83301 -160 -11.5s-91.667 -15.167 -123 -22.5z" />
    <glyph glyph-name="G" unicode="G" horiz-adv-x="1132" 
d="M665 -25c10.667 48.667 17.998 97.332 21.998 145.999c-68.667 -71.333 -156.334 -109.333 -263.001 -114c-80.667 0 -156 31 -226 93c-48 44 -86 98 -114 162c-54 118.667 -81 262 -81 430c0 134.667 15.333 257 46 367c48.667 162 127.667 289 237 381
s222.333 138 339 138c76 0 147.667 -21.333 215 -64c48 -33.333 86.5 -75 115.5 -125s49.833 -103.667 62.5 -161s19 -112 19 -164c0 -29.333 -1.66699 -57 -5 -83c-88.667 -33.333 -179 -50 -271 -50c-51.333 0 -92.666 3.66699 -123.999 11l-46 10c7.33301 36 11 67 11 93
c0 42.667 -8.16699 73.667 -24.5 93s-38.5 29 -66.5 29c-34 0 -74.667 -13.333 -122 -40l8 3c34 10 59.333 15 76 15c6 0 11 -0.666992 15 -2c-10.667 -6 -23 -16.333 -37 -31c-49.333 -54.667 -85.333 -124 -108 -208s-34 -166 -34 -246c0 -74 10 -147 30 -219
c25.333 -92.667 59.666 -139 102.999 -139c14.667 0 30.334 6 47.001 18c35.333 26 68 73.333 98 142l-22 -1c-12.667 0 -24.667 1 -36 3l-4 28c-2 18.667 -3 41.667 -3 69c0 73.333 12.667 134 38 182c33.333 -13.333 71.666 -20 114.999 -20
c52 0 108.333 4.83301 169 14.5s118 14.5 172 14.5c16.667 0 33 -0.666992 49 -2c-26.667 -49.333 -40 -126.666 -40 -231.999v-25c-41.333 6 -82 9 -122 9l-53 -2c20.667 -2 42.334 -5 65.001 -9s37.334 -7.33301 44.001 -10c-8.66699 -72.667 -13 -148 -13 -226
c0 -81.333 6.33301 -158 19 -230h-14c-95.333 0 -190.666 -16 -285.999 -48z" />
    <glyph glyph-name="H" unicode="H" horiz-adv-x="1206" 
d="M674 -17l3.99805 668.001c-61.333 -8 -126 -17.333 -194 -28l-199 -29l112 1l38 -1c0 -226 8.33301 -422 25 -588l-21 8c-13.333 5.33301 -33.666 10.5 -60.999 15.5s-62 7.5 -104 7.5c-59.333 0 -133 -9.33301 -221 -28c17.333 162.667 28 349.667 32 561l-64 -6
c-6 8 -10.667 26.167 -14 54.5s-5 60.5 -5 96.5c0 42 2.33301 82.667 7 122s12 67.666 22 84.999c12 -3.33301 24 -6 36 -8l19 -4c-1.33301 147.333 -5.5 282.833 -12.5 406.5s-15.833 210.5 -26.5 260.5c77.333 -13.333 150 -20 218 -20c62.667 0 115.334 3 158.001 9l64 8
c-24 -158.667 -40 -381.667 -48 -669c49.333 4.66699 101 10.667 155 18l86 10l3 642l19 -7c12.667 -4 35 -9.16699 67 -15.5s76.5 -12.166 133.5 -17.499s129.5 -9.33301 217.5 -12c-40.667 -160.667 -68.667 -345.334 -84 -554.001c34.667 3.33301 71 5.33301 109 6
l-14 -41c-9.33301 -27.333 -18.666 -65.333 -27.999 -114s-14 -104.334 -14 -167.001v-10c-56.667 14.667 -116 22.334 -178 23.001c17.333 -2.66699 37.333 -8 60 -16s40 -16.333 52 -25v-28c0 -110.667 3.5 -208.667 10.5 -294s19.5 -166.333 37.5 -243
c-18.667 1.33301 -37 2 -55 2c-63.333 0 -120.833 -6.5 -172.5 -19.5s-92.834 -26.167 -123.501 -39.5z" />
    <glyph glyph-name="I" unicode="I" horiz-adv-x="797" 
d="M23 -30l-10 47.998c-6 31.333 -9 70 -9 116c0 77.333 13.333 145.333 40 204c32 -16.667 79.333 -25 142 -25c20.667 0 41 1 61 3c-33.333 2.66699 -60 6.33398 -80 11.001l-30 8l11 827l-95 -27c-28 28 -42 69 -42 123c0 34.667 6.66699 85 20 151
c10.667 46 16 85.667 16 119v7l7 -3c21.333 -10 57.333 -15 108 -15c40.667 0 100.334 4 179.001 12c64 6 115.333 10.667 154 14s73.667 5 105 5c38 0 78.667 -2.33301 122 -7l-22 -38c-14.667 -26 -30.334 -65.167 -47.001 -117.5s-29 -118.5 -37 -198.5
c-22 22.667 -68 34 -138 34c-44.667 0 -87.667 -3.66699 -129 -11h12c26.667 0 54.167 -1.83301 82.5 -5.5s46.833 -7.16699 55.5 -10.5c-30.667 -170 -46 -351.333 -46 -544c0 -101.333 5 -202.666 15 -303.999c35.333 4 71 7 107 9c21.333 0 32.333 0.333008 33 1
c-37.333 -82 -56 -168 -56 -258c0 -28 1.33301 -50.667 4 -68l4 -25c-38 24 -101 36 -189 36c-68.667 0 -137 -6.83301 -205 -20.5s-115.667 -30.5 -143 -50.5z" />
    <glyph glyph-name="J" unicode="J" horiz-adv-x="1140" 
d="M370 -44c-59.333 0 -115.499 13.0039 -168.499 39.0039s-97.167 63.333 -132.5 112c-43.333 66 -65 139.333 -65 220c0 82 22.333 178 67 288c26 -34 57.167 -62.167 93.5 -84.5s72.333 -40 108 -53s65.5 -21.833 89.5 -26.5l37 -8
c-35.333 -59.333 -53 -105.333 -53 -138c0 -41.333 24.667 -68 74 -80c-12 8.66699 -23 18.167 -33 28.5s-15 18.166 -15 23.499l1 3c3.33301 -0.666992 7.33301 -1 12 -1c12 0 26 5.33301 42 16s31.333 31 46 61s26.667 73.667 36 131
c9.33301 61.333 14 128.666 14 201.999c0 170 -19.667 347.667 -59 533c-117.333 -32.667 -199 -65.667 -245 -99c-20.667 20.667 -31 54 -31 100c0 36.667 4 77 12 121c8 46 12 90.667 12 134c0 15.333 -1 30.333 -3 45l8 -2c6.66699 -0.666992 15 -3 25 -7
c19.333 -3.33301 38.666 -5 57.999 -5c31.333 0 63.333 3.16699 96 9.5s66.667 13.666 102 21.999s72 16.166 110 23.499c54 12 111.667 18 173 18c86 0 172 -15.333 258 -46c-42.667 -43.333 -75.167 -89.333 -97.5 -138s-37.166 -91 -44.499 -127l-12 -53
c-12.667 14.667 -32.167 26.167 -58.5 34.5s-54.166 13.166 -83.499 14.499c15.333 -4 33.666 -10.667 54.999 -20s37.666 -20.666 48.999 -33.999c2 -136 3 -226.667 3 -272c0 -211.333 -9.66699 -379 -29 -503c-18.667 -109.333 -50.167 -199 -94.5 -269
s-95.833 -122.333 -154.5 -157c-66.667 -37.333 -134 -56 -202 -56z" />
    <glyph glyph-name="K" unicode="K" horiz-adv-x="1228" 
d="M947 -18c-130 71.333 -242.666 160.831 -337.999 268.498s-167.666 218.167 -216.999 331.5l-53.5 -48.5l-44.5 -38.5l-18 -15c4 2 11.167 5.83301 21.5 11.5l35 19c13 7 23.5 12.167 31.5 15.5c9.33301 -223.333 15.333 -402.666 18 -537.999l-36 11
c-23.333 7.33301 -55 14.833 -95 22.5s-84 11.5 -132 11.5c-34 0 -69.333 -3 -106 -9c23.333 124.667 35 276 35 454c0 89.333 -2.16699 182 -6.5 278s-9.5 194.333 -15.5 295c-10.667 170.667 -18.334 345.667 -23.001 525l40 -11c27.333 -7.33301 68.5 -14.5 123.5 -21.5
s124.833 -10.5 209.5 -10.5h25c-32 -154.667 -48 -339.667 -48 -555v-25c134 160 250 362 348 606c48.667 -24 98.5 -41.833 149.5 -53.5s98.333 -19.167 142 -22.5s77.5 -5 101.5 -5l35 1c-56.667 -60 -107 -119.333 -151 -178l-128 -177c-44 -64 -91.833 -130 -143.5 -198
s-112.5 -139.333 -182.5 -214l32 21c26.667 18 44.667 29.667 54 35c54 -88 125.667 -165.333 215 -232s184 -118 284 -154c-23.333 -34 -47.333 -73.167 -72 -117.5s-45.834 -90.166 -63.501 -137.499s-26.5 -91.333 -26.5 -132v-13z" />
    <glyph glyph-name="L" unicode="L" horiz-adv-x="1144" 
d="M428 -55c-56.667 0 -106.672 10.998 -150.005 32.998c-88.667 45.333 -148 148.666 -178 309.999c-23.333 120 -35 273 -35 459c0 149.333 6.66699 298.333 20 447c-28.667 -7.33301 -47.667 -12.666 -57 -15.999c-16.667 27.333 -25 58.666 -25 93.999
c0 22.667 2.33301 46.5 7 71.5s10 50.333 16 76s11.167 51 15.5 76s6.5 48.833 6.5 71.5v8c44 -18.667 104.667 -28 182 -28c36.667 0 75.334 1.33301 116.001 4c44 2 89.667 3 137 3c64.667 0 131 -5.33301 199 -16l-20 -31c-14 -21.333 -30 -57.166 -48 -107.499
s-34.667 -119.166 -50 -206.499c-16 16 -38.5 27.833 -67.5 35.5s-59.833 11.834 -92.5 12.501c9.33301 -1.33301 20.666 -4.33301 33.999 -9s26 -9.5 38 -14.5s20.667 -9.16699 26 -12.5c-52.667 -242 -79 -463.667 -79 -665c0 -86 6.66699 -158.333 20 -217
c-4.66699 -2 -10.334 -3 -17.001 -3c-11.333 0 -23.666 3 -36.999 9s-22.666 14.667 -27.999 26c2.66699 -18.667 11.334 -32.667 26.001 -42s29.334 -14 44.001 -14c10 0 70.667 17.333 182 52c182.667 55.333 317.334 97.666 404.001 126.999h2c18 0 31.333 -8 40 -24
s14.334 -37 17.001 -63s4 -54.333 4 -85l-1 -104c0 -59.333 4.33301 -102.666 13 -129.999c-46 -8 -155.333 -30.667 -328 -68l-219 -47c-41.333 -8 -80.333 -12 -117 -12z" />
    <glyph glyph-name="M" unicode="M" horiz-adv-x="1460" 
d="M38 -6l-0.00195312 1c0 18 2.66699 57.667 8 119c20 240.667 30 455.334 30 644.001c0 287.333 -24.667 514 -74 680h26c78.667 0 148.5 6.16699 209.5 18.5s109.167 24.833 144.5 37.5l53 19c11.333 -37.333 46.333 -112 105 -224c64.667 -122 126 -249.333 184 -382
c-1.33301 10 -4.66602 26.667 -9.99902 50c-9.33301 42 -14 66.333 -14 73v2c74.667 191.333 165 373 271 545c16 -10 62.167 -19.167 138.5 -27.5s160.5 -12.5 252.5 -12.5h44c-27.333 -97.333 -49 -224.166 -65 -380.499s-24 -319.166 -24 -488.499
c0 -259.333 18.667 -477.333 56 -654l-73 15c-49.333 10.667 -106 16 -170 16c-54 0 -107.667 -7 -161 -21c4.66699 86 7 203.667 7 353l-1 248c-0.666992 101.333 -1 207.666 -1 318.999c0 2.66699 13.333 29.334 40 80.001c21.333 41.333 34 66.666 38 75.999
c-122.667 -166 -223 -323.667 -301 -473c-18 8 -38.333 12 -61 12c-10.667 0 -21 -0.333008 -31 -1s-19 -1 -27 -1c-16 0 -28.333 2.66699 -37 8l6 29c-23.333 49.333 -56.833 103.666 -100.5 162.999s-91.167 120.666 -142.5 183.999l18 -34
c35.333 -66 53 -100.333 53 -103c-2.66699 -156 -4 -299 -4 -429c0 -250 6 -390.667 18 -422c-36.667 5.33301 -72.667 8 -108 8c-52.667 0 -101.667 -4 -147 -12s-81.666 -15.667 -108.999 -23z" />
    <glyph glyph-name="N" unicode="N" horiz-adv-x="1319" 
d="M426 -24l-36.002 12c-24 8.66699 -58 17.167 -102 25.5s-95.333 12.5 -154 12.5c-42 0 -87.333 -3.33301 -136 -10c65.333 310.667 98 634.667 98 972c0 194.667 -13.667 371.334 -41 530.001l24 -2c16.667 -1.33301 39 -2 67 -2c102.667 0 204.334 12.667 305.001 38
l36 -48c24 -32.667 56 -81.5 96 -146.5s84.833 -146.667 134.5 -245s100.834 -213.5 153.501 -345.5c-5.33301 22.667 -14.666 59 -27.999 109l-19 72v137c0 119.333 0.666992 208.666 2 267.999c0.666992 51.333 1 110.333 1 177v47l46 -12
c31.333 -8 72.166 -16 122.499 -24s104.833 -12 163.5 -12c20.667 0 41.667 0.666992 63 2c-40.667 -223.333 -61 -444.333 -61 -663c0 -289.333 34.333 -548 103 -776l-26 1c-122 0 -255 -22.333 -399 -67l-4 184c-118 281.333 -241 526.333 -369 735
c-1.33301 2.66699 -5.83301 27.167 -13.5 73.5s-12.167 70.833 -13.5 73.5c-10.667 -428 -16 -741.333 -16 -940c0 -76 1 -134.667 3 -176z" />
    <glyph glyph-name="O" unicode="O" horiz-adv-x="1252" 
d="M625 328c25.333 0 51.1709 11.666 77.5039 34.999s51.166 59.666 74.499 108.999c25.333 56 44.166 115.5 56.499 178.5s18.5 125.167 18.5 186.5c0 106 -16.167 196.833 -48.5 272.5s-77.833 113.5 -136.5 113.5c-10 0 -20.667 -1.33301 -32 -4
c-37.333 -8 -74.833 -27 -112.5 -57s-69.167 -67.333 -94.5 -112c11.333 16.667 31.666 37.334 60.999 62.001s61.666 45.334 96.999 62.001c10 -20 17.5 -40.167 22.5 -60.5s8.5 -37.5 10.5 -51.5l2 -21c-60 -15.333 -103.333 -63 -130 -143c-22 -66.667 -33 -138 -33 -214
c0 -82 13 -159.667 39 -233c35.333 -82 78 -123 128 -123zM621.005 -40.001c-78.667 0 -154.331 21.998 -226.998 65.998s-135 107.667 -187 191c-44.667 74 -78 156.333 -100 247s-33 182.667 -33 276c0 120.667 17.333 231.667 52 333c-38.667 9.33301 -80 16 -124 20
c114 246 273.667 402.333 479 469c60.667 19.333 120 29 178 29c93.333 0 179.666 -25.167 258.999 -75.5s143.666 -125.833 192.999 -226.5c59.333 -125.333 89 -271.666 89 -438.999c0 -183.333 -35.667 -357.666 -107 -522.999
c-59.333 -125.333 -130.833 -217.833 -214.5 -277.5s-169.5 -89.5 -257.5 -89.5z" />
    <glyph glyph-name="P" unicode="P" horiz-adv-x="1140" 
d="M534 864c58 26.667 107.334 64.332 148.001 112.999c50 62 75 119.333 75 172c0 9.33301 -0.333008 14 -1 14c-12.667 38.667 -50.334 58 -113.001 58c-48.667 0 -99.5 -8 -152.5 -24s-91.167 -29 -114.5 -39c28 6.66699 56.667 12.167 86 16.5s52.333 6.5 69 6.5l11 -1
c-4 -97.333 -6.66699 -202.666 -8 -315.999zM192.001 -38.002c14 165.333 20.999 351.998 20.999 559.998c0 204.667 -5.66699 403.334 -17 596.001c-39.333 -6.66699 -73.666 -10 -102.999 -10c-26.667 0 -52.334 2 -77.001 6l-2 30c0 54.667 10.167 122.667 30.5 204
s45.833 145 76.5 191l1 -1c4.66699 -4 15.667 -6 33 -6c24.667 0 75.334 6 152.001 18c86 13.333 144 22 174 26c47.333 6.66699 94.333 10 141 10c44 0 87.333 -4 130 -12s83.667 -22 123 -42c66.667 -34 121.167 -84.5 163.5 -151.5s63.5 -144.833 63.5 -233.5
c0 -98 -28.667 -198.667 -86 -302c-54.667 -97.333 -130.5 -182.333 -227.5 -255s-215.167 -126.667 -354.5 -162c2 -0.666992 5.33301 -1 10 -1c9.33301 0 23 1.33301 41 4s35.333 6.33398 52 11.001c4 -187.333 12.667 -324 26 -410l-36 2
c-49.333 0 -99.833 -6 -151.5 -18s-95.167 -24 -130.5 -36z" />
    <glyph glyph-name="Q" unicode="Q" horiz-adv-x="1311" 
d="M999 -236c-15.333 6 -31.835 23.333 -49.502 52s-39.167 67.334 -64.5 116.001c-30.667 59.333 -71 132.333 -121 219c30.667 -80.667 46 -128 46 -142c0 -2 -0.333008 -3.33301 -1 -4c-79.333 -43.333 -160.666 -65 -243.999 -65c-80 0 -157.333 20.667 -232 62
s-139 104 -193 188c-46.667 75.333 -81.167 161.166 -103.5 257.499s-33.5 193.833 -33.5 292.5c0 132.667 18.333 255.667 55 369c32.667 97.333 78.167 182.333 136.5 255s126.833 129.667 205.5 171s163.334 62 254.001 62c88 0 169.167 -18 243.5 -54
s143.833 -84.333 208.5 -145l-212 -207c43.333 28 80.333 51 111 69c56.667 -70 99 -149.833 127 -239.5s42 -182.167 42 -277.5c0 -180 -42.667 -346.333 -128 -499c40 -62.667 73.833 -110.667 101.5 -144s53.5 -52 77.5 -56l-44 -31
c-28.667 -20.667 -60.667 -51.667 -96 -93s-64 -93.333 -86 -156zM567.998 287c28 0 55.3311 8.66602 81.998 25.999c-43.333 50.667 -75.666 76 -96.999 76c0 72.667 7.5 132.167 22.5 178.5s29.833 80.833 44.5 103.5l22 34c70 -27.333 145 -93.333 225 -198l-14 28
c-26.667 53.333 -40 83 -40 89l3 28c4 26.667 6 54.334 6 83.001c0 60 -7.33301 112 -22 156s-33.5 80.667 -56.5 110s-46.833 51 -71.5 65c7.33301 4.66699 18.333 7 33 7c23.333 0 49.333 -5.66699 78 -17c-37.333 26 -71 39 -101 39c-56.667 0 -97 -43 -121 -129l-138 47
c-39.333 -88.667 -59 -192 -59 -310c0 -102 15 -192.333 45 -271c20.667 -50.667 44.834 -87.5 72.501 -110.5s56.5 -34.5 86.5 -34.5z" />
    <glyph glyph-name="R" unicode="R" horiz-adv-x="1223" 
d="M859 -110c-75.333 96.667 -131.334 188.333 -168.001 275s-64.667 165.334 -84 236.001l-24 76c-41.333 -16 -84.666 -30 -129.999 -42h4c7.33301 0 19.666 1.33301 36.999 4s31.333 5.33398 42 8.00098c4 -190.667 13 -328.667 27 -414l-39 2
c-49.333 0 -99.666 -6 -150.999 -18s-94.666 -23.667 -129.999 -35l-52 -18c14.667 175.333 22 372.666 22 591.999c0 194.667 -5 382.667 -15 564c-37.333 -6.66699 -70.333 -10 -99 -10s-55.667 2.33301 -81 7c-0.666992 8.66699 -1 18.667 -1 30
c0 54 10.167 121.833 30.5 203.5s45.833 145.5 76.5 191.5l1 -1c4.66699 -4 16 -6 34 -6c25.333 0 75.666 5.66699 150.999 17l170 26c47.333 6 94.333 9 141 9c44.667 0 88.667 -4.16699 132 -12.5s85 -22.5 125 -42.5c66.667 -34 121 -84.333 163 -151
s63 -144.334 63 -233.001c0 -97.333 -30.167 -199.833 -90.5 -307.5s-150.166 -201.5 -269.499 -281.5c20 4.66699 38.167 11 54.5 19s26.833 13.667 31.5 17l57 -99c34 -64.667 71.167 -126 111.5 -184s88.833 -105.333 145.5 -142c-59.333 -30 -110.333 -66.667 -153 -110
s-75.334 -82.333 -98.001 -117zM534.999 865.999c58.667 26 108 63.3301 148 111.997c22 26.667 38.5 51.334 49.5 74.001s18.167 42.334 21.5 59.001s5 29.667 5 39s-0.333008 14 -1 14c-4.66699 17.333 -13 31.833 -25 43.5s-35 17.5 -69 17.5
c-52.667 0 -144 -18.667 -274 -56c50.667 8.66699 102 13 154 13c-4 -97.333 -7 -202.666 -9 -315.999z" />
    <glyph glyph-name="S" unicode="S" horiz-adv-x="1036" 
d="M138 -14l5.00391 31.0029c2.66699 20 4 46 4 78c0 118.667 -31 213.667 -93 285c96.667 21.333 179 32 247 32c54 0 99.833 -3.83301 137.5 -11.5s69 -15.334 94 -23.001s45.5 -12.167 61.5 -13.5c26.667 0 40 16.333 40 49l-1 13c0 -4 -1.5 -9.33301 -4.5 -16
s-7.16699 -13 -12.5 -19s-11.666 -9 -18.999 -9c-4.66699 0 -9.33398 1.33301 -14.001 4c-2.66699 14 -12.334 30.333 -29.001 49l-2 3c-28.667 34.667 -60.667 64.5 -96 89.5s-72 48.833 -110 71.5c-60.667 34 -119 75.333 -175 124
c-56.667 54 -98.834 111.667 -126.501 173s-41.5 123.333 -41.5 186c0 103.333 36.333 202.333 109 297c28.667 40 60.834 76.167 96.501 108.5s74.167 58.333 115.5 78s84.333 29.5 129 29.5c62 0 124.333 -21 187 -63c31.333 -21.333 62 -44 92 -68
c36.667 -30 73.667 -56.5 111 -79.5s75.666 -36.833 114.999 -41.5c-17.333 -19.333 -30.333 -42.333 -39 -69s-16 -55.334 -22 -86.001c-7.33301 -44 -19.833 -87.333 -37.5 -130s-49.5 -79.334 -95.5 -110.001c-68 38.667 -123.333 74.167 -166 106.5
s-76.667 59.833 -102 82.5c-20 18 -36.833 32 -50.5 42s-26.834 15 -39.501 15c-14.667 0 -30.667 -8.66699 -48 -26c15.333 7.33301 28 11 38 11c6 0 10.667 -1 14 -3s5 -4 5 -6l-1 -3c-30.667 -35.333 -46 -67.333 -46 -96c0 -32 16 -62.667 48 -92
c29.333 -28 70 -57.667 122 -89c44 -26.667 90.667 -58.5 140 -95.5s96.666 -82.167 141.999 -135.5c77.333 -97.333 116 -193.333 116 -288c0 -84.667 -28.333 -166 -85 -244c-27.333 -36 -55.5 -64 -84.5 -84s-58.667 -33.667 -89 -41s-61.5 -11 -93.5 -11
c-43.333 0 -88.5 3.83301 -135.5 11.5s-95.833 11.5 -146.5 11.5c-59.333 0 -114 -9.33301 -164 -28z" />
    <glyph glyph-name="T" unicode="T" horiz-adv-x="1153" 
d="M359 -46c0.666992 22.667 1.1709 102.5 1.50391 239.5s0.666016 295.333 0.999023 475s0.5 336.834 0.5 471.501c-73.333 -8.66699 -130.666 -15.167 -171.999 -19.5s-72 -7.16602 -92 -8.49902s-35.333 -2 -46 -2l-33 1c-11.333 23.333 -17 53 -17 89
c0 46 5.83301 96.167 17.5 150.5s23.5 100.833 35.5 139.5l18 58c85.333 -31.333 181.666 -47 288.999 -47c47.333 0 96.5 2.16699 147.5 6.5s105.167 9.5 162.5 15.5c40 4.66699 82 9 126 13c129.333 8.66699 212.666 13 249.999 13h7c14 0 25.333 0.333008 34 1l-15 -40
c-10 -27.333 -20.167 -64.833 -30.5 -112.5s-15.5 -101.834 -15.5 -162.501c0 -28 1.66699 -57.333 5 -88c-58.667 22.667 -140.667 34 -246 34c-62.667 0 -124.667 -3.33301 -186 -10c40 -2.66699 78.333 -7.33398 115 -14.001c-20 -163.333 -30 -335.333 -30 -516
c0 -116 4.16699 -227.5 12.5 -334.5s20.833 -199.5 37.5 -277.5c-18.667 2 -37.334 3 -56.001 3c-56.667 0 -109.334 -6.5 -158.001 -19.5s-88 -25.833 -118 -38.5z" />
    <glyph glyph-name="U" unicode="U" horiz-adv-x="1129" 
d="M659 -30l-0.000976562 5.99707c0 13.333 -0.666992 34.333 -2 63s-2 50.334 -2 65.001v7c8.66699 7.33301 21.834 21.333 39.501 42s31.5 41 41.5 61c-48.667 -58 -99.667 -100.167 -153 -126.5s-106.666 -39.5 -159.999 -39.5c-64.667 0 -125.334 17.833 -182.001 53.5
s-103.334 85.834 -140.001 150.501c-37.333 68.667 -62.333 145.334 -75 230.001s-19 176.334 -19 275.001c1.33301 78.667 3 145 5 199c2.66699 64 4 155.333 4 274c0 93.333 -3.66699 190 -11 290l45 -11c30 -7.33301 70 -11 120 -11c85.333 0 170 16.333 254 49
c-4.66699 -172 -14 -337.333 -28 -496c-6.66699 -81.333 -12.5 -160.5 -17.5 -237.5s-7.5 -151.833 -7.5 -224.5l1 -63c0.666992 -37.333 4.83398 -73.5 12.501 -108.5s20.167 -64.333 37.5 -88s42.333 -35.5 75 -35.5c7.33301 0 15 0.666992 23 2h-5
c-18 0 -32.167 3.66699 -42.5 11s-16.5 13 -18.5 17l15 -2c22 0 45.5 9 70.5 27s48.5 38.833 70.5 62.5s39.667 44.5 53 62.5v60c0 223.333 -3.16699 436.666 -9.5 639.999s-10.5 327.666 -12.5 372.999v9l41 -13c27.333 -8.66699 67.333 -17.167 120 -25.5
s116.667 -12.5 192 -12.5c26.667 0 54.667 0.666992 84 2c-62.667 -268.667 -94 -546.667 -94 -834c0 -198 16.333 -401.333 49 -610l-56 -5c-37.333 -3.33301 -84.333 -11.666 -141 -24.999s-115.667 -34.333 -177 -63z" />
    <glyph glyph-name="V" unicode="V" horiz-adv-x="1272" 
d="M838 2c-53.333 12 -116.001 17.998 -188.001 17.998c-59.333 0 -134 -4.33301 -224 -13c2 10.667 3 25.334 3 44.001c0 71.333 -15.333 188.5 -46 351.5s-77.667 339.167 -141 528.5s-143.333 365 -240 527c63.333 0 120.5 6.83301 171.5 20.5s94.667 29.334 131 47.001
s64.5 33.167 84.5 46.5l29 21l13 -41c58 -164 153 -505 285 -1023l3 -8c0 6.66699 -3.83301 37.667 -11.5 93s-11.5 86.333 -11.5 93c75.333 260.667 116 553.334 122 878.001c84.667 -23.333 195 -35 331 -35c44.667 0 69.334 0.333008 74.001 1l-55 -278
c-56.667 -294.667 -107 -532.834 -151 -714.501s-103.667 -367.167 -179 -556.5z" />
    <glyph glyph-name="W" unicode="W" horiz-adv-x="1605" 
d="M269 -3c-10.667 224.667 -42.8359 482.83 -96.5029 774.497s-111.167 521.834 -172.5 690.501c72 2 140.667 9.66699 206 23s119.333 27 162 41l64 20c5.33301 -94.667 18.166 -218.5 38.499 -371.5s44.5 -311.167 72.5 -474.5
c-2.66699 -43.333 -17 -99.666 -43 -168.999l-8 -22c24.667 43.333 59.834 124.5 105.501 243.5s77.834 234.833 96.501 347.5c28.667 -8 55.334 -12 80.001 -12c23.333 0 43.833 2.33301 61.5 7s31.167 9.33398 40.5 14.001l15 7c2.66699 -24 4 -49 4 -75
c0 -30.667 -1.66699 -63 -5 -97c52.667 -137.333 112.667 -283.333 180 -438c-4.66699 18 -11.667 42.667 -21 74c-15.333 55.333 -23.333 85.333 -24 90c30 156 57.333 311.833 82 467.5s38.334 291.5 41.001 407.5c112.667 -40.667 216.667 -61 312 -61
c29.333 0 51.666 1.33301 66.999 4l24 4l-95 -403c-79.333 -354 -119 -635 -119 -843c0 -83.333 7.33301 -156.333 22 -219c-9.33301 4 -40.166 11.5 -92.499 22.5s-112.833 16.5 -181.5 16.5c-48.667 0 -98 -5.33301 -148 -16v-1c-37.333 109.333 -78 244.666 -122 405.999
v5l5 110v5c-27.333 -107.333 -55.333 -209.666 -84 -306.999c-23.333 -80 -43 -151.667 -59 -215c-24 2.66699 -47.667 4 -71 4c-58 0 -112.667 -5 -164 -15s-93 -20 -125 -30z" />
    <glyph glyph-name="X" unicode="X" horiz-adv-x="1327" 
d="M377 -79l-45.002 48.998c-30 32.667 -70.667 66.667 -122 102s-109 59.333 -173 72c32.667 41.333 61.667 80.666 87 117.999c76 114 140.833 219.5 194.5 316.5s101.5 187.5 143.5 271.5c-5.33301 -7.33301 -13.833 -18.333 -25.5 -33s-23.167 -28.334 -34.5 -41.001
s-18.333 -19 -21 -19h-1c-104 176 -187.667 325.333 -251 448c-55.333 106.667 -98.666 183 -129.999 229c94.667 20.667 172 43.834 232 69.501s104 48.167 132 67.5l43 29c44 -167.333 105.667 -335 185 -503c95.333 174.667 214.666 350.334 357.999 527.001
c14 -44 37 -85 69 -123s66.167 -71.667 102.5 -101s67.5 -52.333 93.5 -69l40 -25c-114 -84.667 -212.833 -184.5 -296.5 -299.5s-160.834 -241.833 -231.501 -380.5c8.66699 11.333 19 24 31 38l32.5 37c9.66699 10.667 15.834 16 18.501 16h1
c124.667 -186 269.334 -347 434.001 -483c-40.667 -24.667 -71.667 -52.167 -93 -82.5s-39.166 -60.666 -53.499 -90.999s-31 -56.833 -50 -79.5s-47.167 -36.667 -84.5 -42c-131.333 156.667 -248 309.334 -350 458.001l-35 -73z" />
    <glyph glyph-name="Y" unicode="Y" horiz-adv-x="1188" 
d="M294 -47c-54.667 0 -111.669 4.00195 -171.002 12.002c-8 6 -12 15.667 -12 29c0 14.667 3.83301 33 11.5 55s16.834 46 27.501 72c15.333 36.667 29.666 75.167 42.999 115.5s20 79.166 20 116.499v9c60 -19.333 115.333 -29 166 -29c151.333 0 259.333 87.333 324 262
c36.667 42.667 64.334 93.667 83.001 153l-6 -14c-42.667 -82.667 -96.167 -144.834 -160.5 -186.501s-130.166 -62.5 -197.499 -62.5c-54 0 -106.333 15 -157 45s-94.667 76.667 -132 140c-42 75.333 -74 168.166 -96 278.499s-33 222.166 -33 335.499
c0 108.667 10.667 210.667 32 306c34 -20.667 66.333 -34 97 -40s60 -9 88 -9l62 1c24.667 0 48.834 -2.5 72.501 -7.5s46.834 -16.5 69.501 -34.5c-10.667 -40 -20.167 -95.5 -28.5 -166.5s-12.5 -144.5 -12.5 -220.5c0 -59.333 3.66699 -115.166 11 -167.499
s20 -94.5 38 -126.5c9.33301 -16 22.166 -27.667 38.499 -35s33.166 -11 50.499 -11c8 0 15.667 0.666992 23 2c-4.66699 0 -11.834 1.33301 -21.501 4s-18.5 6 -26.5 10s-13.333 8.33301 -16 13c38.667 8 73.167 29.333 103.5 64s56.166 74.334 77.499 119.001
c46.667 100.667 70 214.667 70 342c0 99.333 -12.333 178.333 -37 237c63.333 -21.333 126.333 -32 189 -32c37.333 0 69.833 2.83301 97.5 8.5s48.834 11.167 63.501 16.5l23 8v-4c10.667 -70 21.5 -151.667 32.5 -245s16.5 -192.333 16.5 -297l-2 -83
c-8.66699 -230 -58 -428 -148 -594c-77.333 -136.667 -172.666 -235.667 -285.999 -297s-242.333 -92 -387 -92z" />
    <glyph glyph-name="Z" unicode="Z" horiz-adv-x="1180" 
d="M174 -29l-8.00098 44c-5.33301 28.667 -19.666 70.167 -42.999 124.5s-60.666 119.5 -111.999 195.5l-9 8c100 91.333 212.5 209 337.5 353s236.833 291.667 335.5 443c2 1.33301 24.833 6.83301 68.5 16.5s66.5 15.5 68.5 17.5c-356 -11.333 -608 -33 -756 -65l13 53
c8.66699 35.333 13 85.666 13 150.999s-8.66699 144 -26 236c133.333 -25.333 280.333 -38 441 -38c108 0 211.5 5.83301 310.5 17.5s179.833 29.167 242.5 52.5v-12c0 -116 23.333 -245.667 70 -389h-10l-174 -209l-532 -647l19 16c58 49.333 88.667 74 92 74
c111.333 5.33301 214 8 308 8c124 0 219 -2.66699 285 -8c-34.667 -54.667 -60 -111.167 -76 -169.5s-26 -110.666 -30 -156.999s-6 -76.5 -6 -90.5v-8c-54.667 28 -117.334 48.5 -188.001 61.5s-142 19.5 -214 19.5c-87.333 0 -168.833 -8.5 -244.5 -25.5
s-134.167 -41.167 -175.5 -72.5z" />
    <glyph glyph-name="bracketleft" unicode="[" 
d="M982 0h-912v1587h912v-1587zM927 55v1477h-802v-1477h802zM488 503l-35.001 0.000976562c-26 71.333 -39 125.666 -39 162.999c0 56.667 30.167 137.334 90.5 242.001s90.5 184.667 90.5 240c0 41.333 -12.167 74.333 -36.5 99s-58.166 37 -101.499 37
c-26.667 0 -50.334 -5.33301 -71.001 -16s-43 -26.334 -67 -47.001v50c32.667 29.333 64.334 50.166 95.001 62.499s61.667 18.5 93 18.5c66 0 120.167 -17.167 162.5 -51.5s63.5 -81.833 63.5 -142.5c0 -37.333 -9.16699 -75 -27.5 -113s-49.833 -84.333 -94.5 -139
c-46.667 -59.333 -83.167 -108.166 -109.5 -146.499s-39.5 -74.833 -39.5 -109.5c0 -28 8.66699 -77 26 -147zM474.999 236.001c-8 0 -15.333 3.66699 -22 11l-68 78c-4.66699 6.66699 -7 13.334 -7 20.001c0 7.33301 4 15.666 12 24.999l63 64c8 7.33301 15.333 11 22 11
c7.33301 0 15.333 -4 24 -12l62 -67c6.66699 -8 10 -15.333 10 -22c0 -8 -3.66699 -16 -11 -24l-62 -69c-10 -10 -17.667 -15 -23 -15z" />
    <glyph glyph-name="backslash" unicode="\" 
d="M982 0h-912v1587h912v-1587zM927 55v1477h-802v-1477h802zM488 503l-35.001 0.000976562c-26 71.333 -39 125.666 -39 162.999c0 56.667 30.167 137.334 90.5 242.001s90.5 184.667 90.5 240c0 41.333 -12.167 74.333 -36.5 99s-58.166 37 -101.499 37
c-26.667 0 -50.334 -5.33301 -71.001 -16s-43 -26.334 -67 -47.001v50c32.667 29.333 64.334 50.166 95.001 62.499s61.667 18.5 93 18.5c66 0 120.167 -17.167 162.5 -51.5s63.5 -81.833 63.5 -142.5c0 -37.333 -9.16699 -75 -27.5 -113s-49.833 -84.333 -94.5 -139
c-46.667 -59.333 -83.167 -108.166 -109.5 -146.499s-39.5 -74.833 -39.5 -109.5c0 -28 8.66699 -77 26 -147zM474.999 236.001c-8 0 -15.333 3.66699 -22 11l-68 78c-4.66699 6.66699 -7 13.334 -7 20.001c0 7.33301 4 15.666 12 24.999l63 64c8 7.33301 15.333 11 22 11
c7.33301 0 15.333 -4 24 -12l62 -67c6.66699 -8 10 -15.333 10 -22c0 -8 -3.66699 -16 -11 -24l-62 -69c-10 -10 -17.667 -15 -23 -15z" />
    <glyph glyph-name="bracketright" unicode="]" 
d="M982 0h-912v1587h912v-1587zM927 55v1477h-802v-1477h802zM488 503l-35.001 0.000976562c-26 71.333 -39 125.666 -39 162.999c0 56.667 30.167 137.334 90.5 242.001s90.5 184.667 90.5 240c0 41.333 -12.167 74.333 -36.5 99s-58.166 37 -101.499 37
c-26.667 0 -50.334 -5.33301 -71.001 -16s-43 -26.334 -67 -47.001v50c32.667 29.333 64.334 50.166 95.001 62.499s61.667 18.5 93 18.5c66 0 120.167 -17.167 162.5 -51.5s63.5 -81.833 63.5 -142.5c0 -37.333 -9.16699 -75 -27.5 -113s-49.833 -84.333 -94.5 -139
c-46.667 -59.333 -83.167 -108.166 -109.5 -146.499s-39.5 -74.833 -39.5 -109.5c0 -28 8.66699 -77 26 -147zM474.999 236.001c-8 0 -15.333 3.66699 -22 11l-68 78c-4.66699 6.66699 -7 13.334 -7 20.001c0 7.33301 4 15.666 12 24.999l63 64c8 7.33301 15.333 11 22 11
c7.33301 0 15.333 -4 24 -12l62 -67c6.66699 -8 10 -15.333 10 -22c0 -8 -3.66699 -16 -11 -24l-62 -69c-10 -10 -17.667 -15 -23 -15z" />
    <glyph glyph-name="asciicircum" unicode="^" 
d="M982 0h-912v1587h912v-1587zM927 55v1477h-802v-1477h802zM488 503l-35.001 0.000976562c-26 71.333 -39 125.666 -39 162.999c0 56.667 30.167 137.334 90.5 242.001s90.5 184.667 90.5 240c0 41.333 -12.167 74.333 -36.5 99s-58.166 37 -101.499 37
c-26.667 0 -50.334 -5.33301 -71.001 -16s-43 -26.334 -67 -47.001v50c32.667 29.333 64.334 50.166 95.001 62.499s61.667 18.5 93 18.5c66 0 120.167 -17.167 162.5 -51.5s63.5 -81.833 63.5 -142.5c0 -37.333 -9.16699 -75 -27.5 -113s-49.833 -84.333 -94.5 -139
c-46.667 -59.333 -83.167 -108.166 -109.5 -146.499s-39.5 -74.833 -39.5 -109.5c0 -28 8.66699 -77 26 -147zM474.999 236.001c-8 0 -15.333 3.66699 -22 11l-68 78c-4.66699 6.66699 -7 13.334 -7 20.001c0 7.33301 4 15.666 12 24.999l63 64c8 7.33301 15.333 11 22 11
c7.33301 0 15.333 -4 24 -12l62 -67c6.66699 -8 10 -15.333 10 -22c0 -8 -3.66699 -16 -11 -24l-62 -69c-10 -10 -17.667 -15 -23 -15z" />
    <glyph glyph-name="underscore" unicode="_" 
d="M982 0h-912v1587h912v-1587zM927 55v1477h-802v-1477h802zM488 503l-35.001 0.000976562c-26 71.333 -39 125.666 -39 162.999c0 56.667 30.167 137.334 90.5 242.001s90.5 184.667 90.5 240c0 41.333 -12.167 74.333 -36.5 99s-58.166 37 -101.499 37
c-26.667 0 -50.334 -5.33301 -71.001 -16s-43 -26.334 -67 -47.001v50c32.667 29.333 64.334 50.166 95.001 62.499s61.667 18.5 93 18.5c66 0 120.167 -17.167 162.5 -51.5s63.5 -81.833 63.5 -142.5c0 -37.333 -9.16699 -75 -27.5 -113s-49.833 -84.333 -94.5 -139
c-46.667 -59.333 -83.167 -108.166 -109.5 -146.499s-39.5 -74.833 -39.5 -109.5c0 -28 8.66699 -77 26 -147zM474.999 236.001c-8 0 -15.333 3.66699 -22 11l-68 78c-4.66699 6.66699 -7 13.334 -7 20.001c0 7.33301 4 15.666 12 24.999l63 64c8 7.33301 15.333 11 22 11
c7.33301 0 15.333 -4 24 -12l62 -67c6.66699 -8 10 -15.333 10 -22c0 -8 -3.66699 -16 -11 -24l-62 -69c-10 -10 -17.667 -15 -23 -15z" />
    <glyph glyph-name="grave" unicode="`" 
d="M982 0h-912v1587h912v-1587zM927 55v1477h-802v-1477h802zM488 503l-35.001 0.000976562c-26 71.333 -39 125.666 -39 162.999c0 56.667 30.167 137.334 90.5 242.001s90.5 184.667 90.5 240c0 41.333 -12.167 74.333 -36.5 99s-58.166 37 -101.499 37
c-26.667 0 -50.334 -5.33301 -71.001 -16s-43 -26.334 -67 -47.001v50c32.667 29.333 64.334 50.166 95.001 62.499s61.667 18.5 93 18.5c66 0 120.167 -17.167 162.5 -51.5s63.5 -81.833 63.5 -142.5c0 -37.333 -9.16699 -75 -27.5 -113s-49.833 -84.333 -94.5 -139
c-46.667 -59.333 -83.167 -108.166 -109.5 -146.499s-39.5 -74.833 -39.5 -109.5c0 -28 8.66699 -77 26 -147zM474.999 236.001c-8 0 -15.333 3.66699 -22 11l-68 78c-4.66699 6.66699 -7 13.334 -7 20.001c0 7.33301 4 15.666 12 24.999l63 64c8 7.33301 15.333 11 22 11
c7.33301 0 15.333 -4 24 -12l62 -67c6.66699 -8 10 -15.333 10 -22c0 -8 -3.66699 -16 -11 -24l-62 -69c-10 -10 -17.667 -15 -23 -15z" />
    <glyph glyph-name="a" unicode="a" horiz-adv-x="1263" 
d="M565 766c53.333 12 107.334 25.001 162.001 39.001c2.66699 101.333 4 160.666 4 177.999c0 42 -2 78 -6 108c-2.66699 21.333 -6.33398 36.833 -11.001 46.5s-13 14.5 -25 14.5c-12.667 0 -30.667 -4.33301 -54 -13c-30.667 -10.667 -63.667 -24.334 -99 -41.001
c12.667 2.66699 26 5.33398 40 8.00098s26.333 5.16699 37 7.5s18 3.5 22 3.5l2 -1zM875.001 -45.999c-72 128 -119.336 281.336 -142.003 460.003c-4.66699 48 -7.33398 96.333 -8.00098 145l-27 -7c-109.333 -29.333 -227.666 -52 -354.999 -68c10 -2 22 -3 36 -3
c36 0 75 4 117 12l-29 -88l-69 -210l-82 -233l-35 34c-22.667 22.667 -57.167 46.167 -103.5 70.5s-104.166 41.166 -173.499 50.499c67.333 108 124.666 228 171.999 360c-18 0 -36.333 0.666992 -55 2l-5 12c-10.667 23.333 -16 50.666 -16 81.999
c0 62 25.333 121.667 76 179c24 -8 48.667 -13.333 74 -16c18.667 86 31 171.667 37 257l-71 -26l-18 26c-12 17.333 -25.667 40.5 -41 69.5s-29.166 61.5 -41.499 97.5s-18.5 72.333 -18.5 109c0 34.667 8 68.334 24 101.001c54 5.33301 104.167 14.166 150.5 26.499
s91.333 25.833 135 40.5s88.5 27.834 134.5 39.501s89.667 17.5 131 17.5c102 0 186.833 -31.333 254.5 -94s108.834 -151.667 123.501 -267c4 -38.667 6 -79.334 6 -122.001c0 -43.333 -1 -88.333 -3 -135c36 5.33301 71 8.66602 105 9.99902c-14 -52 -21 -99 -21 -141
c0 -40 3.33301 -73 10 -99l9 -39c-29.333 3.33301 -58.333 5 -87 5c-48 0 -95.667 -3.66699 -143 -11h21c56.667 0 92.334 -3 107.001 -9c4.66699 -70 18.667 -143.167 42 -219.5s56.333 -145.5 99 -207.5c-62 -14 -117 -37.5 -165 -70.5s-85.667 -64.833 -113 -95.5z" />
    <glyph glyph-name="b" unicode="b" horiz-adv-x="1068" 
d="M591 370c54 0 91.001 12.999 111.001 38.999c14.667 18 22 38.667 22 62c0 24.667 -7.5 49.334 -22.5 74.001s-36.5 44.667 -64.5 60c-62.667 31.333 -146.334 47 -251.001 47l-67 -2c52 -4 88.667 -10 110 -18c-1.33301 -89.333 -4 -170 -8 -242
c64 -13.333 120.667 -20 170 -20zM525.001 3.99902c-64 0 -129.832 3.99805 -197.499 11.998s-136.5 12 -206.5 12c-18.667 0 -37 -0.333008 -55 -1c10 72.667 15 137.334 15 194.001c0 68 -3.66699 121.667 -11 161l-12 59c20 0 40.667 -1 62 -3
c13.333 98.667 20 198.667 20 300c0 114.667 -9.66699 227 -29 337c-30.667 0 -62.334 3.33301 -95.001 10c18.667 75.333 28 150 28 224c0 46.667 -2.66699 83.334 -8 110.001l-7 41c34 -7.33301 68.333 -11 103 -11c41.333 0 100.333 5.5 177 16.5s136.667 16.5 180 16.5
s86 -5.33301 128 -16c89.333 -26.667 154.833 -71.667 196.5 -135s62.5 -132.333 62.5 -207c0 -48.667 -8.5 -96.667 -25.5 -144s-41.833 -90.333 -74.5 -129c-22 -26 -46.333 -48.667 -73 -68c28.667 12.667 52 28 70 46c92 -38.667 160 -100 204 -184
c35.333 -66.667 53 -136 53 -208c0 -68 -16 -133.5 -48 -196.5s-80.333 -115.5 -145 -157.5c-49.333 -30 -100 -50.667 -152 -62s-105.333 -17 -160 -17zM435.002 871.997c65.333 28.667 114 70.002 146 124.002c4 7.33301 8.66699 19.166 14 35.499s8 33.166 8 50.499
c0 46.667 -24 70 -72 70c-46 -2.66699 -102 -14 -168 -34l-74 -19l60 10c37.333 8 64 12 80 12h5z" />
    <glyph glyph-name="c" unicode="c" horiz-adv-x="1150" 
d="M446 -21c-70 0 -142.329 22.0029 -216.996 66.0029c-59.333 41.333 -105.333 94.333 -138 159s-55.167 135.167 -67.5 211.5s-18.5 151.5 -18.5 225.5v30c4 146 20 271 48 375s64.833 188.667 110.5 254s97 113.166 154 143.499s116.167 45.5 177.5 45.5
c81.333 0 161.333 -24.333 240 -73l-26 -113c32 71.333 62.667 126.666 92 165.999l5 8l35 -30c23.333 -19.333 55.166 -42.5 95.499 -69.5s87.166 -52.5 140.499 -76.5l-52 -51c-34 -34 -75 -80.167 -123 -138.5s-94 -124.833 -138 -199.5l-164 84
c0 1.33301 -0.333008 2.33301 -1 3c-6 20 -14.333 39 -25 57c-26 42 -59.333 63 -100 63c-30 0 -65 -15 -105 -45c25.333 12.667 48.666 19 69.999 19h7c-24.667 -28.667 -44.834 -67.5 -60.501 -116.5s-26.834 -93.167 -33.501 -132.5
c-19.333 -100.667 -29 -187.667 -29 -261c0 -76.667 9.66699 -136.5 29 -179.5s47 -64.5 83 -64.5c60.667 0 135.334 61 224.001 183l35 -41c23.333 -27.333 56.833 -59.833 100.5 -97.5s96.5 -73.167 158.5 -106.5c-52.667 -54 -106.5 -103.333 -161.5 -148
s-111.167 -80.834 -168.5 -108.501s-116.333 -41.5 -177 -41.5z" />
    <glyph glyph-name="d" unicode="d" horiz-adv-x="1102" 
d="M158 -21l-8.00098 38.9961c-6 25.333 -15.167 57 -27.5 95s-28.333 76.333 -48 115s-43.5 72.334 -71.5 101.001c46 21.333 142.333 32 289 32c-9.33301 1.33301 -23 2.83301 -41 4.5s-35.5 3.16699 -52.5 4.5s-28.833 2.33301 -35.5 3c1.33301 54.667 2 111 2 169
c0 164.667 -7.66699 333 -23 505c-15.333 -1.33301 -30.666 -2 -45.999 -2c-24.667 0 -49.667 2 -75 6c-9.33301 30 -14 65 -14 105c0 52 5.83301 106 17.5 162s25.167 101.667 40.5 137l17 -4c22 -6.66699 48.667 -10 80 -10c27.333 0 77.666 3.66699 150.999 11
c56 7.33301 110 11 162 11c48 0 95.833 -6.16699 143.5 -18.5s96.834 -35.166 147.501 -68.499c102 -70.667 176.167 -159.667 222.5 -267s69.5 -221.666 69.5 -342.999c0 -117.333 -17.5 -221.666 -52.5 -312.999s-79.5 -168.666 -133.5 -231.999
c-104.667 -122 -228.667 -192 -372 -210c-60.667 -8 -117.334 -12 -170.001 -12h-12c-29.333 0 -56.666 -0.666992 -81.999 -2c-28 -2.66699 -49 -6.33398 -63 -11.001zM465.999 359.996c56.667 8 104.833 32.667 144.5 74s70.167 92.333 91.5 153s32 122.667 32 186
c0 54 -8.16699 105.5 -24.5 154.5s-41.833 90.5 -76.5 124.5c-42 40 -92 60 -150 60c-26.667 0 -54 -3 -82 -9c-34 -7.33301 -69.333 -16 -106 -26c74 11.333 129.333 17 166 17l19 -1c-12.667 -134 -19 -305.333 -19 -514c0 -73.333 1.33301 -146.333 4 -219h1z" />
    <glyph glyph-name="e" unicode="e" horiz-adv-x="985" 
d="M500 -12c-58 0 -116.667 12.999 -176 38.999c-75.333 35.333 -131.833 84.5 -169.5 147.5s-62.667 136 -75 219s-18.5 172.833 -18.5 269.5c0 124.667 7.33301 251.667 22 381l-40 -10l-10 42c-6.66699 28 -13.5 63 -20.5 105s-10.5 84 -10.5 126
c0 63.333 10.333 110.333 31 141c40 -13.333 105.333 -20 196 -20c54.667 0 106.334 1.66699 155.001 5c121.333 6.66699 213 10.834 275 12.501s135.667 2.5 221 2.5l-21 -46c-14 -30.667 -28 -73 -42 -127s-21 -116 -21 -186v-18c-66 28.667 -149.667 43 -251 43
c-46.667 0 -91.667 -2.66699 -135 -8c-39.333 -4.66699 -78.666 -10.667 -117.999 -18c36 2 76 3 120 3c26 0 43.333 -0.666992 52 -2c-18.667 -63.333 -34.334 -132.333 -47.001 -207c37.333 0.666992 75 1 113 1c54 0 106.333 -1 157 -3c-22 -34.667 -33 -91.667 -33 -171
c0 -30.667 1.66699 -64.667 5 -102c-55.333 25.333 -121 38 -197 38c-56 0 -112 -7.66699 -168 -23c20 2.66699 39.333 4 58 4s32.334 -1 41.001 -3v-19c0 -68.667 6 -135 18 -199c9.33301 -48.667 36 -73 80 -73c23.333 0 49.333 6 78 18s56.167 26 82.5 42
s49.166 31 68.499 45l4 -29c3.33301 -18.667 11 -44 23 -76s30.833 -67.667 56.5 -107s61.167 -79.333 106.5 -120l-48 -19c-62.667 -26 -123.834 -48.833 -183.501 -68.5s-119.167 -29.5 -178.5 -29.5z" />
    <glyph glyph-name="f" unicode="f" horiz-adv-x="992" 
d="M82 -11c8 106.667 12.002 386.666 12.002 839.999l-1 222l-57 -14l-8 37c-5.33301 24.667 -10.666 56.5 -15.999 95.5s-8 80.5 -8 124.5c0 54 7 106.333 21 157c38.667 -12 110.667 -18 216 -18c58 0 112 1.33301 162 4c136 7.33301 237.333 12 304 14
c63.333 2 135.666 3 216.999 3l-19 -45c-12 -30 -24.167 -72.667 -36.5 -128s-18.5 -120.666 -18.5 -195.999v-9c-32.667 15.333 -75 26.166 -127 32.499s-103.667 9.5 -155 9.5c-78.667 0 -170.334 -9 -275.001 -27c29.333 2 56 3 80 3c36 0 59.333 -1.33301 70 -4
c-6.66699 -66 -11.667 -135.333 -15 -208c135.333 4 231.666 6 288.999 6h58l-12 -34c-8 -22.667 -16.333 -54.5 -25 -95.5s-14.334 -89.167 -17.001 -144.5c-63.333 20 -129.333 30 -198 30c-69.333 0 -135 -12 -197 -36c17.333 4 35.5 7.16699 54.5 9.5
s32.833 3.5 41.5 3.5h3c5.33301 -302 24.333 -499.667 57 -593c-29.333 3.33301 -58.666 5 -87.999 5c-53.333 0 -103.833 -3.66699 -151.5 -11s-86.167 -14.666 -115.5 -21.999z" />
    <glyph glyph-name="g" unicode="g" horiz-adv-x="1081" 
d="M634 -28c8.66699 44 15.6689 90 21.002 138c-65.333 -68 -148.666 -104 -249.999 -108c-76.667 0 -148.334 29.333 -215.001 88c-45.333 42 -81.666 93.333 -108.999 154c-51.333 112.667 -77 249 -77 409c0 128 14.667 244 44 348c46 154.667 121 275.667 225 363
s211.333 131 322 131c72 0 140.333 -20.333 205 -61c45.333 -31.333 81.833 -70.833 109.5 -118.5s47.5 -98.5 59.5 -152.5s18 -105.667 18 -155c0 -28 -1.66699 -54.667 -5 -80c-84 -32 -170 -48 -258 -48c-48.667 0 -87.667 3.33301 -117 10l-44 10
c6.66699 34 10 63.667 10 89c0 40.667 -7.83301 70.167 -23.5 88.5s-36.5 27.5 -62.5 27.5c-32.667 0 -71.334 -12.667 -116.001 -38l13 4c30.667 8.66699 53 13 67 13c5.33301 0 10 -0.666992 14 -2c-12 -8 -23.667 -18 -35 -30
c-46.667 -52 -80.834 -117.833 -102.501 -197.5s-32.5 -157.834 -32.5 -234.501c0 -70 9.66699 -139.333 29 -208c24.667 -88 57.334 -132 98.001 -132c13.333 0 28 5.66699 44 17c34 24.667 65 69.667 93 135l-21 -1c-12 0 -23.333 1 -34 3l-3 26
c-2.66699 17.333 -4 39 -4 65c0 70.667 12.333 129 37 175c32 -12.667 69 -19 111 -19c49.333 0 102.666 4.5 159.999 13.5s111.666 13.5 162.999 13.5c16 0 31.333 -0.666992 46 -2c-25.333 -46 -38 -119 -38 -219v-25c-38.667 5.33301 -76.667 8 -114 8l-53 -2
c12.667 -1.33301 26.5 -3 41.5 -5s28.333 -4.16699 40 -6.5s19.167 -4.5 22.5 -6.5c-8 -69.333 -12 -140.666 -12 -213.999c0 -78 6 -151 18 -219h-11c-90.667 0 -182 -15 -274 -45z" />
    <glyph glyph-name="h" unicode="h" horiz-adv-x="1139" 
d="M634 -20l4 628.002c-58 -7.33301 -119.667 -16.333 -185 -27l-184 -27l111 2l29 -1c0.666992 -217.333 8.66699 -401.666 24 -552.999l-19 7c-12.667 5.33301 -31.834 10.333 -57.501 15s-57.834 7 -96.501 7c-56 0 -126 -9 -210 -27
c16.667 153.333 26.667 329.333 30 528c-18.667 -2 -38.667 -3.66699 -60 -5c-5.33301 7.33301 -9.5 24.166 -12.5 50.499s-4.5 56.5 -4.5 90.5c0 38.667 2.16699 76.667 6.5 114s11.166 64.333 20.499 81l51 -11c-1.33301 138 -5.16602 264 -11.499 378
s-14.833 194.667 -25.5 242c72.667 -12 140.334 -18 203.001 -18c60 0 110 2.66699 150 8l61 8c-22.667 -170.667 -37.667 -378 -45 -622c42.667 4 118.334 12.667 227.001 26l4 605l18 -6c11.333 -4 32 -8.83301 62 -14.5s71.833 -11 125.5 -16
s122.167 -8.83301 205.5 -11.5c-39.333 -152 -66 -326.333 -80 -523c33.333 2 67.333 3.66699 102 5l-13 -39c-8.66699 -25.333 -17.334 -60.833 -26.001 -106.5s-13 -97.834 -13 -156.501v-10c-53.333 14 -109 21.333 -167 22c16 -2.66699 34.667 -7.83398 56 -15.501
s37.666 -15.5 48.999 -23.5v-29c0 -103.333 3.33301 -195 10 -275s18.334 -156 35.001 -228c-18 1.33301 -36 2 -54 2c-59.333 0 -113.166 -6.16699 -161.499 -18.5s-86.833 -24.5 -115.5 -36.5z" />
    <glyph glyph-name="i" unicode="i" horiz-adv-x="751" 
d="M19 -23l-9.00195 45.9961c-6 31.333 -9 69.333 -9 114c0 73.333 12.333 137.333 37 192c31.333 -15.333 77 -23 137 -23c18.667 0 36.667 0.666992 54 2c-31.333 2.66699 -56.666 6.33398 -75.999 11.001l-28 7l11 778c-32.667 -8 -62.667 -16.333 -90 -25
c-26 26 -39 64.333 -39 115c0 32.667 6.33301 80.334 19 143.001c10 42.667 15 79.667 15 111v7l8 -3c20 -8.66699 53 -13 99 -13c36.667 0 96.667 4 180 12c114 11.333 191.667 17 233 17c36 0 74.333 -2.33301 115 -7l-21 -36c-14 -24 -28.667 -60.667 -44 -110
s-26.666 -111.666 -33.999 -186.999c-21.333 21.333 -65.333 32 -132 32c-42 0 -82 -3.33301 -120 -10h13c24.667 0 50.167 -1.66699 76.5 -5s43.5 -6.66602 51.5 -9.99902c-28.667 -160.667 -43 -331.667 -43 -513c0 -94.667 4.66699 -189.667 14 -285
c33.333 4 67 6.66699 101 8l31 2c-34.667 -77.333 -52 -159.333 -52 -246c0 -27.333 1 -49.333 3 -66l4 -25c-36 22.667 -95 34 -177 34c-65.333 0 -129.833 -6.5 -193.5 -19.5s-108.5 -28.833 -134.5 -47.5z" />
    <glyph glyph-name="j" unicode="j" horiz-adv-x="1050" 
d="M346 -35c-56 0 -108.833 12.334 -158.5 37.001s-91.167 60 -124.5 106c-41.333 61.333 -62 130 -62 206c0 78 21.333 168.333 64 271c24 -32 53.167 -58.5 87.5 -79.5s68.333 -37.333 102 -49s61.834 -20.167 84.501 -25.5l35 -7c-33.333 -56 -50 -99.333 -50 -130
c0 -39.333 23 -64.333 69 -75c-11.333 8 -21.5 16.667 -30.5 26s-13.5 16.666 -13.5 21.999l1 3l10 -1c11.333 0 24.5 5 39.5 15s29.5 29.167 43.5 57.5s25.333 69.5 34 123.5c8.66699 58 13 121.667 13 191c0 160 -18.333 327 -55 501
c-110.667 -30.667 -187.667 -61.667 -231 -93c-18.667 19.333 -28 50.666 -28 93.999c0 34 3.66699 72.333 11 115s11 84.334 11 125.001c0 14.667 -1 28.667 -3 42c6 -0.666992 16.333 -3.66699 31 -9c17.333 -2.66699 35 -4 53 -4c29.333 0 59.5 2.83301 90.5 8.5
s63.167 12.834 96.5 21.501c40 9.33301 82 18 126 26s90.667 12 140 12c81.333 0 162.666 -14.333 243.999 -43c-40 -40.667 -70.5 -83.834 -91.5 -129.501s-35.167 -85.167 -42.5 -118.5l-11 -50c-12 13.333 -30.5 23.833 -55.5 31.5s-50.833 12.167 -77.5 13.5
c14 -3.33301 31 -9.5 51 -18.5s35.333 -19.833 46 -32.5c2 -122 3 -206.667 3 -254c0 -198.667 -9 -357 -27 -475c-18 -106 -48.833 -192.5 -92.5 -259.5s-95 -116.167 -154 -147.5s-118.5 -47 -178.5 -47z" />
    <glyph glyph-name="k" unicode="k" horiz-adv-x="1159" 
d="M889 -17c-122.667 67.333 -228.83 151.5 -318.497 252.5s-157.834 204.833 -204.501 311.5l-50.5 -45c-16.333 -14.667 -30.166 -26.667 -41.499 -36l-17 -14l34 18c24.667 13.333 41 21.666 49 24.999c8 -157.333 13.667 -326 17 -506l-34 10
c-22.667 7.33301 -52.834 14.5 -90.501 21.5s-79.167 10.5 -124.5 10.5c-32 0 -64.667 -2.66699 -98 -8c22 117.333 33 259.333 33 426c0 122 -7 303.333 -21 544c-10 158.667 -17.333 322 -22 490l39 -10c26 -7.33301 65.333 -14.333 118 -21s119.667 -10 201 -10h17
c-30 -144 -45 -317 -45 -519v-26c133.333 164.667 242.333 354.667 327 570c45.333 -22 91.666 -38.5 138.999 -49.5s91.5 -18.167 132.5 -21.5s73.167 -5 96.5 -5l35 1c-53.333 -56.667 -100.833 -112.5 -142.5 -167.5s-81.834 -110.833 -120.501 -167.5
c-41.333 -60 -86.333 -122 -135 -186s-106 -131 -172 -201c9.33301 5.33301 22.666 13.833 39.999 25.5l42 27.5c50.667 -83.333 118 -156.333 202 -219s173 -111 267 -145c-22 -32 -44.667 -68.667 -68 -110s-43.166 -84.166 -59.499 -128.499s-24.5 -85.833 -24.5 -124.5
v-13z" />
    <glyph glyph-name="l" unicode="l" horiz-adv-x="1081" 
d="M403 -45c-53.333 0 -100.332 10.6602 -140.999 31.9932c-83.333 42.667 -139 139.667 -167 291c-22 114 -33 258.333 -33 433c0 140.667 6.33301 280.334 19 419.001c-26.667 -6.66699 -44.667 -11.667 -54 -15c-15.333 26 -23 55.667 -23 89
c0 30.667 7 76.834 21 138.501s21 107.834 21 138.501v8c41.333 -17.333 98 -26 170 -26c35.333 0 72 1 110 3c42 2.66699 85.333 4 130 4c60.667 0 123 -5.33301 187 -16l-19 -30c-12.667 -19.333 -27.667 -52.833 -45 -100.5s-33.333 -112.5 -48 -194.5
c-26.667 28.667 -76.667 44 -150 46c8.66699 -1.33301 19.334 -4.16602 32.001 -8.49902s24.667 -9 36 -14s19.333 -8.83301 24 -11.5c-49.333 -227.333 -74 -435.666 -74 -624.999c0 -81.333 6.33301 -149.666 19 -204.999c-4 -2 -9.33301 -3 -16 -3
c-10.667 0 -22.334 2.83301 -35.001 8.5s-21.334 13.834 -26.001 24.501c2.66699 -18 10.834 -31.167 24.501 -39.5s27.167 -12.5 40.5 -12.5c9.33301 0 66.666 16 171.999 48c173.333 53.333 300 93.333 380 120h2c17.333 0 30 -7.5 38 -22.5s13.333 -34.833 16 -59.5
s4 -51.667 4 -81l-1 -95c0 -56.667 4 -98 12 -124c-44.667 -7.33301 -150 -29 -316 -65l-199 -43c-39.333 -8 -76.333 -12 -111 -12z" />
    <glyph glyph-name="m" unicode="m" horiz-adv-x="1376" 
d="M35 -8l-0.000976562 0.99707c0 17.333 2.33301 54.666 7 111.999c19.333 226.667 29 428.334 29 605.001c0 270.667 -23.333 484 -70 640h22c74.667 0 141 5.83301 199 17.5s103.667 23.5 137 35.5l50 18c10 -35.333 43 -105.333 99 -210
c60.667 -114.667 118.334 -234.667 173.001 -360l-10 50c-8.66699 38.667 -13 60.667 -13 66c70.667 181.333 156 353 256 515c14.667 -9.33301 57.667 -18 129 -26s150.333 -12 237 -12h43c-26 -92 -46.5 -211.333 -61.5 -358s-22.5 -299.667 -22.5 -459
c0 -244 17.667 -449.333 53 -616l-70 15c-46 9.33301 -99.333 14 -160 14c-50 0 -100 -6.33301 -150 -19c4 76.667 6 180.334 6 311.001l-1 240c-0.666992 99.333 -1 204 -1 314c0 2.66699 13.333 29.334 40 80.001c18.667 36 30 58.333 34 67
c-116 -156.667 -210.667 -305 -284 -445c-16 7.33301 -34.333 11 -55 11c-10 0 -20.167 -0.333008 -30.5 -1s-19.5 -1 -27.5 -1c-14.667 0 -25.667 2.33301 -33 7l5 28c-22 46 -53.667 97 -95 153l-134 173l39 -73c18.667 -35.333 28 -53.666 28 -54.999
c-2 -144.667 -3 -277.334 -3 -398.001c0 -238.667 5.33301 -373 16 -403c-34 4.66699 -67.667 7 -101 7c-50 0 -96.167 -3.66699 -138.5 -11s-76.5 -14.666 -102.5 -21.999z" />
    <glyph glyph-name="n" unicode="n" horiz-adv-x="1245" 
d="M402 -25l-34.0068 11.998c-23.333 8 -55.666 15.833 -96.999 23.5s-89.666 11.5 -144.999 11.5c-39.333 0 -81.666 -3 -126.999 -9c61.333 292 92 596.333 92 913c0 184 -13 350.667 -39 500l23 -2c15.333 -1.33301 36.333 -2 63 -2c96.667 0 192.334 12 287.001 36
l58 -81c38.667 -54 87.834 -135.667 147.501 -245s122.834 -246.666 189.501 -411.999l-44 169v129c0 112.667 0.666992 197 2 253c0.666992 48.667 1 104.334 1 167.001v44l43 -11c28.667 -8 66.5 -15.667 113.5 -23s97.833 -11 152.5 -11
c20.667 0 41.334 0.666992 62.001 2c-38 -210.667 -57 -419 -57 -625c0 -272.667 32.333 -516 97 -730l-27 1c-114.667 0 -239 -21 -373 -63l-4 173c-112 268 -228 498.667 -348 692l-24 138c-10 -382.667 -15 -673.334 -15 -872.001c0 -77.333 1 -136.666 3 -177.999z" />
    <glyph glyph-name="o" unicode="o" horiz-adv-x="1172" 
d="M582 305c24 0 48.5029 11.168 73.5029 33.501s48.5 56.5 70.5 102.5c24 53.333 41.833 109.833 53.5 169.5s17.5 118.5 17.5 176.5c0 98 -15.333 182.667 -46 254s-73.334 107 -128.001 107c-9.33301 0 -19.333 -1 -30 -3c-34.667 -8 -69.834 -26 -105.501 -54
s-65.834 -63 -90.501 -105c10.667 16 30 35.5 58 58.5s58.333 42.167 91 57.5c9.33301 -18.667 16.333 -37.5 21 -56.5s8 -35.167 10 -48.5l2 -20c-50.667 -12.667 -89 -51.834 -115 -117.501s-39 -138.5 -39 -218.5c0 -77.333 12.333 -150.333 37 -219
c33.333 -78 73.333 -117 120 -117zM578.003 -39.999c-74 0 -145.001 20.6689 -213.001 62.002s-126.333 101 -175 179c-42 70 -73.5 147.667 -94.5 233s-31.5 172 -31.5 260c0 114 16.333 218.333 49 313c-36 9.33301 -74.667 15.666 -116 18.999
c107.333 231.333 257.333 378.333 450 441c57.333 18.667 113.333 28 168 28c87.333 0 168.333 -23.667 243 -71s135.334 -118.333 182.001 -213c56 -118 84 -256 84 -414c0 -172.667 -33.667 -336.334 -101 -491.001c-55.333 -118.667 -122.5 -206 -201.5 -262
s-160.167 -84 -243.5 -84z" />
    <glyph glyph-name="p" unicode="p" horiz-adv-x="1066" 
d="M161 -38c15.333 173.333 23.001 367.666 23.001 582.999c0 174.667 -4.33301 343 -13 505c-35.333 -6 -66.333 -9 -93 -9s-52 2.33301 -76 7c-0.666992 8 -1 17 -1 27c0 50.667 9.66699 114.5 29 191.5s43.666 137.167 72.999 180.5l1 -1c4 -4 14.667 -6 32 -6
c28.667 0 88.334 7.33301 179.001 22c41.333 6.66699 83.5 12.667 126.5 18s85.833 8 128.5 8c42 0 83.333 -3.83301 124 -11.5s80 -21.167 118 -40.5c62 -32 112.833 -79.333 152.5 -142s59.5 -135.667 59.5 -219c0 -93.333 -27.667 -188.666 -83 -285.999
c-52 -91.333 -123.833 -171 -215.5 -239s-202.834 -118.333 -333.501 -151l8 -1c8.66699 0 21.667 1.33301 39 4s33.666 6 48.999 10c4 -175.333 11.667 -304 23 -386l-36 2c-46.667 0 -94.167 -5.5 -142.5 -16.5s-89.166 -22.167 -122.499 -33.5zM487.001 810
c55.333 24.667 102 59.667 140 105c48 58.667 72 112.667 72 162c0 8.66699 -0.333008 13 -1 13c-12 36.667 -48 55 -108 55c-45.333 0 -92.833 -7.33301 -142.5 -22s-85.167 -26.667 -106.5 -36c26.667 6.66699 54 11.667 82 15s49.667 5 65 5h9
c-4.66699 -92 -8 -191 -10 -297z" />
    <glyph glyph-name="q" unicode="q" horiz-adv-x="1204" 
d="M939 -204c-14.667 5.33301 -30 20.9971 -46 46.9971s-35.333 61 -58 105c-26.667 52 -65.667 122.667 -117 212c28.667 -75.333 43 -119.666 43 -132.999c0 -2 -0.333008 -3.33301 -1 -4c-75.333 -41.333 -152 -62 -230 -62c-76 0 -149 19.5 -219 58.5
s-130.333 98.167 -181 177.5c-44 70.667 -76.333 151.167 -97 241.5s-31 181.833 -31 274.5c0 124.667 17.333 240.667 52 348c30.667 91.333 73.5 171.333 128.5 240s119.167 122.334 192.5 161.001s152.666 58 237.999 58c40 0 81 -4.66699 123 -14
c63.333 -15.333 119.333 -38 168 -68s94 -65 136 -105l-199 -194c46 30 80.333 51.333 103 64c55.333 -68 95.833 -143.667 121.5 -227s38.5 -169.333 38.5 -258c0 -133.333 -26.667 -262.666 -80 -387.999c-12 -29.333 -25.667 -57 -41 -83
c32.667 -50.667 63 -93.667 91 -129s54 -55 78 -59l-41 -29c-27.333 -19.333 -57.666 -48.5 -90.999 -87.5s-60.333 -87.833 -81 -146.5zM534 286.997c26 0 51.668 8.33008 77.001 24.9971c-40.667 47.333 -71 71 -91 71h-1c0 68.667 7 124.834 21 168.501
s28 76.167 42 97.5l21 32c65.333 -25.333 136 -87.333 212 -186l-15 30c-24 47.333 -36 74.333 -36 81c6 37.333 9 72.333 9 105c0 54 -6.83301 101.833 -20.5 143.5s-31.334 76.334 -53.001 104.001s-44.5 48.167 -68.5 61.5c7.33301 5.33301 18.333 8 33 8
c22 0 46 -5.33301 72 -16c-35.333 24 -67 36 -95 36c-53.333 0 -91.666 -40.333 -114.999 -121l-129 44c-36.667 -83.333 -55 -180.666 -55 -291.999c0 -96 13.667 -180.667 41 -254c19.333 -48 42.166 -83 68.499 -105s53.833 -33 82.5 -33z" />
    <glyph glyph-name="r" unicode="r" horiz-adv-x="1159" 
d="M812 -105c-71.333 90.667 -124.497 176.668 -159.497 258.001s-62.167 155.333 -81.5 222l-23 70c-38.667 -14.667 -79.334 -28 -122.001 -40h4c7.33301 0 19 1.16699 35 3.5s29 5.16602 39 8.49902c5.33301 -179.333 14.666 -309 27.999 -389
c-10 0.666992 -20.333 1 -31 1c-46.667 0 -94.5 -5.66699 -143.5 -17s-90.5 -23 -124.5 -35l-50 -17c11.333 141.333 17 301.333 17 480c0 206.667 -6.33301 409 -19 607c-36.667 -6.66699 -69 -10 -97 -10c-25.333 0 -49.333 2 -72 6l-2 31c0 51.333 9.33301 115 28 191
s42 135.333 70 178l2 -1c4.66699 -2.66699 14.667 -4 30 -4c23.333 0 71 5.33301 143 16l165 27c46 6 91.667 9 137 9c40 0 79.667 -3.66699 119 -11s77.333 -20 114 -38c63.333 -32 115.166 -79.667 155.499 -143s60.5 -137 60.5 -221c0 -92 -26.667 -186 -80 -282
c-60 -106 -145 -196.667 -255 -272c31.333 8 58.333 19.667 81 35l56 -96c32.667 -60 67.834 -116.667 105.501 -170s83.167 -97 136.5 -131c-56 -28.667 -103.833 -63.667 -143.5 -105s-69.834 -78.333 -90.501 -111zM500.003 811.001
c54.667 24.667 100.999 59.999 138.999 105.999c46 58.667 69 112.334 69 161.001c0 10 -0.333008 15 -1 15c-4 16 -11.5 29.333 -22.5 40s-32.5 16 -64.5 16c-49.333 0 -135.666 -18 -258.999 -54c62 9.33301 110.333 14 145 14c-2.66699 -92 -4.66699 -191.333 -6 -298z
" />
    <glyph glyph-name="s" unicode="s" horiz-adv-x="957" 
d="M128 -5l3.99902 29c3.33301 18.667 5 43 5 73c0 112 -29.667 201.667 -89 269c91.333 20 169 30 233 30c50 0 92.833 -3.66699 128.5 -11s65.334 -14.5 89.001 -21.5s42.5 -11.167 56.5 -12.5c26 0 39 15 39 45l-1 13c0 -4 -1.33301 -9 -4 -15s-6.5 -11.667 -11.5 -17
s-11.167 -8 -18.5 -8c-4 0 -8.33301 1 -13 3c-2.66699 13.333 -12 29 -28 47c-26 32 -56 60.167 -90 84.5s-68.667 47.166 -104 68.499c-57.333 32 -112.333 71 -165 117c-53.333 50.667 -93.166 105 -119.499 163s-39.5 116.333 -39.5 175c0 97.333 34.333 190 103 278
c27.333 38 57.833 72.167 91.5 102.5s70 54.666 109 72.999s79.5 27.5 121.5 27.5c58 0 116.333 -19.667 175 -59c28.667 -19.333 57.334 -40.333 86.001 -63c34.667 -28 69.5 -53 104.5 -75s71.167 -35 108.5 -39c-16.667 -18 -29 -39.5 -37 -64.5
s-14.667 -51.833 -20 -80.5c-7.33301 -41.333 -19.333 -82.166 -36 -122.499s-46.667 -74.833 -90 -103.5c-97.333 55.333 -181.333 114.666 -252 177.999c-18.667 16.667 -34.334 29.834 -47.001 39.501s-24.667 14.5 -36 14.5c-14 0 -29.333 -8.33301 -46 -25
c14.667 6.66699 26.667 10 36 10c10.667 0 16.667 -2.66699 18 -8l-2 -3c-28.667 -32.667 -43 -62.667 -43 -90c0 -30 15 -59 45 -87c28 -26 66 -53.667 114 -83c41.333 -25.333 85.333 -55.5 132 -90.5s91.334 -77.5 134.001 -127.5c72.667 -92 109 -182.667 109 -272
c0 -79.333 -26.667 -155.666 -80 -228.999c-38.667 -50.667 -78.834 -84.667 -120.501 -102s-84.834 -26 -129.501 -26c-40.667 0 -83 3.66699 -127 11s-89.667 11 -137 11c-56.667 0 -108.667 -9 -156 -27z" />
    <glyph glyph-name="t" unicode="t" horiz-adv-x="1086" 
d="M335 -46c0.666992 21.333 1.16895 96.501 1.50195 225.501s0.666016 278 0.999023 447s0.5 317.167 0.5 444.5c-145.333 -16.667 -229.333 -25.334 -252 -26.001c-18.667 -1.33301 -42.667 -2 -72 -2c-10.667 21.333 -16 49 -16 83c0 43.333 5.66699 90.5 17 141.5
s22.666 94.833 33.999 131.5l17 55c80.667 -29.333 171 -44 271 -44c67.333 0 164 7 290 21l121 12c119.333 8 197 12 233 12h8c14 0 25 0.333008 33 1l-14 -38c-10 -26 -19.667 -61.333 -29 -106s-14 -96 -14 -154c0 -26 1.33301 -53.333 4 -82
c-57.333 22 -136.333 33 -237 33c-57.333 0 -114 -3 -170 -9c50 -4 86.333 -8.66699 109 -14c-19.333 -153.333 -29 -315 -29 -485c0 -108.667 4 -213.5 12 -314.5s20 -188.167 36 -261.5c-17.333 2 -34.333 3 -51 3c-54 0 -104 -6.16699 -150 -18.5s-83 -24.5 -111 -36.5z
" />
    <glyph glyph-name="u" unicode="u" horiz-adv-x="1065" 
d="M620 -31l-0.00292969 6.00293c0 12.667 -0.666992 32.5 -2 59.5s-2 47.5 -2 61.5v6c8 7.33301 20.333 20.666 37 39.999s29.667 38.333 39 57c-44.667 -54 -92.334 -93.5 -143.001 -118.5s-101 -37.5 -151 -37.5c-60.667 0 -117.667 16.667 -171 50
s-97.666 80.666 -132.999 141.999c-35.333 64.667 -58.833 136.834 -70.5 216.501s-17.5 166.167 -17.5 259.5c0 65.333 1.33301 133.666 4 204.999c2.66699 76.667 4 156.334 4 239.001c0 88 -3.33301 179 -10 273l42 -10c28.667 -7.33301 66.334 -11 113.001 -11
c80.667 0 160.334 15.333 239.001 46c-4.66699 -160 -13.334 -314 -26.001 -462c-6 -76 -11.333 -150.333 -16 -223s-7 -143 -7 -211l1 -64c0.666992 -35.333 4.5 -69.666 11.5 -102.999s18.667 -61 35 -83s39.5 -33 69.5 -33c6.66699 0 14 0.666992 22 2h-5
c-16.667 0 -29.834 3.66699 -39.501 11s-15.167 12.666 -16.5 15.999l14 -2c20.667 0 42.834 8.5 66.501 25.5s45.834 36.5 66.501 58.5s37.334 41.667 50.001 59v59c0 209.333 -3 409.166 -9 599.499s-10 307.166 -12 350.499v9l39 -12c26 -8 64.167 -16.167 114.5 -24.5
s111.5 -12.5 183.5 -12.5l74 2c-58.667 -252.667 -88 -515 -88 -787c0 -185.333 15 -375.666 45 -570.999l-52 -5c-35.333 -2.66699 -79.5 -10.334 -132.5 -23.001s-108.5 -32.667 -166.5 -60z" />
    <glyph glyph-name="v" unicode="v" horiz-adv-x="1198" 
d="M787 2c-50 12 -108.335 17.9971 -175.002 17.9971c-56 0 -127 -4.33301 -213 -13c2 10 3 23.667 3 41c0 66.667 -14.5 176.834 -43.5 330.501s-73.167 319.667 -132.5 498s-134.666 343.5 -225.999 495.5c59.333 0 113 6.5 161 19.5s89.167 27.833 123.5 44.5
s60.5 31.667 78.5 45l28 19l12 -38c54.667 -153.333 144.334 -474.333 269.001 -963l3 -9v2c0 6 -3.66699 34.833 -11 86.5s-11 80.834 -11 87.501c70.667 244.667 109 520 115 826c80 -22 184.333 -33 313 -33c41.333 0 64 0.333008 68 1l-50 -251
c-53.333 -280.667 -100.833 -507.167 -142.5 -679.5s-98.167 -348.166 -169.5 -527.499z" />
    <glyph glyph-name="w" unicode="w" horiz-adv-x="1514" 
d="M254 3c-10 211.333 -40.3291 454.327 -90.9961 728.994s-105 491.334 -163 650.001c67.333 1.33301 131.833 8.33301 193.5 21s112.5 25.667 152.5 39l60 19c5.33301 -90 17.666 -206.833 36.999 -350.5s42 -292.5 68 -446.5
c-2.66699 -40.667 -16.334 -93.667 -41.001 -159l-7 -20c24 40.667 57.333 116.834 100 228.501s72.667 220.834 90 327.501c27.333 -8 52.333 -12 75 -12s42.167 2.33301 58.5 7s29.166 9 38.499 13l14 7c2 -21.333 3 -43.666 3 -66.999c0 -30 -1.66699 -61.667 -5 -95
c50 -129.333 106.667 -266.666 170 -411.999c-3.33301 13.333 -11 40 -23 80c-13.333 46 -20 71 -20 75c28 146.667 53.667 293.167 77 439.5s36.333 274.166 39 383.499c106 -38 204 -57 294 -57c27.333 0 48.666 1 63.999 3l22 4l-90 -380
c-74.667 -333.333 -112 -597.666 -112 -792.999c0 -78 7 -146.667 21 -206c-8.66699 4 -37.5 11 -86.5 21s-105.5 15 -169.5 15c-46.667 0 -93.667 -5 -141 -15c-36 102.667 -74.333 230 -115 382v5l5 103v5c-25.333 -98.667 -51.333 -193 -78 -283
c-22.667 -78 -41.667 -147.333 -57 -208c-22.667 2 -45 3 -67 3c-54.667 0 -106 -4.66699 -154 -14s-87 -18.666 -117 -27.999z" />
    <glyph glyph-name="x" unicode="x" horiz-adv-x="1253" 
d="M355 -67l-42.9951 45.9971c-28 30.667 -66.167 62.5 -114.5 95.5s-102.833 55.833 -163.5 68.5c27.333 32.667 55 69.334 83 110.001c71.333 107.333 132.166 206.833 182.499 298.5s95.166 176.834 134.499 255.501c-5.33301 -7.33301 -13.5 -17.833 -24.5 -31.5
l-32 -38.5c-10.333 -12 -16.833 -18 -19.5 -18h-1c-95.333 162 -172.333 299.667 -231 413c-54.667 104.667 -97.334 179.334 -128.001 224.001c89.333 19.333 162.166 41.166 218.499 65.499s97.833 45.5 124.5 63.5l40 28c41.333 -157.333 99.666 -315 174.999 -473
c74.667 142 187 307 337 495c12.667 -41.333 34.167 -79.833 64.5 -115.5s62.5 -67.334 96.5 -95.001s63.333 -49.167 88 -64.5l37 -24c-107.333 -80 -200.333 -174 -279 -282s-151.334 -227.333 -218.001 -358l13 15c39.333 47.333 61 71 65 71h1
c117.333 -175.333 253.333 -327 408 -455c-38 -23.333 -67.167 -49.333 -87.5 -78s-37.166 -57.167 -50.499 -85.5s-28.833 -53.166 -46.5 -74.499s-44.167 -34.666 -79.5 -39.999c-124 148 -233.667 291.667 -329 431l-32 -67z" />
    <glyph glyph-name="y" unicode="y" horiz-adv-x="1114" 
d="M273 -46c-51.333 0 -104.996 3.66406 -160.996 10.9971c-8 5.33301 -12 14.333 -12 27c0 14 3.66699 31.167 11 51.5s16 43.166 26 68.499c14.667 34 28.334 70.167 41.001 108.5s19 74.833 19 109.5v8c56 -18 107.667 -27 155 -27c142 0 244 82.333 306 247
c34 38.667 60 86.334 78 143.001c-9.33301 -19.333 -23.333 -44 -42 -74c-38.667 -55.333 -84.334 -98 -137.001 -128s-107 -45 -163 -45c-51.333 0 -100.833 14 -148.5 42s-89.167 72 -124.5 132c-39.333 70.667 -69.5 157.667 -90.5 261s-31.5 208.333 -31.5 315
c0 103.333 10.333 200 31 290c32 -20 62.5 -32.833 91.5 -38.5s56.833 -8.5 83.5 -8.5l57 1c23.333 0 46.166 -2.33301 68.499 -7s44.166 -15.334 65.499 -32.001c-10 -37.333 -19 -89.666 -27 -156.999s-12 -136.666 -12 -207.999c0 -55.333 3.5 -107.666 10.5 -156.999
s18.833 -89 35.5 -119c8.66699 -14.667 20.667 -25.5 36 -32.5s31.333 -10.5 48 -10.5c7.33301 0 14.666 0.666992 21.999 2c-4.66699 0 -11.5 1.33301 -20.5 4s-17.333 5.83398 -25 9.50098s-12.834 7.5 -15.501 11.5c36.667 8 69.334 28.167 98.001 60.5
s52.667 69.833 72 112.5c44.667 94.667 67 202 67 322c0 92.667 -11.667 166.667 -35 222c58.667 -19.333 117.334 -29 176.001 -29c35.333 0 66.166 2.5 92.499 7.5s46.5 10.167 60.5 15.5l22 8v-5c10 -65.333 20.167 -141.5 30.5 -228.5s15.5 -179.5 15.5 -277.5
c0 -253.333 -47 -467 -141 -641c-72.667 -128.667 -162.334 -221.667 -269.001 -279s-228 -86 -364 -86z" />
    <glyph glyph-name="z" unicode="z" horiz-adv-x="1115" 
d="M164 -30l-8 41.0029c-4.66699 27.333 -18 66.5 -40 117.5s-57 112.167 -105 183.5l-9 8c94.667 86 200.667 196.667 318 332s222.666 274.333 315.999 417c2 2 23.5 7.5 64.5 16.5s62.5 14.167 64.5 15.5c-338.667 -11.333 -576 -31.666 -712 -60.999l12 50
c8.66699 33.333 13 80.666 13 141.999s-8.33301 135.333 -25 222c125.333 -24 264 -36 416 -36c101.333 0 198.5 5.33301 291.5 16s169.167 27 228.5 49v-12c0 -108.667 22 -230.334 66 -365.001h-11l-164 -197l-499 -608l23 19c29.333 25.333 51.333 43.833 66 55.5
s117.667 17.5 309 17.5c115.333 0 203.333 -2.33301 264 -7c-33.333 -52 -57.5 -105.833 -72.5 -161.5s-24.333 -105.334 -28 -149.001s-5.5 -71.834 -5.5 -84.501v-6c-52 26.667 -111.167 46.167 -177.5 58.5s-133.5 18.5 -201.5 18.5c-81.333 0 -157.666 -8 -228.999 -24
s-126.333 -38.667 -165 -68z" />
    <glyph glyph-name="braceleft" unicode="{" 
d="M982 0h-912v1587h912v-1587zM927 55v1477h-802v-1477h802zM488 503l-35.001 0.000976562c-26 71.333 -39 125.666 -39 162.999c0 56.667 30.167 137.334 90.5 242.001s90.5 184.667 90.5 240c0 41.333 -12.167 74.333 -36.5 99s-58.166 37 -101.499 37
c-26.667 0 -50.334 -5.33301 -71.001 -16s-43 -26.334 -67 -47.001v50c32.667 29.333 64.334 50.166 95.001 62.499s61.667 18.5 93 18.5c66 0 120.167 -17.167 162.5 -51.5s63.5 -81.833 63.5 -142.5c0 -37.333 -9.16699 -75 -27.5 -113s-49.833 -84.333 -94.5 -139
c-46.667 -59.333 -83.167 -108.166 -109.5 -146.499s-39.5 -74.833 -39.5 -109.5c0 -28 8.66699 -77 26 -147zM474.999 236.001c-8 0 -15.333 3.66699 -22 11l-68 78c-4.66699 6.66699 -7 13.334 -7 20.001c0 7.33301 4 15.666 12 24.999l63 64c8 7.33301 15.333 11 22 11
c7.33301 0 15.333 -4 24 -12l62 -67c6.66699 -8 10 -15.333 10 -22c0 -8 -3.66699 -16 -11 -24l-62 -69c-10 -10 -17.667 -15 -23 -15z" />
    <glyph glyph-name="bar" unicode="|" 
d="M982 0h-912v1587h912v-1587zM927 55v1477h-802v-1477h802zM488 503l-35.001 0.000976562c-26 71.333 -39 125.666 -39 162.999c0 56.667 30.167 137.334 90.5 242.001s90.5 184.667 90.5 240c0 41.333 -12.167 74.333 -36.5 99s-58.166 37 -101.499 37
c-26.667 0 -50.334 -5.33301 -71.001 -16s-43 -26.334 -67 -47.001v50c32.667 29.333 64.334 50.166 95.001 62.499s61.667 18.5 93 18.5c66 0 120.167 -17.167 162.5 -51.5s63.5 -81.833 63.5 -142.5c0 -37.333 -9.16699 -75 -27.5 -113s-49.833 -84.333 -94.5 -139
c-46.667 -59.333 -83.167 -108.166 -109.5 -146.499s-39.5 -74.833 -39.5 -109.5c0 -28 8.66699 -77 26 -147zM474.999 236.001c-8 0 -15.333 3.66699 -22 11l-68 78c-4.66699 6.66699 -7 13.334 -7 20.001c0 7.33301 4 15.666 12 24.999l63 64c8 7.33301 15.333 11 22 11
c7.33301 0 15.333 -4 24 -12l62 -67c6.66699 -8 10 -15.333 10 -22c0 -8 -3.66699 -16 -11 -24l-62 -69c-10 -10 -17.667 -15 -23 -15z" />
    <glyph glyph-name="braceright" unicode="}" 
d="M982 0h-912v1587h912v-1587zM927 55v1477h-802v-1477h802zM488 503l-35.001 0.000976562c-26 71.333 -39 125.666 -39 162.999c0 56.667 30.167 137.334 90.5 242.001s90.5 184.667 90.5 240c0 41.333 -12.167 74.333 -36.5 99s-58.166 37 -101.499 37
c-26.667 0 -50.334 -5.33301 -71.001 -16s-43 -26.334 -67 -47.001v50c32.667 29.333 64.334 50.166 95.001 62.499s61.667 18.5 93 18.5c66 0 120.167 -17.167 162.5 -51.5s63.5 -81.833 63.5 -142.5c0 -37.333 -9.16699 -75 -27.5 -113s-49.833 -84.333 -94.5 -139
c-46.667 -59.333 -83.167 -108.166 -109.5 -146.499s-39.5 -74.833 -39.5 -109.5c0 -28 8.66699 -77 26 -147zM474.999 236.001c-8 0 -15.333 3.66699 -22 11l-68 78c-4.66699 6.66699 -7 13.334 -7 20.001c0 7.33301 4 15.666 12 24.999l63 64c8 7.33301 15.333 11 22 11
c7.33301 0 15.333 -4 24 -12l62 -67c6.66699 -8 10 -15.333 10 -22c0 -8 -3.66699 -16 -11 -24l-62 -69c-10 -10 -17.667 -15 -23 -15z" />
    <glyph glyph-name="asciitilde" unicode="~" 
d="M982 0h-912v1587h912v-1587zM927 55v1477h-802v-1477h802zM488 503l-35.001 0.000976562c-26 71.333 -39 125.666 -39 162.999c0 56.667 30.167 137.334 90.5 242.001s90.5 184.667 90.5 240c0 41.333 -12.167 74.333 -36.5 99s-58.166 37 -101.499 37
c-26.667 0 -50.334 -5.33301 -71.001 -16s-43 -26.334 -67 -47.001v50c32.667 29.333 64.334 50.166 95.001 62.499s61.667 18.5 93 18.5c66 0 120.167 -17.167 162.5 -51.5s63.5 -81.833 63.5 -142.5c0 -37.333 -9.16699 -75 -27.5 -113s-49.833 -84.333 -94.5 -139
c-46.667 -59.333 -83.167 -108.166 -109.5 -146.499s-39.5 -74.833 -39.5 -109.5c0 -28 8.66699 -77 26 -147zM474.999 236.001c-8 0 -15.333 3.66699 -22 11l-68 78c-4.66699 6.66699 -7 13.334 -7 20.001c0 7.33301 4 15.666 12 24.999l63 64c8 7.33301 15.333 11 22 11
c7.33301 0 15.333 -4 24 -12l62 -67c6.66699 -8 10 -15.333 10 -22c0 -8 -3.66699 -16 -11 -24l-62 -69c-10 -10 -17.667 -15 -23 -15z" />
    <glyph glyph-name="exclamdown" unicode="&#xa1;" 
d="M982 0h-912v1587h912v-1587zM927 55v1477h-802v-1477h802zM488 503l-35.001 0.000976562c-26 71.333 -39 125.666 -39 162.999c0 56.667 30.167 137.334 90.5 242.001s90.5 184.667 90.5 240c0 41.333 -12.167 74.333 -36.5 99s-58.166 37 -101.499 37
c-26.667 0 -50.334 -5.33301 -71.001 -16s-43 -26.334 -67 -47.001v50c32.667 29.333 64.334 50.166 95.001 62.499s61.667 18.5 93 18.5c66 0 120.167 -17.167 162.5 -51.5s63.5 -81.833 63.5 -142.5c0 -37.333 -9.16699 -75 -27.5 -113s-49.833 -84.333 -94.5 -139
c-46.667 -59.333 -83.167 -108.166 -109.5 -146.499s-39.5 -74.833 -39.5 -109.5c0 -28 8.66699 -77 26 -147zM474.999 236.001c-8 0 -15.333 3.66699 -22 11l-68 78c-4.66699 6.66699 -7 13.334 -7 20.001c0 7.33301 4 15.666 12 24.999l63 64c8 7.33301 15.333 11 22 11
c7.33301 0 15.333 -4 24 -12l62 -67c6.66699 -8 10 -15.333 10 -22c0 -8 -3.66699 -16 -11 -24l-62 -69c-10 -10 -17.667 -15 -23 -15z" />
    <glyph glyph-name="cent" unicode="&#xa2;" 
d="M982 0h-912v1587h912v-1587zM927 55v1477h-802v-1477h802zM488 503l-35.001 0.000976562c-26 71.333 -39 125.666 -39 162.999c0 56.667 30.167 137.334 90.5 242.001s90.5 184.667 90.5 240c0 41.333 -12.167 74.333 -36.5 99s-58.166 37 -101.499 37
c-26.667 0 -50.334 -5.33301 -71.001 -16s-43 -26.334 -67 -47.001v50c32.667 29.333 64.334 50.166 95.001 62.499s61.667 18.5 93 18.5c66 0 120.167 -17.167 162.5 -51.5s63.5 -81.833 63.5 -142.5c0 -37.333 -9.16699 -75 -27.5 -113s-49.833 -84.333 -94.5 -139
c-46.667 -59.333 -83.167 -108.166 -109.5 -146.499s-39.5 -74.833 -39.5 -109.5c0 -28 8.66699 -77 26 -147zM474.999 236.001c-8 0 -15.333 3.66699 -22 11l-68 78c-4.66699 6.66699 -7 13.334 -7 20.001c0 7.33301 4 15.666 12 24.999l63 64c8 7.33301 15.333 11 22 11
c7.33301 0 15.333 -4 24 -12l62 -67c6.66699 -8 10 -15.333 10 -22c0 -8 -3.66699 -16 -11 -24l-62 -69c-10 -10 -17.667 -15 -23 -15z" />
    <glyph glyph-name="sterling" unicode="&#xa3;" 
d="M982 0h-912v1587h912v-1587zM927 55v1477h-802v-1477h802zM488 503l-35.001 0.000976562c-26 71.333 -39 125.666 -39 162.999c0 56.667 30.167 137.334 90.5 242.001s90.5 184.667 90.5 240c0 41.333 -12.167 74.333 -36.5 99s-58.166 37 -101.499 37
c-26.667 0 -50.334 -5.33301 -71.001 -16s-43 -26.334 -67 -47.001v50c32.667 29.333 64.334 50.166 95.001 62.499s61.667 18.5 93 18.5c66 0 120.167 -17.167 162.5 -51.5s63.5 -81.833 63.5 -142.5c0 -37.333 -9.16699 -75 -27.5 -113s-49.833 -84.333 -94.5 -139
c-46.667 -59.333 -83.167 -108.166 -109.5 -146.499s-39.5 -74.833 -39.5 -109.5c0 -28 8.66699 -77 26 -147zM474.999 236.001c-8 0 -15.333 3.66699 -22 11l-68 78c-4.66699 6.66699 -7 13.334 -7 20.001c0 7.33301 4 15.666 12 24.999l63 64c8 7.33301 15.333 11 22 11
c7.33301 0 15.333 -4 24 -12l62 -67c6.66699 -8 10 -15.333 10 -22c0 -8 -3.66699 -16 -11 -24l-62 -69c-10 -10 -17.667 -15 -23 -15z" />
    <glyph glyph-name="currency" unicode="&#xa4;" 
d="M982 0h-912v1587h912v-1587zM927 55v1477h-802v-1477h802zM488 503l-35.001 0.000976562c-26 71.333 -39 125.666 -39 162.999c0 56.667 30.167 137.334 90.5 242.001s90.5 184.667 90.5 240c0 41.333 -12.167 74.333 -36.5 99s-58.166 37 -101.499 37
c-26.667 0 -50.334 -5.33301 -71.001 -16s-43 -26.334 -67 -47.001v50c32.667 29.333 64.334 50.166 95.001 62.499s61.667 18.5 93 18.5c66 0 120.167 -17.167 162.5 -51.5s63.5 -81.833 63.5 -142.5c0 -37.333 -9.16699 -75 -27.5 -113s-49.833 -84.333 -94.5 -139
c-46.667 -59.333 -83.167 -108.166 -109.5 -146.499s-39.5 -74.833 -39.5 -109.5c0 -28 8.66699 -77 26 -147zM474.999 236.001c-8 0 -15.333 3.66699 -22 11l-68 78c-4.66699 6.66699 -7 13.334 -7 20.001c0 7.33301 4 15.666 12 24.999l63 64c8 7.33301 15.333 11 22 11
c7.33301 0 15.333 -4 24 -12l62 -67c6.66699 -8 10 -15.333 10 -22c0 -8 -3.66699 -16 -11 -24l-62 -69c-10 -10 -17.667 -15 -23 -15z" />
    <glyph glyph-name="yen" unicode="&#xa5;" 
d="M982 0h-912v1587h912v-1587zM927 55v1477h-802v-1477h802zM488 503l-35.001 0.000976562c-26 71.333 -39 125.666 -39 162.999c0 56.667 30.167 137.334 90.5 242.001s90.5 184.667 90.5 240c0 41.333 -12.167 74.333 -36.5 99s-58.166 37 -101.499 37
c-26.667 0 -50.334 -5.33301 -71.001 -16s-43 -26.334 -67 -47.001v50c32.667 29.333 64.334 50.166 95.001 62.499s61.667 18.5 93 18.5c66 0 120.167 -17.167 162.5 -51.5s63.5 -81.833 63.5 -142.5c0 -37.333 -9.16699 -75 -27.5 -113s-49.833 -84.333 -94.5 -139
c-46.667 -59.333 -83.167 -108.166 -109.5 -146.499s-39.5 -74.833 -39.5 -109.5c0 -28 8.66699 -77 26 -147zM474.999 236.001c-8 0 -15.333 3.66699 -22 11l-68 78c-4.66699 6.66699 -7 13.334 -7 20.001c0 7.33301 4 15.666 12 24.999l63 64c8 7.33301 15.333 11 22 11
c7.33301 0 15.333 -4 24 -12l62 -67c6.66699 -8 10 -15.333 10 -22c0 -8 -3.66699 -16 -11 -24l-62 -69c-10 -10 -17.667 -15 -23 -15z" />
    <glyph glyph-name="brokenbar" unicode="&#xa6;" 
d="M982 0h-912v1587h912v-1587zM927 55v1477h-802v-1477h802zM488 503l-35.001 0.000976562c-26 71.333 -39 125.666 -39 162.999c0 56.667 30.167 137.334 90.5 242.001s90.5 184.667 90.5 240c0 41.333 -12.167 74.333 -36.5 99s-58.166 37 -101.499 37
c-26.667 0 -50.334 -5.33301 -71.001 -16s-43 -26.334 -67 -47.001v50c32.667 29.333 64.334 50.166 95.001 62.499s61.667 18.5 93 18.5c66 0 120.167 -17.167 162.5 -51.5s63.5 -81.833 63.5 -142.5c0 -37.333 -9.16699 -75 -27.5 -113s-49.833 -84.333 -94.5 -139
c-46.667 -59.333 -83.167 -108.166 -109.5 -146.499s-39.5 -74.833 -39.5 -109.5c0 -28 8.66699 -77 26 -147zM474.999 236.001c-8 0 -15.333 3.66699 -22 11l-68 78c-4.66699 6.66699 -7 13.334 -7 20.001c0 7.33301 4 15.666 12 24.999l63 64c8 7.33301 15.333 11 22 11
c7.33301 0 15.333 -4 24 -12l62 -67c6.66699 -8 10 -15.333 10 -22c0 -8 -3.66699 -16 -11 -24l-62 -69c-10 -10 -17.667 -15 -23 -15z" />
    <glyph glyph-name="section" unicode="&#xa7;" 
d="M982 0h-912v1587h912v-1587zM927 55v1477h-802v-1477h802zM488 503l-35.001 0.000976562c-26 71.333 -39 125.666 -39 162.999c0 56.667 30.167 137.334 90.5 242.001s90.5 184.667 90.5 240c0 41.333 -12.167 74.333 -36.5 99s-58.166 37 -101.499 37
c-26.667 0 -50.334 -5.33301 -71.001 -16s-43 -26.334 -67 -47.001v50c32.667 29.333 64.334 50.166 95.001 62.499s61.667 18.5 93 18.5c66 0 120.167 -17.167 162.5 -51.5s63.5 -81.833 63.5 -142.5c0 -37.333 -9.16699 -75 -27.5 -113s-49.833 -84.333 -94.5 -139
c-46.667 -59.333 -83.167 -108.166 -109.5 -146.499s-39.5 -74.833 -39.5 -109.5c0 -28 8.66699 -77 26 -147zM474.999 236.001c-8 0 -15.333 3.66699 -22 11l-68 78c-4.66699 6.66699 -7 13.334 -7 20.001c0 7.33301 4 15.666 12 24.999l63 64c8 7.33301 15.333 11 22 11
c7.33301 0 15.333 -4 24 -12l62 -67c6.66699 -8 10 -15.333 10 -22c0 -8 -3.66699 -16 -11 -24l-62 -69c-10 -10 -17.667 -15 -23 -15z" />
    <glyph glyph-name="dieresis" unicode="&#xa8;" 
d="M982 0h-912v1587h912v-1587zM927 55v1477h-802v-1477h802zM488 503l-35.001 0.000976562c-26 71.333 -39 125.666 -39 162.999c0 56.667 30.167 137.334 90.5 242.001s90.5 184.667 90.5 240c0 41.333 -12.167 74.333 -36.5 99s-58.166 37 -101.499 37
c-26.667 0 -50.334 -5.33301 -71.001 -16s-43 -26.334 -67 -47.001v50c32.667 29.333 64.334 50.166 95.001 62.499s61.667 18.5 93 18.5c66 0 120.167 -17.167 162.5 -51.5s63.5 -81.833 63.5 -142.5c0 -37.333 -9.16699 -75 -27.5 -113s-49.833 -84.333 -94.5 -139
c-46.667 -59.333 -83.167 -108.166 -109.5 -146.499s-39.5 -74.833 -39.5 -109.5c0 -28 8.66699 -77 26 -147zM474.999 236.001c-8 0 -15.333 3.66699 -22 11l-68 78c-4.66699 6.66699 -7 13.334 -7 20.001c0 7.33301 4 15.666 12 24.999l63 64c8 7.33301 15.333 11 22 11
c7.33301 0 15.333 -4 24 -12l62 -67c6.66699 -8 10 -15.333 10 -22c0 -8 -3.66699 -16 -11 -24l-62 -69c-10 -10 -17.667 -15 -23 -15z" />
    <glyph glyph-name="copyright" unicode="&#xa9;" 
d="M982 0h-912v1587h912v-1587zM927 55v1477h-802v-1477h802zM488 503l-35.001 0.000976562c-26 71.333 -39 125.666 -39 162.999c0 56.667 30.167 137.334 90.5 242.001s90.5 184.667 90.5 240c0 41.333 -12.167 74.333 -36.5 99s-58.166 37 -101.499 37
c-26.667 0 -50.334 -5.33301 -71.001 -16s-43 -26.334 -67 -47.001v50c32.667 29.333 64.334 50.166 95.001 62.499s61.667 18.5 93 18.5c66 0 120.167 -17.167 162.5 -51.5s63.5 -81.833 63.5 -142.5c0 -37.333 -9.16699 -75 -27.5 -113s-49.833 -84.333 -94.5 -139
c-46.667 -59.333 -83.167 -108.166 -109.5 -146.499s-39.5 -74.833 -39.5 -109.5c0 -28 8.66699 -77 26 -147zM474.999 236.001c-8 0 -15.333 3.66699 -22 11l-68 78c-4.66699 6.66699 -7 13.334 -7 20.001c0 7.33301 4 15.666 12 24.999l63 64c8 7.33301 15.333 11 22 11
c7.33301 0 15.333 -4 24 -12l62 -67c6.66699 -8 10 -15.333 10 -22c0 -8 -3.66699 -16 -11 -24l-62 -69c-10 -10 -17.667 -15 -23 -15z" />
    <glyph glyph-name="ordfeminine" unicode="&#xaa;" 
d="M982 0h-912v1587h912v-1587zM927 55v1477h-802v-1477h802zM488 503l-35.001 0.000976562c-26 71.333 -39 125.666 -39 162.999c0 56.667 30.167 137.334 90.5 242.001s90.5 184.667 90.5 240c0 41.333 -12.167 74.333 -36.5 99s-58.166 37 -101.499 37
c-26.667 0 -50.334 -5.33301 -71.001 -16s-43 -26.334 -67 -47.001v50c32.667 29.333 64.334 50.166 95.001 62.499s61.667 18.5 93 18.5c66 0 120.167 -17.167 162.5 -51.5s63.5 -81.833 63.5 -142.5c0 -37.333 -9.16699 -75 -27.5 -113s-49.833 -84.333 -94.5 -139
c-46.667 -59.333 -83.167 -108.166 -109.5 -146.499s-39.5 -74.833 -39.5 -109.5c0 -28 8.66699 -77 26 -147zM474.999 236.001c-8 0 -15.333 3.66699 -22 11l-68 78c-4.66699 6.66699 -7 13.334 -7 20.001c0 7.33301 4 15.666 12 24.999l63 64c8 7.33301 15.333 11 22 11
c7.33301 0 15.333 -4 24 -12l62 -67c6.66699 -8 10 -15.333 10 -22c0 -8 -3.66699 -16 -11 -24l-62 -69c-10 -10 -17.667 -15 -23 -15z" />
    <glyph glyph-name="guillemotleft" unicode="&#xab;" 
d="M982 0h-912v1587h912v-1587zM927 55v1477h-802v-1477h802zM488 503l-35.001 0.000976562c-26 71.333 -39 125.666 -39 162.999c0 56.667 30.167 137.334 90.5 242.001s90.5 184.667 90.5 240c0 41.333 -12.167 74.333 -36.5 99s-58.166 37 -101.499 37
c-26.667 0 -50.334 -5.33301 -71.001 -16s-43 -26.334 -67 -47.001v50c32.667 29.333 64.334 50.166 95.001 62.499s61.667 18.5 93 18.5c66 0 120.167 -17.167 162.5 -51.5s63.5 -81.833 63.5 -142.5c0 -37.333 -9.16699 -75 -27.5 -113s-49.833 -84.333 -94.5 -139
c-46.667 -59.333 -83.167 -108.166 -109.5 -146.499s-39.5 -74.833 -39.5 -109.5c0 -28 8.66699 -77 26 -147zM474.999 236.001c-8 0 -15.333 3.66699 -22 11l-68 78c-4.66699 6.66699 -7 13.334 -7 20.001c0 7.33301 4 15.666 12 24.999l63 64c8 7.33301 15.333 11 22 11
c7.33301 0 15.333 -4 24 -12l62 -67c6.66699 -8 10 -15.333 10 -22c0 -8 -3.66699 -16 -11 -24l-62 -69c-10 -10 -17.667 -15 -23 -15z" />
    <glyph glyph-name="registered" unicode="&#xae;" 
d="M982 0h-912v1587h912v-1587zM927 55v1477h-802v-1477h802zM488 503l-35.001 0.000976562c-26 71.333 -39 125.666 -39 162.999c0 56.667 30.167 137.334 90.5 242.001s90.5 184.667 90.5 240c0 41.333 -12.167 74.333 -36.5 99s-58.166 37 -101.499 37
c-26.667 0 -50.334 -5.33301 -71.001 -16s-43 -26.334 -67 -47.001v50c32.667 29.333 64.334 50.166 95.001 62.499s61.667 18.5 93 18.5c66 0 120.167 -17.167 162.5 -51.5s63.5 -81.833 63.5 -142.5c0 -37.333 -9.16699 -75 -27.5 -113s-49.833 -84.333 -94.5 -139
c-46.667 -59.333 -83.167 -108.166 -109.5 -146.499s-39.5 -74.833 -39.5 -109.5c0 -28 8.66699 -77 26 -147zM474.999 236.001c-8 0 -15.333 3.66699 -22 11l-68 78c-4.66699 6.66699 -7 13.334 -7 20.001c0 7.33301 4 15.666 12 24.999l63 64c8 7.33301 15.333 11 22 11
c7.33301 0 15.333 -4 24 -12l62 -67c6.66699 -8 10 -15.333 10 -22c0 -8 -3.66699 -16 -11 -24l-62 -69c-10 -10 -17.667 -15 -23 -15z" />
    <glyph glyph-name="macron" unicode="&#xaf;" 
d="M982 0h-912v1587h912v-1587zM927 55v1477h-802v-1477h802zM488 503l-35.001 0.000976562c-26 71.333 -39 125.666 -39 162.999c0 56.667 30.167 137.334 90.5 242.001s90.5 184.667 90.5 240c0 41.333 -12.167 74.333 -36.5 99s-58.166 37 -101.499 37
c-26.667 0 -50.334 -5.33301 -71.001 -16s-43 -26.334 -67 -47.001v50c32.667 29.333 64.334 50.166 95.001 62.499s61.667 18.5 93 18.5c66 0 120.167 -17.167 162.5 -51.5s63.5 -81.833 63.5 -142.5c0 -37.333 -9.16699 -75 -27.5 -113s-49.833 -84.333 -94.5 -139
c-46.667 -59.333 -83.167 -108.166 -109.5 -146.499s-39.5 -74.833 -39.5 -109.5c0 -28 8.66699 -77 26 -147zM474.999 236.001c-8 0 -15.333 3.66699 -22 11l-68 78c-4.66699 6.66699 -7 13.334 -7 20.001c0 7.33301 4 15.666 12 24.999l63 64c8 7.33301 15.333 11 22 11
c7.33301 0 15.333 -4 24 -12l62 -67c6.66699 -8 10 -15.333 10 -22c0 -8 -3.66699 -16 -11 -24l-62 -69c-10 -10 -17.667 -15 -23 -15z" />
    <glyph glyph-name="degree" unicode="&#xb0;" 
d="M982 0h-912v1587h912v-1587zM927 55v1477h-802v-1477h802zM488 503l-35.001 0.000976562c-26 71.333 -39 125.666 -39 162.999c0 56.667 30.167 137.334 90.5 242.001s90.5 184.667 90.5 240c0 41.333 -12.167 74.333 -36.5 99s-58.166 37 -101.499 37
c-26.667 0 -50.334 -5.33301 -71.001 -16s-43 -26.334 -67 -47.001v50c32.667 29.333 64.334 50.166 95.001 62.499s61.667 18.5 93 18.5c66 0 120.167 -17.167 162.5 -51.5s63.5 -81.833 63.5 -142.5c0 -37.333 -9.16699 -75 -27.5 -113s-49.833 -84.333 -94.5 -139
c-46.667 -59.333 -83.167 -108.166 -109.5 -146.499s-39.5 -74.833 -39.5 -109.5c0 -28 8.66699 -77 26 -147zM474.999 236.001c-8 0 -15.333 3.66699 -22 11l-68 78c-4.66699 6.66699 -7 13.334 -7 20.001c0 7.33301 4 15.666 12 24.999l63 64c8 7.33301 15.333 11 22 11
c7.33301 0 15.333 -4 24 -12l62 -67c6.66699 -8 10 -15.333 10 -22c0 -8 -3.66699 -16 -11 -24l-62 -69c-10 -10 -17.667 -15 -23 -15z" />
    <glyph glyph-name="plusminus" unicode="&#xb1;" 
d="M982 0h-912v1587h912v-1587zM927 55v1477h-802v-1477h802zM488 503l-35.001 0.000976562c-26 71.333 -39 125.666 -39 162.999c0 56.667 30.167 137.334 90.5 242.001s90.5 184.667 90.5 240c0 41.333 -12.167 74.333 -36.5 99s-58.166 37 -101.499 37
c-26.667 0 -50.334 -5.33301 -71.001 -16s-43 -26.334 -67 -47.001v50c32.667 29.333 64.334 50.166 95.001 62.499s61.667 18.5 93 18.5c66 0 120.167 -17.167 162.5 -51.5s63.5 -81.833 63.5 -142.5c0 -37.333 -9.16699 -75 -27.5 -113s-49.833 -84.333 -94.5 -139
c-46.667 -59.333 -83.167 -108.166 -109.5 -146.499s-39.5 -74.833 -39.5 -109.5c0 -28 8.66699 -77 26 -147zM474.999 236.001c-8 0 -15.333 3.66699 -22 11l-68 78c-4.66699 6.66699 -7 13.334 -7 20.001c0 7.33301 4 15.666 12 24.999l63 64c8 7.33301 15.333 11 22 11
c7.33301 0 15.333 -4 24 -12l62 -67c6.66699 -8 10 -15.333 10 -22c0 -8 -3.66699 -16 -11 -24l-62 -69c-10 -10 -17.667 -15 -23 -15z" />
    <glyph glyph-name="uni00B2" unicode="&#xb2;" 
d="M982 0h-912v1587h912v-1587zM927 55v1477h-802v-1477h802zM488 503l-35.001 0.000976562c-26 71.333 -39 125.666 -39 162.999c0 56.667 30.167 137.334 90.5 242.001s90.5 184.667 90.5 240c0 41.333 -12.167 74.333 -36.5 99s-58.166 37 -101.499 37
c-26.667 0 -50.334 -5.33301 -71.001 -16s-43 -26.334 -67 -47.001v50c32.667 29.333 64.334 50.166 95.001 62.499s61.667 18.5 93 18.5c66 0 120.167 -17.167 162.5 -51.5s63.5 -81.833 63.5 -142.5c0 -37.333 -9.16699 -75 -27.5 -113s-49.833 -84.333 -94.5 -139
c-46.667 -59.333 -83.167 -108.166 -109.5 -146.499s-39.5 -74.833 -39.5 -109.5c0 -28 8.66699 -77 26 -147zM474.999 236.001c-8 0 -15.333 3.66699 -22 11l-68 78c-4.66699 6.66699 -7 13.334 -7 20.001c0 7.33301 4 15.666 12 24.999l63 64c8 7.33301 15.333 11 22 11
c7.33301 0 15.333 -4 24 -12l62 -67c6.66699 -8 10 -15.333 10 -22c0 -8 -3.66699 -16 -11 -24l-62 -69c-10 -10 -17.667 -15 -23 -15z" />
    <glyph glyph-name="uni00B3" unicode="&#xb3;" 
d="M982 0h-912v1587h912v-1587zM927 55v1477h-802v-1477h802zM488 503l-35.001 0.000976562c-26 71.333 -39 125.666 -39 162.999c0 56.667 30.167 137.334 90.5 242.001s90.5 184.667 90.5 240c0 41.333 -12.167 74.333 -36.5 99s-58.166 37 -101.499 37
c-26.667 0 -50.334 -5.33301 -71.001 -16s-43 -26.334 -67 -47.001v50c32.667 29.333 64.334 50.166 95.001 62.499s61.667 18.5 93 18.5c66 0 120.167 -17.167 162.5 -51.5s63.5 -81.833 63.5 -142.5c0 -37.333 -9.16699 -75 -27.5 -113s-49.833 -84.333 -94.5 -139
c-46.667 -59.333 -83.167 -108.166 -109.5 -146.499s-39.5 -74.833 -39.5 -109.5c0 -28 8.66699 -77 26 -147zM474.999 236.001c-8 0 -15.333 3.66699 -22 11l-68 78c-4.66699 6.66699 -7 13.334 -7 20.001c0 7.33301 4 15.666 12 24.999l63 64c8 7.33301 15.333 11 22 11
c7.33301 0 15.333 -4 24 -12l62 -67c6.66699 -8 10 -15.333 10 -22c0 -8 -3.66699 -16 -11 -24l-62 -69c-10 -10 -17.667 -15 -23 -15z" />
    <glyph glyph-name="acute" unicode="&#xb4;" 
d="M982 0h-912v1587h912v-1587zM927 55v1477h-802v-1477h802zM488 503l-35.001 0.000976562c-26 71.333 -39 125.666 -39 162.999c0 56.667 30.167 137.334 90.5 242.001s90.5 184.667 90.5 240c0 41.333 -12.167 74.333 -36.5 99s-58.166 37 -101.499 37
c-26.667 0 -50.334 -5.33301 -71.001 -16s-43 -26.334 -67 -47.001v50c32.667 29.333 64.334 50.166 95.001 62.499s61.667 18.5 93 18.5c66 0 120.167 -17.167 162.5 -51.5s63.5 -81.833 63.5 -142.5c0 -37.333 -9.16699 -75 -27.5 -113s-49.833 -84.333 -94.5 -139
c-46.667 -59.333 -83.167 -108.166 -109.5 -146.499s-39.5 -74.833 -39.5 -109.5c0 -28 8.66699 -77 26 -147zM474.999 236.001c-8 0 -15.333 3.66699 -22 11l-68 78c-4.66699 6.66699 -7 13.334 -7 20.001c0 7.33301 4 15.666 12 24.999l63 64c8 7.33301 15.333 11 22 11
c7.33301 0 15.333 -4 24 -12l62 -67c6.66699 -8 10 -15.333 10 -22c0 -8 -3.66699 -16 -11 -24l-62 -69c-10 -10 -17.667 -15 -23 -15z" />
    <glyph glyph-name="periodcentered" unicode="&#xb7;" 
d="M982 0h-912v1587h912v-1587zM927 55v1477h-802v-1477h802zM488 503l-35.001 0.000976562c-26 71.333 -39 125.666 -39 162.999c0 56.667 30.167 137.334 90.5 242.001s90.5 184.667 90.5 240c0 41.333 -12.167 74.333 -36.5 99s-58.166 37 -101.499 37
c-26.667 0 -50.334 -5.33301 -71.001 -16s-43 -26.334 -67 -47.001v50c32.667 29.333 64.334 50.166 95.001 62.499s61.667 18.5 93 18.5c66 0 120.167 -17.167 162.5 -51.5s63.5 -81.833 63.5 -142.5c0 -37.333 -9.16699 -75 -27.5 -113s-49.833 -84.333 -94.5 -139
c-46.667 -59.333 -83.167 -108.166 -109.5 -146.499s-39.5 -74.833 -39.5 -109.5c0 -28 8.66699 -77 26 -147zM474.999 236.001c-8 0 -15.333 3.66699 -22 11l-68 78c-4.66699 6.66699 -7 13.334 -7 20.001c0 7.33301 4 15.666 12 24.999l63 64c8 7.33301 15.333 11 22 11
c7.33301 0 15.333 -4 24 -12l62 -67c6.66699 -8 10 -15.333 10 -22c0 -8 -3.66699 -16 -11 -24l-62 -69c-10 -10 -17.667 -15 -23 -15z" />
    <glyph glyph-name="cedilla" unicode="&#xb8;" 
d="M982 0h-912v1587h912v-1587zM927 55v1477h-802v-1477h802zM488 503l-35.001 0.000976562c-26 71.333 -39 125.666 -39 162.999c0 56.667 30.167 137.334 90.5 242.001s90.5 184.667 90.5 240c0 41.333 -12.167 74.333 -36.5 99s-58.166 37 -101.499 37
c-26.667 0 -50.334 -5.33301 -71.001 -16s-43 -26.334 -67 -47.001v50c32.667 29.333 64.334 50.166 95.001 62.499s61.667 18.5 93 18.5c66 0 120.167 -17.167 162.5 -51.5s63.5 -81.833 63.5 -142.5c0 -37.333 -9.16699 -75 -27.5 -113s-49.833 -84.333 -94.5 -139
c-46.667 -59.333 -83.167 -108.166 -109.5 -146.499s-39.5 -74.833 -39.5 -109.5c0 -28 8.66699 -77 26 -147zM474.999 236.001c-8 0 -15.333 3.66699 -22 11l-68 78c-4.66699 6.66699 -7 13.334 -7 20.001c0 7.33301 4 15.666 12 24.999l63 64c8 7.33301 15.333 11 22 11
c7.33301 0 15.333 -4 24 -12l62 -67c6.66699 -8 10 -15.333 10 -22c0 -8 -3.66699 -16 -11 -24l-62 -69c-10 -10 -17.667 -15 -23 -15z" />
    <glyph glyph-name="uni00B9" unicode="&#xb9;" 
d="M982 0h-912v1587h912v-1587zM927 55v1477h-802v-1477h802zM488 503l-35.001 0.000976562c-26 71.333 -39 125.666 -39 162.999c0 56.667 30.167 137.334 90.5 242.001s90.5 184.667 90.5 240c0 41.333 -12.167 74.333 -36.5 99s-58.166 37 -101.499 37
c-26.667 0 -50.334 -5.33301 -71.001 -16s-43 -26.334 -67 -47.001v50c32.667 29.333 64.334 50.166 95.001 62.499s61.667 18.5 93 18.5c66 0 120.167 -17.167 162.5 -51.5s63.5 -81.833 63.5 -142.5c0 -37.333 -9.16699 -75 -27.5 -113s-49.833 -84.333 -94.5 -139
c-46.667 -59.333 -83.167 -108.166 -109.5 -146.499s-39.5 -74.833 -39.5 -109.5c0 -28 8.66699 -77 26 -147zM474.999 236.001c-8 0 -15.333 3.66699 -22 11l-68 78c-4.66699 6.66699 -7 13.334 -7 20.001c0 7.33301 4 15.666 12 24.999l63 64c8 7.33301 15.333 11 22 11
c7.33301 0 15.333 -4 24 -12l62 -67c6.66699 -8 10 -15.333 10 -22c0 -8 -3.66699 -16 -11 -24l-62 -69c-10 -10 -17.667 -15 -23 -15z" />
    <glyph glyph-name="ordmasculine" unicode="&#xba;" 
d="M982 0h-912v1587h912v-1587zM927 55v1477h-802v-1477h802zM488 503l-35.001 0.000976562c-26 71.333 -39 125.666 -39 162.999c0 56.667 30.167 137.334 90.5 242.001s90.5 184.667 90.5 240c0 41.333 -12.167 74.333 -36.5 99s-58.166 37 -101.499 37
c-26.667 0 -50.334 -5.33301 -71.001 -16s-43 -26.334 -67 -47.001v50c32.667 29.333 64.334 50.166 95.001 62.499s61.667 18.5 93 18.5c66 0 120.167 -17.167 162.5 -51.5s63.5 -81.833 63.5 -142.5c0 -37.333 -9.16699 -75 -27.5 -113s-49.833 -84.333 -94.5 -139
c-46.667 -59.333 -83.167 -108.166 -109.5 -146.499s-39.5 -74.833 -39.5 -109.5c0 -28 8.66699 -77 26 -147zM474.999 236.001c-8 0 -15.333 3.66699 -22 11l-68 78c-4.66699 6.66699 -7 13.334 -7 20.001c0 7.33301 4 15.666 12 24.999l63 64c8 7.33301 15.333 11 22 11
c7.33301 0 15.333 -4 24 -12l62 -67c6.66699 -8 10 -15.333 10 -22c0 -8 -3.66699 -16 -11 -24l-62 -69c-10 -10 -17.667 -15 -23 -15z" />
    <glyph glyph-name="guillemotright" unicode="&#xbb;" 
d="M982 0h-912v1587h912v-1587zM927 55v1477h-802v-1477h802zM488 503l-35.001 0.000976562c-26 71.333 -39 125.666 -39 162.999c0 56.667 30.167 137.334 90.5 242.001s90.5 184.667 90.5 240c0 41.333 -12.167 74.333 -36.5 99s-58.166 37 -101.499 37
c-26.667 0 -50.334 -5.33301 -71.001 -16s-43 -26.334 -67 -47.001v50c32.667 29.333 64.334 50.166 95.001 62.499s61.667 18.5 93 18.5c66 0 120.167 -17.167 162.5 -51.5s63.5 -81.833 63.5 -142.5c0 -37.333 -9.16699 -75 -27.5 -113s-49.833 -84.333 -94.5 -139
c-46.667 -59.333 -83.167 -108.166 -109.5 -146.499s-39.5 -74.833 -39.5 -109.5c0 -28 8.66699 -77 26 -147zM474.999 236.001c-8 0 -15.333 3.66699 -22 11l-68 78c-4.66699 6.66699 -7 13.334 -7 20.001c0 7.33301 4 15.666 12 24.999l63 64c8 7.33301 15.333 11 22 11
c7.33301 0 15.333 -4 24 -12l62 -67c6.66699 -8 10 -15.333 10 -22c0 -8 -3.66699 -16 -11 -24l-62 -69c-10 -10 -17.667 -15 -23 -15z" />
    <glyph glyph-name="questiondown" unicode="&#xbf;" 
d="M982 0h-912v1587h912v-1587zM927 55v1477h-802v-1477h802zM488 503l-35.001 0.000976562c-26 71.333 -39 125.666 -39 162.999c0 56.667 30.167 137.334 90.5 242.001s90.5 184.667 90.5 240c0 41.333 -12.167 74.333 -36.5 99s-58.166 37 -101.499 37
c-26.667 0 -50.334 -5.33301 -71.001 -16s-43 -26.334 -67 -47.001v50c32.667 29.333 64.334 50.166 95.001 62.499s61.667 18.5 93 18.5c66 0 120.167 -17.167 162.5 -51.5s63.5 -81.833 63.5 -142.5c0 -37.333 -9.16699 -75 -27.5 -113s-49.833 -84.333 -94.5 -139
c-46.667 -59.333 -83.167 -108.166 -109.5 -146.499s-39.5 -74.833 -39.5 -109.5c0 -28 8.66699 -77 26 -147zM474.999 236.001c-8 0 -15.333 3.66699 -22 11l-68 78c-4.66699 6.66699 -7 13.334 -7 20.001c0 7.33301 4 15.666 12 24.999l63 64c8 7.33301 15.333 11 22 11
c7.33301 0 15.333 -4 24 -12l62 -67c6.66699 -8 10 -15.333 10 -22c0 -8 -3.66699 -16 -11 -24l-62 -69c-10 -10 -17.667 -15 -23 -15z" />
    <glyph glyph-name="Agrave" unicode="&#xc0;" 
d="M982 0h-912v1587h912v-1587zM927 55v1477h-802v-1477h802zM488 503l-35.001 0.000976562c-26 71.333 -39 125.666 -39 162.999c0 56.667 30.167 137.334 90.5 242.001s90.5 184.667 90.5 240c0 41.333 -12.167 74.333 -36.5 99s-58.166 37 -101.499 37
c-26.667 0 -50.334 -5.33301 -71.001 -16s-43 -26.334 -67 -47.001v50c32.667 29.333 64.334 50.166 95.001 62.499s61.667 18.5 93 18.5c66 0 120.167 -17.167 162.5 -51.5s63.5 -81.833 63.5 -142.5c0 -37.333 -9.16699 -75 -27.5 -113s-49.833 -84.333 -94.5 -139
c-46.667 -59.333 -83.167 -108.166 -109.5 -146.499s-39.5 -74.833 -39.5 -109.5c0 -28 8.66699 -77 26 -147zM474.999 236.001c-8 0 -15.333 3.66699 -22 11l-68 78c-4.66699 6.66699 -7 13.334 -7 20.001c0 7.33301 4 15.666 12 24.999l63 64c8 7.33301 15.333 11 22 11
c7.33301 0 15.333 -4 24 -12l62 -67c6.66699 -8 10 -15.333 10 -22c0 -8 -3.66699 -16 -11 -24l-62 -69c-10 -10 -17.667 -15 -23 -15z" />
    <glyph glyph-name="Aacute" unicode="&#xc1;" 
d="M982 0h-912v1587h912v-1587zM927 55v1477h-802v-1477h802zM488 503l-35.001 0.000976562c-26 71.333 -39 125.666 -39 162.999c0 56.667 30.167 137.334 90.5 242.001s90.5 184.667 90.5 240c0 41.333 -12.167 74.333 -36.5 99s-58.166 37 -101.499 37
c-26.667 0 -50.334 -5.33301 -71.001 -16s-43 -26.334 -67 -47.001v50c32.667 29.333 64.334 50.166 95.001 62.499s61.667 18.5 93 18.5c66 0 120.167 -17.167 162.5 -51.5s63.5 -81.833 63.5 -142.5c0 -37.333 -9.16699 -75 -27.5 -113s-49.833 -84.333 -94.5 -139
c-46.667 -59.333 -83.167 -108.166 -109.5 -146.499s-39.5 -74.833 -39.5 -109.5c0 -28 8.66699 -77 26 -147zM474.999 236.001c-8 0 -15.333 3.66699 -22 11l-68 78c-4.66699 6.66699 -7 13.334 -7 20.001c0 7.33301 4 15.666 12 24.999l63 64c8 7.33301 15.333 11 22 11
c7.33301 0 15.333 -4 24 -12l62 -67c6.66699 -8 10 -15.333 10 -22c0 -8 -3.66699 -16 -11 -24l-62 -69c-10 -10 -17.667 -15 -23 -15z" />
    <glyph glyph-name="Acircumflex" unicode="&#xc2;" 
d="M982 0h-912v1587h912v-1587zM927 55v1477h-802v-1477h802zM488 503l-35.001 0.000976562c-26 71.333 -39 125.666 -39 162.999c0 56.667 30.167 137.334 90.5 242.001s90.5 184.667 90.5 240c0 41.333 -12.167 74.333 -36.5 99s-58.166 37 -101.499 37
c-26.667 0 -50.334 -5.33301 -71.001 -16s-43 -26.334 -67 -47.001v50c32.667 29.333 64.334 50.166 95.001 62.499s61.667 18.5 93 18.5c66 0 120.167 -17.167 162.5 -51.5s63.5 -81.833 63.5 -142.5c0 -37.333 -9.16699 -75 -27.5 -113s-49.833 -84.333 -94.5 -139
c-46.667 -59.333 -83.167 -108.166 -109.5 -146.499s-39.5 -74.833 -39.5 -109.5c0 -28 8.66699 -77 26 -147zM474.999 236.001c-8 0 -15.333 3.66699 -22 11l-68 78c-4.66699 6.66699 -7 13.334 -7 20.001c0 7.33301 4 15.666 12 24.999l63 64c8 7.33301 15.333 11 22 11
c7.33301 0 15.333 -4 24 -12l62 -67c6.66699 -8 10 -15.333 10 -22c0 -8 -3.66699 -16 -11 -24l-62 -69c-10 -10 -17.667 -15 -23 -15z" />
    <glyph glyph-name="Atilde" unicode="&#xc3;" 
d="M982 0h-912v1587h912v-1587zM927 55v1477h-802v-1477h802zM488 503l-35.001 0.000976562c-26 71.333 -39 125.666 -39 162.999c0 56.667 30.167 137.334 90.5 242.001s90.5 184.667 90.5 240c0 41.333 -12.167 74.333 -36.5 99s-58.166 37 -101.499 37
c-26.667 0 -50.334 -5.33301 -71.001 -16s-43 -26.334 -67 -47.001v50c32.667 29.333 64.334 50.166 95.001 62.499s61.667 18.5 93 18.5c66 0 120.167 -17.167 162.5 -51.5s63.5 -81.833 63.5 -142.5c0 -37.333 -9.16699 -75 -27.5 -113s-49.833 -84.333 -94.5 -139
c-46.667 -59.333 -83.167 -108.166 -109.5 -146.499s-39.5 -74.833 -39.5 -109.5c0 -28 8.66699 -77 26 -147zM474.999 236.001c-8 0 -15.333 3.66699 -22 11l-68 78c-4.66699 6.66699 -7 13.334 -7 20.001c0 7.33301 4 15.666 12 24.999l63 64c8 7.33301 15.333 11 22 11
c7.33301 0 15.333 -4 24 -12l62 -67c6.66699 -8 10 -15.333 10 -22c0 -8 -3.66699 -16 -11 -24l-62 -69c-10 -10 -17.667 -15 -23 -15z" />
    <glyph glyph-name="Adieresis" unicode="&#xc4;" 
d="M982 0h-912v1587h912v-1587zM927 55v1477h-802v-1477h802zM488 503l-35.001 0.000976562c-26 71.333 -39 125.666 -39 162.999c0 56.667 30.167 137.334 90.5 242.001s90.5 184.667 90.5 240c0 41.333 -12.167 74.333 -36.5 99s-58.166 37 -101.499 37
c-26.667 0 -50.334 -5.33301 -71.001 -16s-43 -26.334 -67 -47.001v50c32.667 29.333 64.334 50.166 95.001 62.499s61.667 18.5 93 18.5c66 0 120.167 -17.167 162.5 -51.5s63.5 -81.833 63.5 -142.5c0 -37.333 -9.16699 -75 -27.5 -113s-49.833 -84.333 -94.5 -139
c-46.667 -59.333 -83.167 -108.166 -109.5 -146.499s-39.5 -74.833 -39.5 -109.5c0 -28 8.66699 -77 26 -147zM474.999 236.001c-8 0 -15.333 3.66699 -22 11l-68 78c-4.66699 6.66699 -7 13.334 -7 20.001c0 7.33301 4 15.666 12 24.999l63 64c8 7.33301 15.333 11 22 11
c7.33301 0 15.333 -4 24 -12l62 -67c6.66699 -8 10 -15.333 10 -22c0 -8 -3.66699 -16 -11 -24l-62 -69c-10 -10 -17.667 -15 -23 -15z" />
    <glyph glyph-name="Aring" unicode="&#xc5;" 
d="M982 0h-912v1587h912v-1587zM927 55v1477h-802v-1477h802zM488 503l-35.001 0.000976562c-26 71.333 -39 125.666 -39 162.999c0 56.667 30.167 137.334 90.5 242.001s90.5 184.667 90.5 240c0 41.333 -12.167 74.333 -36.5 99s-58.166 37 -101.499 37
c-26.667 0 -50.334 -5.33301 -71.001 -16s-43 -26.334 -67 -47.001v50c32.667 29.333 64.334 50.166 95.001 62.499s61.667 18.5 93 18.5c66 0 120.167 -17.167 162.5 -51.5s63.5 -81.833 63.5 -142.5c0 -37.333 -9.16699 -75 -27.5 -113s-49.833 -84.333 -94.5 -139
c-46.667 -59.333 -83.167 -108.166 -109.5 -146.499s-39.5 -74.833 -39.5 -109.5c0 -28 8.66699 -77 26 -147zM474.999 236.001c-8 0 -15.333 3.66699 -22 11l-68 78c-4.66699 6.66699 -7 13.334 -7 20.001c0 7.33301 4 15.666 12 24.999l63 64c8 7.33301 15.333 11 22 11
c7.33301 0 15.333 -4 24 -12l62 -67c6.66699 -8 10 -15.333 10 -22c0 -8 -3.66699 -16 -11 -24l-62 -69c-10 -10 -17.667 -15 -23 -15z" />
    <glyph glyph-name="AE" unicode="&#xc6;" 
d="M982 0h-912v1587h912v-1587zM927 55v1477h-802v-1477h802zM488 503l-35.001 0.000976562c-26 71.333 -39 125.666 -39 162.999c0 56.667 30.167 137.334 90.5 242.001s90.5 184.667 90.5 240c0 41.333 -12.167 74.333 -36.5 99s-58.166 37 -101.499 37
c-26.667 0 -50.334 -5.33301 -71.001 -16s-43 -26.334 -67 -47.001v50c32.667 29.333 64.334 50.166 95.001 62.499s61.667 18.5 93 18.5c66 0 120.167 -17.167 162.5 -51.5s63.5 -81.833 63.5 -142.5c0 -37.333 -9.16699 -75 -27.5 -113s-49.833 -84.333 -94.5 -139
c-46.667 -59.333 -83.167 -108.166 -109.5 -146.499s-39.5 -74.833 -39.5 -109.5c0 -28 8.66699 -77 26 -147zM474.999 236.001c-8 0 -15.333 3.66699 -22 11l-68 78c-4.66699 6.66699 -7 13.334 -7 20.001c0 7.33301 4 15.666 12 24.999l63 64c8 7.33301 15.333 11 22 11
c7.33301 0 15.333 -4 24 -12l62 -67c6.66699 -8 10 -15.333 10 -22c0 -8 -3.66699 -16 -11 -24l-62 -69c-10 -10 -17.667 -15 -23 -15z" />
    <glyph glyph-name="Ccedilla" unicode="&#xc7;" 
d="M982 0h-912v1587h912v-1587zM927 55v1477h-802v-1477h802zM488 503l-35.001 0.000976562c-26 71.333 -39 125.666 -39 162.999c0 56.667 30.167 137.334 90.5 242.001s90.5 184.667 90.5 240c0 41.333 -12.167 74.333 -36.5 99s-58.166 37 -101.499 37
c-26.667 0 -50.334 -5.33301 -71.001 -16s-43 -26.334 -67 -47.001v50c32.667 29.333 64.334 50.166 95.001 62.499s61.667 18.5 93 18.5c66 0 120.167 -17.167 162.5 -51.5s63.5 -81.833 63.5 -142.5c0 -37.333 -9.16699 -75 -27.5 -113s-49.833 -84.333 -94.5 -139
c-46.667 -59.333 -83.167 -108.166 -109.5 -146.499s-39.5 -74.833 -39.5 -109.5c0 -28 8.66699 -77 26 -147zM474.999 236.001c-8 0 -15.333 3.66699 -22 11l-68 78c-4.66699 6.66699 -7 13.334 -7 20.001c0 7.33301 4 15.666 12 24.999l63 64c8 7.33301 15.333 11 22 11
c7.33301 0 15.333 -4 24 -12l62 -67c6.66699 -8 10 -15.333 10 -22c0 -8 -3.66699 -16 -11 -24l-62 -69c-10 -10 -17.667 -15 -23 -15z" />
    <glyph glyph-name="Egrave" unicode="&#xc8;" 
d="M982 0h-912v1587h912v-1587zM927 55v1477h-802v-1477h802zM488 503l-35.001 0.000976562c-26 71.333 -39 125.666 -39 162.999c0 56.667 30.167 137.334 90.5 242.001s90.5 184.667 90.5 240c0 41.333 -12.167 74.333 -36.5 99s-58.166 37 -101.499 37
c-26.667 0 -50.334 -5.33301 -71.001 -16s-43 -26.334 -67 -47.001v50c32.667 29.333 64.334 50.166 95.001 62.499s61.667 18.5 93 18.5c66 0 120.167 -17.167 162.5 -51.5s63.5 -81.833 63.5 -142.5c0 -37.333 -9.16699 -75 -27.5 -113s-49.833 -84.333 -94.5 -139
c-46.667 -59.333 -83.167 -108.166 -109.5 -146.499s-39.5 -74.833 -39.5 -109.5c0 -28 8.66699 -77 26 -147zM474.999 236.001c-8 0 -15.333 3.66699 -22 11l-68 78c-4.66699 6.66699 -7 13.334 -7 20.001c0 7.33301 4 15.666 12 24.999l63 64c8 7.33301 15.333 11 22 11
c7.33301 0 15.333 -4 24 -12l62 -67c6.66699 -8 10 -15.333 10 -22c0 -8 -3.66699 -16 -11 -24l-62 -69c-10 -10 -17.667 -15 -23 -15z" />
    <glyph glyph-name="Eacute" unicode="&#xc9;" 
d="M982 0h-912v1587h912v-1587zM927 55v1477h-802v-1477h802zM488 503l-35.001 0.000976562c-26 71.333 -39 125.666 -39 162.999c0 56.667 30.167 137.334 90.5 242.001s90.5 184.667 90.5 240c0 41.333 -12.167 74.333 -36.5 99s-58.166 37 -101.499 37
c-26.667 0 -50.334 -5.33301 -71.001 -16s-43 -26.334 -67 -47.001v50c32.667 29.333 64.334 50.166 95.001 62.499s61.667 18.5 93 18.5c66 0 120.167 -17.167 162.5 -51.5s63.5 -81.833 63.5 -142.5c0 -37.333 -9.16699 -75 -27.5 -113s-49.833 -84.333 -94.5 -139
c-46.667 -59.333 -83.167 -108.166 -109.5 -146.499s-39.5 -74.833 -39.5 -109.5c0 -28 8.66699 -77 26 -147zM474.999 236.001c-8 0 -15.333 3.66699 -22 11l-68 78c-4.66699 6.66699 -7 13.334 -7 20.001c0 7.33301 4 15.666 12 24.999l63 64c8 7.33301 15.333 11 22 11
c7.33301 0 15.333 -4 24 -12l62 -67c6.66699 -8 10 -15.333 10 -22c0 -8 -3.66699 -16 -11 -24l-62 -69c-10 -10 -17.667 -15 -23 -15z" />
    <glyph glyph-name="Ecircumflex" unicode="&#xca;" 
d="M982 0h-912v1587h912v-1587zM927 55v1477h-802v-1477h802zM488 503l-35.001 0.000976562c-26 71.333 -39 125.666 -39 162.999c0 56.667 30.167 137.334 90.5 242.001s90.5 184.667 90.5 240c0 41.333 -12.167 74.333 -36.5 99s-58.166 37 -101.499 37
c-26.667 0 -50.334 -5.33301 -71.001 -16s-43 -26.334 -67 -47.001v50c32.667 29.333 64.334 50.166 95.001 62.499s61.667 18.5 93 18.5c66 0 120.167 -17.167 162.5 -51.5s63.5 -81.833 63.5 -142.5c0 -37.333 -9.16699 -75 -27.5 -113s-49.833 -84.333 -94.5 -139
c-46.667 -59.333 -83.167 -108.166 -109.5 -146.499s-39.5 -74.833 -39.5 -109.5c0 -28 8.66699 -77 26 -147zM474.999 236.001c-8 0 -15.333 3.66699 -22 11l-68 78c-4.66699 6.66699 -7 13.334 -7 20.001c0 7.33301 4 15.666 12 24.999l63 64c8 7.33301 15.333 11 22 11
c7.33301 0 15.333 -4 24 -12l62 -67c6.66699 -8 10 -15.333 10 -22c0 -8 -3.66699 -16 -11 -24l-62 -69c-10 -10 -17.667 -15 -23 -15z" />
    <glyph glyph-name="Edieresis" unicode="&#xcb;" 
d="M982 0h-912v1587h912v-1587zM927 55v1477h-802v-1477h802zM488 503l-35.001 0.000976562c-26 71.333 -39 125.666 -39 162.999c0 56.667 30.167 137.334 90.5 242.001s90.5 184.667 90.5 240c0 41.333 -12.167 74.333 -36.5 99s-58.166 37 -101.499 37
c-26.667 0 -50.334 -5.33301 -71.001 -16s-43 -26.334 -67 -47.001v50c32.667 29.333 64.334 50.166 95.001 62.499s61.667 18.5 93 18.5c66 0 120.167 -17.167 162.5 -51.5s63.5 -81.833 63.5 -142.5c0 -37.333 -9.16699 -75 -27.5 -113s-49.833 -84.333 -94.5 -139
c-46.667 -59.333 -83.167 -108.166 -109.5 -146.499s-39.5 -74.833 -39.5 -109.5c0 -28 8.66699 -77 26 -147zM474.999 236.001c-8 0 -15.333 3.66699 -22 11l-68 78c-4.66699 6.66699 -7 13.334 -7 20.001c0 7.33301 4 15.666 12 24.999l63 64c8 7.33301 15.333 11 22 11
c7.33301 0 15.333 -4 24 -12l62 -67c6.66699 -8 10 -15.333 10 -22c0 -8 -3.66699 -16 -11 -24l-62 -69c-10 -10 -17.667 -15 -23 -15z" />
    <glyph glyph-name="Igrave" unicode="&#xcc;" 
d="M982 0h-912v1587h912v-1587zM927 55v1477h-802v-1477h802zM488 503l-35.001 0.000976562c-26 71.333 -39 125.666 -39 162.999c0 56.667 30.167 137.334 90.5 242.001s90.5 184.667 90.5 240c0 41.333 -12.167 74.333 -36.5 99s-58.166 37 -101.499 37
c-26.667 0 -50.334 -5.33301 -71.001 -16s-43 -26.334 -67 -47.001v50c32.667 29.333 64.334 50.166 95.001 62.499s61.667 18.5 93 18.5c66 0 120.167 -17.167 162.5 -51.5s63.5 -81.833 63.5 -142.5c0 -37.333 -9.16699 -75 -27.5 -113s-49.833 -84.333 -94.5 -139
c-46.667 -59.333 -83.167 -108.166 -109.5 -146.499s-39.5 -74.833 -39.5 -109.5c0 -28 8.66699 -77 26 -147zM474.999 236.001c-8 0 -15.333 3.66699 -22 11l-68 78c-4.66699 6.66699 -7 13.334 -7 20.001c0 7.33301 4 15.666 12 24.999l63 64c8 7.33301 15.333 11 22 11
c7.33301 0 15.333 -4 24 -12l62 -67c6.66699 -8 10 -15.333 10 -22c0 -8 -3.66699 -16 -11 -24l-62 -69c-10 -10 -17.667 -15 -23 -15z" />
    <glyph glyph-name="Iacute" unicode="&#xcd;" 
d="M982 0h-912v1587h912v-1587zM927 55v1477h-802v-1477h802zM488 503l-35.001 0.000976562c-26 71.333 -39 125.666 -39 162.999c0 56.667 30.167 137.334 90.5 242.001s90.5 184.667 90.5 240c0 41.333 -12.167 74.333 -36.5 99s-58.166 37 -101.499 37
c-26.667 0 -50.334 -5.33301 -71.001 -16s-43 -26.334 -67 -47.001v50c32.667 29.333 64.334 50.166 95.001 62.499s61.667 18.5 93 18.5c66 0 120.167 -17.167 162.5 -51.5s63.5 -81.833 63.5 -142.5c0 -37.333 -9.16699 -75 -27.5 -113s-49.833 -84.333 -94.5 -139
c-46.667 -59.333 -83.167 -108.166 -109.5 -146.499s-39.5 -74.833 -39.5 -109.5c0 -28 8.66699 -77 26 -147zM474.999 236.001c-8 0 -15.333 3.66699 -22 11l-68 78c-4.66699 6.66699 -7 13.334 -7 20.001c0 7.33301 4 15.666 12 24.999l63 64c8 7.33301 15.333 11 22 11
c7.33301 0 15.333 -4 24 -12l62 -67c6.66699 -8 10 -15.333 10 -22c0 -8 -3.66699 -16 -11 -24l-62 -69c-10 -10 -17.667 -15 -23 -15z" />
    <glyph glyph-name="Icircumflex" unicode="&#xce;" 
d="M982 0h-912v1587h912v-1587zM927 55v1477h-802v-1477h802zM488 503l-35.001 0.000976562c-26 71.333 -39 125.666 -39 162.999c0 56.667 30.167 137.334 90.5 242.001s90.5 184.667 90.5 240c0 41.333 -12.167 74.333 -36.5 99s-58.166 37 -101.499 37
c-26.667 0 -50.334 -5.33301 -71.001 -16s-43 -26.334 -67 -47.001v50c32.667 29.333 64.334 50.166 95.001 62.499s61.667 18.5 93 18.5c66 0 120.167 -17.167 162.5 -51.5s63.5 -81.833 63.5 -142.5c0 -37.333 -9.16699 -75 -27.5 -113s-49.833 -84.333 -94.5 -139
c-46.667 -59.333 -83.167 -108.166 -109.5 -146.499s-39.5 -74.833 -39.5 -109.5c0 -28 8.66699 -77 26 -147zM474.999 236.001c-8 0 -15.333 3.66699 -22 11l-68 78c-4.66699 6.66699 -7 13.334 -7 20.001c0 7.33301 4 15.666 12 24.999l63 64c8 7.33301 15.333 11 22 11
c7.33301 0 15.333 -4 24 -12l62 -67c6.66699 -8 10 -15.333 10 -22c0 -8 -3.66699 -16 -11 -24l-62 -69c-10 -10 -17.667 -15 -23 -15z" />
    <glyph glyph-name="Idieresis" unicode="&#xcf;" 
d="M982 0h-912v1587h912v-1587zM927 55v1477h-802v-1477h802zM488 503l-35.001 0.000976562c-26 71.333 -39 125.666 -39 162.999c0 56.667 30.167 137.334 90.5 242.001s90.5 184.667 90.5 240c0 41.333 -12.167 74.333 -36.5 99s-58.166 37 -101.499 37
c-26.667 0 -50.334 -5.33301 -71.001 -16s-43 -26.334 -67 -47.001v50c32.667 29.333 64.334 50.166 95.001 62.499s61.667 18.5 93 18.5c66 0 120.167 -17.167 162.5 -51.5s63.5 -81.833 63.5 -142.5c0 -37.333 -9.16699 -75 -27.5 -113s-49.833 -84.333 -94.5 -139
c-46.667 -59.333 -83.167 -108.166 -109.5 -146.499s-39.5 -74.833 -39.5 -109.5c0 -28 8.66699 -77 26 -147zM474.999 236.001c-8 0 -15.333 3.66699 -22 11l-68 78c-4.66699 6.66699 -7 13.334 -7 20.001c0 7.33301 4 15.666 12 24.999l63 64c8 7.33301 15.333 11 22 11
c7.33301 0 15.333 -4 24 -12l62 -67c6.66699 -8 10 -15.333 10 -22c0 -8 -3.66699 -16 -11 -24l-62 -69c-10 -10 -17.667 -15 -23 -15z" />
    <glyph glyph-name="Ntilde" unicode="&#xd1;" 
d="M982 0h-912v1587h912v-1587zM927 55v1477h-802v-1477h802zM488 503l-35.001 0.000976562c-26 71.333 -39 125.666 -39 162.999c0 56.667 30.167 137.334 90.5 242.001s90.5 184.667 90.5 240c0 41.333 -12.167 74.333 -36.5 99s-58.166 37 -101.499 37
c-26.667 0 -50.334 -5.33301 -71.001 -16s-43 -26.334 -67 -47.001v50c32.667 29.333 64.334 50.166 95.001 62.499s61.667 18.5 93 18.5c66 0 120.167 -17.167 162.5 -51.5s63.5 -81.833 63.5 -142.5c0 -37.333 -9.16699 -75 -27.5 -113s-49.833 -84.333 -94.5 -139
c-46.667 -59.333 -83.167 -108.166 -109.5 -146.499s-39.5 -74.833 -39.5 -109.5c0 -28 8.66699 -77 26 -147zM474.999 236.001c-8 0 -15.333 3.66699 -22 11l-68 78c-4.66699 6.66699 -7 13.334 -7 20.001c0 7.33301 4 15.666 12 24.999l63 64c8 7.33301 15.333 11 22 11
c7.33301 0 15.333 -4 24 -12l62 -67c6.66699 -8 10 -15.333 10 -22c0 -8 -3.66699 -16 -11 -24l-62 -69c-10 -10 -17.667 -15 -23 -15z" />
    <glyph glyph-name="Ograve" unicode="&#xd2;" 
d="M982 0h-912v1587h912v-1587zM927 55v1477h-802v-1477h802zM488 503l-35.001 0.000976562c-26 71.333 -39 125.666 -39 162.999c0 56.667 30.167 137.334 90.5 242.001s90.5 184.667 90.5 240c0 41.333 -12.167 74.333 -36.5 99s-58.166 37 -101.499 37
c-26.667 0 -50.334 -5.33301 -71.001 -16s-43 -26.334 -67 -47.001v50c32.667 29.333 64.334 50.166 95.001 62.499s61.667 18.5 93 18.5c66 0 120.167 -17.167 162.5 -51.5s63.5 -81.833 63.5 -142.5c0 -37.333 -9.16699 -75 -27.5 -113s-49.833 -84.333 -94.5 -139
c-46.667 -59.333 -83.167 -108.166 -109.5 -146.499s-39.5 -74.833 -39.5 -109.5c0 -28 8.66699 -77 26 -147zM474.999 236.001c-8 0 -15.333 3.66699 -22 11l-68 78c-4.66699 6.66699 -7 13.334 -7 20.001c0 7.33301 4 15.666 12 24.999l63 64c8 7.33301 15.333 11 22 11
c7.33301 0 15.333 -4 24 -12l62 -67c6.66699 -8 10 -15.333 10 -22c0 -8 -3.66699 -16 -11 -24l-62 -69c-10 -10 -17.667 -15 -23 -15z" />
    <glyph glyph-name="Oacute" unicode="&#xd3;" 
d="M982 0h-912v1587h912v-1587zM927 55v1477h-802v-1477h802zM488 503l-35.001 0.000976562c-26 71.333 -39 125.666 -39 162.999c0 56.667 30.167 137.334 90.5 242.001s90.5 184.667 90.5 240c0 41.333 -12.167 74.333 -36.5 99s-58.166 37 -101.499 37
c-26.667 0 -50.334 -5.33301 -71.001 -16s-43 -26.334 -67 -47.001v50c32.667 29.333 64.334 50.166 95.001 62.499s61.667 18.5 93 18.5c66 0 120.167 -17.167 162.5 -51.5s63.5 -81.833 63.5 -142.5c0 -37.333 -9.16699 -75 -27.5 -113s-49.833 -84.333 -94.5 -139
c-46.667 -59.333 -83.167 -108.166 -109.5 -146.499s-39.5 -74.833 -39.5 -109.5c0 -28 8.66699 -77 26 -147zM474.999 236.001c-8 0 -15.333 3.66699 -22 11l-68 78c-4.66699 6.66699 -7 13.334 -7 20.001c0 7.33301 4 15.666 12 24.999l63 64c8 7.33301 15.333 11 22 11
c7.33301 0 15.333 -4 24 -12l62 -67c6.66699 -8 10 -15.333 10 -22c0 -8 -3.66699 -16 -11 -24l-62 -69c-10 -10 -17.667 -15 -23 -15z" />
    <glyph glyph-name="Ocircumflex" unicode="&#xd4;" 
d="M982 0h-912v1587h912v-1587zM927 55v1477h-802v-1477h802zM488 503l-35.001 0.000976562c-26 71.333 -39 125.666 -39 162.999c0 56.667 30.167 137.334 90.5 242.001s90.5 184.667 90.5 240c0 41.333 -12.167 74.333 -36.5 99s-58.166 37 -101.499 37
c-26.667 0 -50.334 -5.33301 -71.001 -16s-43 -26.334 -67 -47.001v50c32.667 29.333 64.334 50.166 95.001 62.499s61.667 18.5 93 18.5c66 0 120.167 -17.167 162.5 -51.5s63.5 -81.833 63.5 -142.5c0 -37.333 -9.16699 -75 -27.5 -113s-49.833 -84.333 -94.5 -139
c-46.667 -59.333 -83.167 -108.166 -109.5 -146.499s-39.5 -74.833 -39.5 -109.5c0 -28 8.66699 -77 26 -147zM474.999 236.001c-8 0 -15.333 3.66699 -22 11l-68 78c-4.66699 6.66699 -7 13.334 -7 20.001c0 7.33301 4 15.666 12 24.999l63 64c8 7.33301 15.333 11 22 11
c7.33301 0 15.333 -4 24 -12l62 -67c6.66699 -8 10 -15.333 10 -22c0 -8 -3.66699 -16 -11 -24l-62 -69c-10 -10 -17.667 -15 -23 -15z" />
    <glyph glyph-name="Otilde" unicode="&#xd5;" 
d="M982 0h-912v1587h912v-1587zM927 55v1477h-802v-1477h802zM488 503l-35.001 0.000976562c-26 71.333 -39 125.666 -39 162.999c0 56.667 30.167 137.334 90.5 242.001s90.5 184.667 90.5 240c0 41.333 -12.167 74.333 -36.5 99s-58.166 37 -101.499 37
c-26.667 0 -50.334 -5.33301 -71.001 -16s-43 -26.334 -67 -47.001v50c32.667 29.333 64.334 50.166 95.001 62.499s61.667 18.5 93 18.5c66 0 120.167 -17.167 162.5 -51.5s63.5 -81.833 63.5 -142.5c0 -37.333 -9.16699 -75 -27.5 -113s-49.833 -84.333 -94.5 -139
c-46.667 -59.333 -83.167 -108.166 -109.5 -146.499s-39.5 -74.833 -39.5 -109.5c0 -28 8.66699 -77 26 -147zM474.999 236.001c-8 0 -15.333 3.66699 -22 11l-68 78c-4.66699 6.66699 -7 13.334 -7 20.001c0 7.33301 4 15.666 12 24.999l63 64c8 7.33301 15.333 11 22 11
c7.33301 0 15.333 -4 24 -12l62 -67c6.66699 -8 10 -15.333 10 -22c0 -8 -3.66699 -16 -11 -24l-62 -69c-10 -10 -17.667 -15 -23 -15z" />
    <glyph glyph-name="Odieresis" unicode="&#xd6;" 
d="M982 0h-912v1587h912v-1587zM927 55v1477h-802v-1477h802zM488 503l-35.001 0.000976562c-26 71.333 -39 125.666 -39 162.999c0 56.667 30.167 137.334 90.5 242.001s90.5 184.667 90.5 240c0 41.333 -12.167 74.333 -36.5 99s-58.166 37 -101.499 37
c-26.667 0 -50.334 -5.33301 -71.001 -16s-43 -26.334 -67 -47.001v50c32.667 29.333 64.334 50.166 95.001 62.499s61.667 18.5 93 18.5c66 0 120.167 -17.167 162.5 -51.5s63.5 -81.833 63.5 -142.5c0 -37.333 -9.16699 -75 -27.5 -113s-49.833 -84.333 -94.5 -139
c-46.667 -59.333 -83.167 -108.166 -109.5 -146.499s-39.5 -74.833 -39.5 -109.5c0 -28 8.66699 -77 26 -147zM474.999 236.001c-8 0 -15.333 3.66699 -22 11l-68 78c-4.66699 6.66699 -7 13.334 -7 20.001c0 7.33301 4 15.666 12 24.999l63 64c8 7.33301 15.333 11 22 11
c7.33301 0 15.333 -4 24 -12l62 -67c6.66699 -8 10 -15.333 10 -22c0 -8 -3.66699 -16 -11 -24l-62 -69c-10 -10 -17.667 -15 -23 -15z" />
    <glyph glyph-name="multiply" unicode="&#xd7;" 
d="M982 0h-912v1587h912v-1587zM927 55v1477h-802v-1477h802zM488 503l-35.001 0.000976562c-26 71.333 -39 125.666 -39 162.999c0 56.667 30.167 137.334 90.5 242.001s90.5 184.667 90.5 240c0 41.333 -12.167 74.333 -36.5 99s-58.166 37 -101.499 37
c-26.667 0 -50.334 -5.33301 -71.001 -16s-43 -26.334 -67 -47.001v50c32.667 29.333 64.334 50.166 95.001 62.499s61.667 18.5 93 18.5c66 0 120.167 -17.167 162.5 -51.5s63.5 -81.833 63.5 -142.5c0 -37.333 -9.16699 -75 -27.5 -113s-49.833 -84.333 -94.5 -139
c-46.667 -59.333 -83.167 -108.166 -109.5 -146.499s-39.5 -74.833 -39.5 -109.5c0 -28 8.66699 -77 26 -147zM474.999 236.001c-8 0 -15.333 3.66699 -22 11l-68 78c-4.66699 6.66699 -7 13.334 -7 20.001c0 7.33301 4 15.666 12 24.999l63 64c8 7.33301 15.333 11 22 11
c7.33301 0 15.333 -4 24 -12l62 -67c6.66699 -8 10 -15.333 10 -22c0 -8 -3.66699 -16 -11 -24l-62 -69c-10 -10 -17.667 -15 -23 -15z" />
    <glyph glyph-name="Oslash" unicode="&#xd8;" 
d="M982 0h-912v1587h912v-1587zM927 55v1477h-802v-1477h802zM488 503l-35.001 0.000976562c-26 71.333 -39 125.666 -39 162.999c0 56.667 30.167 137.334 90.5 242.001s90.5 184.667 90.5 240c0 41.333 -12.167 74.333 -36.5 99s-58.166 37 -101.499 37
c-26.667 0 -50.334 -5.33301 -71.001 -16s-43 -26.334 -67 -47.001v50c32.667 29.333 64.334 50.166 95.001 62.499s61.667 18.5 93 18.5c66 0 120.167 -17.167 162.5 -51.5s63.5 -81.833 63.5 -142.5c0 -37.333 -9.16699 -75 -27.5 -113s-49.833 -84.333 -94.5 -139
c-46.667 -59.333 -83.167 -108.166 -109.5 -146.499s-39.5 -74.833 -39.5 -109.5c0 -28 8.66699 -77 26 -147zM474.999 236.001c-8 0 -15.333 3.66699 -22 11l-68 78c-4.66699 6.66699 -7 13.334 -7 20.001c0 7.33301 4 15.666 12 24.999l63 64c8 7.33301 15.333 11 22 11
c7.33301 0 15.333 -4 24 -12l62 -67c6.66699 -8 10 -15.333 10 -22c0 -8 -3.66699 -16 -11 -24l-62 -69c-10 -10 -17.667 -15 -23 -15z" />
    <glyph glyph-name="Ugrave" unicode="&#xd9;" 
d="M982 0h-912v1587h912v-1587zM927 55v1477h-802v-1477h802zM488 503l-35.001 0.000976562c-26 71.333 -39 125.666 -39 162.999c0 56.667 30.167 137.334 90.5 242.001s90.5 184.667 90.5 240c0 41.333 -12.167 74.333 -36.5 99s-58.166 37 -101.499 37
c-26.667 0 -50.334 -5.33301 -71.001 -16s-43 -26.334 -67 -47.001v50c32.667 29.333 64.334 50.166 95.001 62.499s61.667 18.5 93 18.5c66 0 120.167 -17.167 162.5 -51.5s63.5 -81.833 63.5 -142.5c0 -37.333 -9.16699 -75 -27.5 -113s-49.833 -84.333 -94.5 -139
c-46.667 -59.333 -83.167 -108.166 -109.5 -146.499s-39.5 -74.833 -39.5 -109.5c0 -28 8.66699 -77 26 -147zM474.999 236.001c-8 0 -15.333 3.66699 -22 11l-68 78c-4.66699 6.66699 -7 13.334 -7 20.001c0 7.33301 4 15.666 12 24.999l63 64c8 7.33301 15.333 11 22 11
c7.33301 0 15.333 -4 24 -12l62 -67c6.66699 -8 10 -15.333 10 -22c0 -8 -3.66699 -16 -11 -24l-62 -69c-10 -10 -17.667 -15 -23 -15z" />
    <glyph glyph-name="Uacute" unicode="&#xda;" 
d="M982 0h-912v1587h912v-1587zM927 55v1477h-802v-1477h802zM488 503l-35.001 0.000976562c-26 71.333 -39 125.666 -39 162.999c0 56.667 30.167 137.334 90.5 242.001s90.5 184.667 90.5 240c0 41.333 -12.167 74.333 -36.5 99s-58.166 37 -101.499 37
c-26.667 0 -50.334 -5.33301 -71.001 -16s-43 -26.334 -67 -47.001v50c32.667 29.333 64.334 50.166 95.001 62.499s61.667 18.5 93 18.5c66 0 120.167 -17.167 162.5 -51.5s63.5 -81.833 63.5 -142.5c0 -37.333 -9.16699 -75 -27.5 -113s-49.833 -84.333 -94.5 -139
c-46.667 -59.333 -83.167 -108.166 -109.5 -146.499s-39.5 -74.833 -39.5 -109.5c0 -28 8.66699 -77 26 -147zM474.999 236.001c-8 0 -15.333 3.66699 -22 11l-68 78c-4.66699 6.66699 -7 13.334 -7 20.001c0 7.33301 4 15.666 12 24.999l63 64c8 7.33301 15.333 11 22 11
c7.33301 0 15.333 -4 24 -12l62 -67c6.66699 -8 10 -15.333 10 -22c0 -8 -3.66699 -16 -11 -24l-62 -69c-10 -10 -17.667 -15 -23 -15z" />
    <glyph glyph-name="Ucircumflex" unicode="&#xdb;" 
d="M982 0h-912v1587h912v-1587zM927 55v1477h-802v-1477h802zM488 503l-35.001 0.000976562c-26 71.333 -39 125.666 -39 162.999c0 56.667 30.167 137.334 90.5 242.001s90.5 184.667 90.5 240c0 41.333 -12.167 74.333 -36.5 99s-58.166 37 -101.499 37
c-26.667 0 -50.334 -5.33301 -71.001 -16s-43 -26.334 -67 -47.001v50c32.667 29.333 64.334 50.166 95.001 62.499s61.667 18.5 93 18.5c66 0 120.167 -17.167 162.5 -51.5s63.5 -81.833 63.5 -142.5c0 -37.333 -9.16699 -75 -27.5 -113s-49.833 -84.333 -94.5 -139
c-46.667 -59.333 -83.167 -108.166 -109.5 -146.499s-39.5 -74.833 -39.5 -109.5c0 -28 8.66699 -77 26 -147zM474.999 236.001c-8 0 -15.333 3.66699 -22 11l-68 78c-4.66699 6.66699 -7 13.334 -7 20.001c0 7.33301 4 15.666 12 24.999l63 64c8 7.33301 15.333 11 22 11
c7.33301 0 15.333 -4 24 -12l62 -67c6.66699 -8 10 -15.333 10 -22c0 -8 -3.66699 -16 -11 -24l-62 -69c-10 -10 -17.667 -15 -23 -15z" />
    <glyph glyph-name="Udieresis" unicode="&#xdc;" 
d="M982 0h-912v1587h912v-1587zM927 55v1477h-802v-1477h802zM488 503l-35.001 0.000976562c-26 71.333 -39 125.666 -39 162.999c0 56.667 30.167 137.334 90.5 242.001s90.5 184.667 90.5 240c0 41.333 -12.167 74.333 -36.5 99s-58.166 37 -101.499 37
c-26.667 0 -50.334 -5.33301 -71.001 -16s-43 -26.334 -67 -47.001v50c32.667 29.333 64.334 50.166 95.001 62.499s61.667 18.5 93 18.5c66 0 120.167 -17.167 162.5 -51.5s63.5 -81.833 63.5 -142.5c0 -37.333 -9.16699 -75 -27.5 -113s-49.833 -84.333 -94.5 -139
c-46.667 -59.333 -83.167 -108.166 -109.5 -146.499s-39.5 -74.833 -39.5 -109.5c0 -28 8.66699 -77 26 -147zM474.999 236.001c-8 0 -15.333 3.66699 -22 11l-68 78c-4.66699 6.66699 -7 13.334 -7 20.001c0 7.33301 4 15.666 12 24.999l63 64c8 7.33301 15.333 11 22 11
c7.33301 0 15.333 -4 24 -12l62 -67c6.66699 -8 10 -15.333 10 -22c0 -8 -3.66699 -16 -11 -24l-62 -69c-10 -10 -17.667 -15 -23 -15z" />
    <glyph glyph-name="Yacute" unicode="&#xdd;" 
d="M982 0h-912v1587h912v-1587zM927 55v1477h-802v-1477h802zM488 503l-35.001 0.000976562c-26 71.333 -39 125.666 -39 162.999c0 56.667 30.167 137.334 90.5 242.001s90.5 184.667 90.5 240c0 41.333 -12.167 74.333 -36.5 99s-58.166 37 -101.499 37
c-26.667 0 -50.334 -5.33301 -71.001 -16s-43 -26.334 -67 -47.001v50c32.667 29.333 64.334 50.166 95.001 62.499s61.667 18.5 93 18.5c66 0 120.167 -17.167 162.5 -51.5s63.5 -81.833 63.5 -142.5c0 -37.333 -9.16699 -75 -27.5 -113s-49.833 -84.333 -94.5 -139
c-46.667 -59.333 -83.167 -108.166 -109.5 -146.499s-39.5 -74.833 -39.5 -109.5c0 -28 8.66699 -77 26 -147zM474.999 236.001c-8 0 -15.333 3.66699 -22 11l-68 78c-4.66699 6.66699 -7 13.334 -7 20.001c0 7.33301 4 15.666 12 24.999l63 64c8 7.33301 15.333 11 22 11
c7.33301 0 15.333 -4 24 -12l62 -67c6.66699 -8 10 -15.333 10 -22c0 -8 -3.66699 -16 -11 -24l-62 -69c-10 -10 -17.667 -15 -23 -15z" />
    <glyph glyph-name="Thorn" unicode="&#xde;" 
d="M982 0h-912v1587h912v-1587zM927 55v1477h-802v-1477h802zM488 503l-35.001 0.000976562c-26 71.333 -39 125.666 -39 162.999c0 56.667 30.167 137.334 90.5 242.001s90.5 184.667 90.5 240c0 41.333 -12.167 74.333 -36.5 99s-58.166 37 -101.499 37
c-26.667 0 -50.334 -5.33301 -71.001 -16s-43 -26.334 -67 -47.001v50c32.667 29.333 64.334 50.166 95.001 62.499s61.667 18.5 93 18.5c66 0 120.167 -17.167 162.5 -51.5s63.5 -81.833 63.5 -142.5c0 -37.333 -9.16699 -75 -27.5 -113s-49.833 -84.333 -94.5 -139
c-46.667 -59.333 -83.167 -108.166 -109.5 -146.499s-39.5 -74.833 -39.5 -109.5c0 -28 8.66699 -77 26 -147zM474.999 236.001c-8 0 -15.333 3.66699 -22 11l-68 78c-4.66699 6.66699 -7 13.334 -7 20.001c0 7.33301 4 15.666 12 24.999l63 64c8 7.33301 15.333 11 22 11
c7.33301 0 15.333 -4 24 -12l62 -67c6.66699 -8 10 -15.333 10 -22c0 -8 -3.66699 -16 -11 -24l-62 -69c-10 -10 -17.667 -15 -23 -15z" />
    <glyph glyph-name="germandbls" unicode="&#xdf;" 
d="M982 0h-912v1587h912v-1587zM927 55v1477h-802v-1477h802zM488 503l-35.001 0.000976562c-26 71.333 -39 125.666 -39 162.999c0 56.667 30.167 137.334 90.5 242.001s90.5 184.667 90.5 240c0 41.333 -12.167 74.333 -36.5 99s-58.166 37 -101.499 37
c-26.667 0 -50.334 -5.33301 -71.001 -16s-43 -26.334 -67 -47.001v50c32.667 29.333 64.334 50.166 95.001 62.499s61.667 18.5 93 18.5c66 0 120.167 -17.167 162.5 -51.5s63.5 -81.833 63.5 -142.5c0 -37.333 -9.16699 -75 -27.5 -113s-49.833 -84.333 -94.5 -139
c-46.667 -59.333 -83.167 -108.166 -109.5 -146.499s-39.5 -74.833 -39.5 -109.5c0 -28 8.66699 -77 26 -147zM474.999 236.001c-8 0 -15.333 3.66699 -22 11l-68 78c-4.66699 6.66699 -7 13.334 -7 20.001c0 7.33301 4 15.666 12 24.999l63 64c8 7.33301 15.333 11 22 11
c7.33301 0 15.333 -4 24 -12l62 -67c6.66699 -8 10 -15.333 10 -22c0 -8 -3.66699 -16 -11 -24l-62 -69c-10 -10 -17.667 -15 -23 -15z" />
    <glyph glyph-name="agrave" unicode="&#xe0;" 
d="M982 0h-912v1587h912v-1587zM927 55v1477h-802v-1477h802zM488 503l-35.001 0.000976562c-26 71.333 -39 125.666 -39 162.999c0 56.667 30.167 137.334 90.5 242.001s90.5 184.667 90.5 240c0 41.333 -12.167 74.333 -36.5 99s-58.166 37 -101.499 37
c-26.667 0 -50.334 -5.33301 -71.001 -16s-43 -26.334 -67 -47.001v50c32.667 29.333 64.334 50.166 95.001 62.499s61.667 18.5 93 18.5c66 0 120.167 -17.167 162.5 -51.5s63.5 -81.833 63.5 -142.5c0 -37.333 -9.16699 -75 -27.5 -113s-49.833 -84.333 -94.5 -139
c-46.667 -59.333 -83.167 -108.166 -109.5 -146.499s-39.5 -74.833 -39.5 -109.5c0 -28 8.66699 -77 26 -147zM474.999 236.001c-8 0 -15.333 3.66699 -22 11l-68 78c-4.66699 6.66699 -7 13.334 -7 20.001c0 7.33301 4 15.666 12 24.999l63 64c8 7.33301 15.333 11 22 11
c7.33301 0 15.333 -4 24 -12l62 -67c6.66699 -8 10 -15.333 10 -22c0 -8 -3.66699 -16 -11 -24l-62 -69c-10 -10 -17.667 -15 -23 -15z" />
    <glyph glyph-name="aacute" unicode="&#xe1;" 
d="M982 0h-912v1587h912v-1587zM927 55v1477h-802v-1477h802zM488 503l-35.001 0.000976562c-26 71.333 -39 125.666 -39 162.999c0 56.667 30.167 137.334 90.5 242.001s90.5 184.667 90.5 240c0 41.333 -12.167 74.333 -36.5 99s-58.166 37 -101.499 37
c-26.667 0 -50.334 -5.33301 -71.001 -16s-43 -26.334 -67 -47.001v50c32.667 29.333 64.334 50.166 95.001 62.499s61.667 18.5 93 18.5c66 0 120.167 -17.167 162.5 -51.5s63.5 -81.833 63.5 -142.5c0 -37.333 -9.16699 -75 -27.5 -113s-49.833 -84.333 -94.5 -139
c-46.667 -59.333 -83.167 -108.166 -109.5 -146.499s-39.5 -74.833 -39.5 -109.5c0 -28 8.66699 -77 26 -147zM474.999 236.001c-8 0 -15.333 3.66699 -22 11l-68 78c-4.66699 6.66699 -7 13.334 -7 20.001c0 7.33301 4 15.666 12 24.999l63 64c8 7.33301 15.333 11 22 11
c7.33301 0 15.333 -4 24 -12l62 -67c6.66699 -8 10 -15.333 10 -22c0 -8 -3.66699 -16 -11 -24l-62 -69c-10 -10 -17.667 -15 -23 -15z" />
    <glyph glyph-name="acircumflex" unicode="&#xe2;" 
d="M982 0h-912v1587h912v-1587zM927 55v1477h-802v-1477h802zM488 503l-35.001 0.000976562c-26 71.333 -39 125.666 -39 162.999c0 56.667 30.167 137.334 90.5 242.001s90.5 184.667 90.5 240c0 41.333 -12.167 74.333 -36.5 99s-58.166 37 -101.499 37
c-26.667 0 -50.334 -5.33301 -71.001 -16s-43 -26.334 -67 -47.001v50c32.667 29.333 64.334 50.166 95.001 62.499s61.667 18.5 93 18.5c66 0 120.167 -17.167 162.5 -51.5s63.5 -81.833 63.5 -142.5c0 -37.333 -9.16699 -75 -27.5 -113s-49.833 -84.333 -94.5 -139
c-46.667 -59.333 -83.167 -108.166 -109.5 -146.499s-39.5 -74.833 -39.5 -109.5c0 -28 8.66699 -77 26 -147zM474.999 236.001c-8 0 -15.333 3.66699 -22 11l-68 78c-4.66699 6.66699 -7 13.334 -7 20.001c0 7.33301 4 15.666 12 24.999l63 64c8 7.33301 15.333 11 22 11
c7.33301 0 15.333 -4 24 -12l62 -67c6.66699 -8 10 -15.333 10 -22c0 -8 -3.66699 -16 -11 -24l-62 -69c-10 -10 -17.667 -15 -23 -15z" />
    <glyph glyph-name="atilde" unicode="&#xe3;" 
d="M982 0h-912v1587h912v-1587zM927 55v1477h-802v-1477h802zM488 503l-35.001 0.000976562c-26 71.333 -39 125.666 -39 162.999c0 56.667 30.167 137.334 90.5 242.001s90.5 184.667 90.5 240c0 41.333 -12.167 74.333 -36.5 99s-58.166 37 -101.499 37
c-26.667 0 -50.334 -5.33301 -71.001 -16s-43 -26.334 -67 -47.001v50c32.667 29.333 64.334 50.166 95.001 62.499s61.667 18.5 93 18.5c66 0 120.167 -17.167 162.5 -51.5s63.5 -81.833 63.5 -142.5c0 -37.333 -9.16699 -75 -27.5 -113s-49.833 -84.333 -94.5 -139
c-46.667 -59.333 -83.167 -108.166 -109.5 -146.499s-39.5 -74.833 -39.5 -109.5c0 -28 8.66699 -77 26 -147zM474.999 236.001c-8 0 -15.333 3.66699 -22 11l-68 78c-4.66699 6.66699 -7 13.334 -7 20.001c0 7.33301 4 15.666 12 24.999l63 64c8 7.33301 15.333 11 22 11
c7.33301 0 15.333 -4 24 -12l62 -67c6.66699 -8 10 -15.333 10 -22c0 -8 -3.66699 -16 -11 -24l-62 -69c-10 -10 -17.667 -15 -23 -15z" />
    <glyph glyph-name="adieresis" unicode="&#xe4;" 
d="M982 0h-912v1587h912v-1587zM927 55v1477h-802v-1477h802zM488 503l-35.001 0.000976562c-26 71.333 -39 125.666 -39 162.999c0 56.667 30.167 137.334 90.5 242.001s90.5 184.667 90.5 240c0 41.333 -12.167 74.333 -36.5 99s-58.166 37 -101.499 37
c-26.667 0 -50.334 -5.33301 -71.001 -16s-43 -26.334 -67 -47.001v50c32.667 29.333 64.334 50.166 95.001 62.499s61.667 18.5 93 18.5c66 0 120.167 -17.167 162.5 -51.5s63.5 -81.833 63.5 -142.5c0 -37.333 -9.16699 -75 -27.5 -113s-49.833 -84.333 -94.5 -139
c-46.667 -59.333 -83.167 -108.166 -109.5 -146.499s-39.5 -74.833 -39.5 -109.5c0 -28 8.66699 -77 26 -147zM474.999 236.001c-8 0 -15.333 3.66699 -22 11l-68 78c-4.66699 6.66699 -7 13.334 -7 20.001c0 7.33301 4 15.666 12 24.999l63 64c8 7.33301 15.333 11 22 11
c7.33301 0 15.333 -4 24 -12l62 -67c6.66699 -8 10 -15.333 10 -22c0 -8 -3.66699 -16 -11 -24l-62 -69c-10 -10 -17.667 -15 -23 -15z" />
    <glyph glyph-name="aring" unicode="&#xe5;" 
d="M982 0h-912v1587h912v-1587zM927 55v1477h-802v-1477h802zM488 503l-35.001 0.000976562c-26 71.333 -39 125.666 -39 162.999c0 56.667 30.167 137.334 90.5 242.001s90.5 184.667 90.5 240c0 41.333 -12.167 74.333 -36.5 99s-58.166 37 -101.499 37
c-26.667 0 -50.334 -5.33301 -71.001 -16s-43 -26.334 -67 -47.001v50c32.667 29.333 64.334 50.166 95.001 62.499s61.667 18.5 93 18.5c66 0 120.167 -17.167 162.5 -51.5s63.5 -81.833 63.5 -142.5c0 -37.333 -9.16699 -75 -27.5 -113s-49.833 -84.333 -94.5 -139
c-46.667 -59.333 -83.167 -108.166 -109.5 -146.499s-39.5 -74.833 -39.5 -109.5c0 -28 8.66699 -77 26 -147zM474.999 236.001c-8 0 -15.333 3.66699 -22 11l-68 78c-4.66699 6.66699 -7 13.334 -7 20.001c0 7.33301 4 15.666 12 24.999l63 64c8 7.33301 15.333 11 22 11
c7.33301 0 15.333 -4 24 -12l62 -67c6.66699 -8 10 -15.333 10 -22c0 -8 -3.66699 -16 -11 -24l-62 -69c-10 -10 -17.667 -15 -23 -15z" />
    <glyph glyph-name="ae" unicode="&#xe6;" 
d="M982 0h-912v1587h912v-1587zM927 55v1477h-802v-1477h802zM488 503l-35.001 0.000976562c-26 71.333 -39 125.666 -39 162.999c0 56.667 30.167 137.334 90.5 242.001s90.5 184.667 90.5 240c0 41.333 -12.167 74.333 -36.5 99s-58.166 37 -101.499 37
c-26.667 0 -50.334 -5.33301 -71.001 -16s-43 -26.334 -67 -47.001v50c32.667 29.333 64.334 50.166 95.001 62.499s61.667 18.5 93 18.5c66 0 120.167 -17.167 162.5 -51.5s63.5 -81.833 63.5 -142.5c0 -37.333 -9.16699 -75 -27.5 -113s-49.833 -84.333 -94.5 -139
c-46.667 -59.333 -83.167 -108.166 -109.5 -146.499s-39.5 -74.833 -39.5 -109.5c0 -28 8.66699 -77 26 -147zM474.999 236.001c-8 0 -15.333 3.66699 -22 11l-68 78c-4.66699 6.66699 -7 13.334 -7 20.001c0 7.33301 4 15.666 12 24.999l63 64c8 7.33301 15.333 11 22 11
c7.33301 0 15.333 -4 24 -12l62 -67c6.66699 -8 10 -15.333 10 -22c0 -8 -3.66699 -16 -11 -24l-62 -69c-10 -10 -17.667 -15 -23 -15z" />
    <glyph glyph-name="ccedilla" unicode="&#xe7;" 
d="M982 0h-912v1587h912v-1587zM927 55v1477h-802v-1477h802zM488 503l-35.001 0.000976562c-26 71.333 -39 125.666 -39 162.999c0 56.667 30.167 137.334 90.5 242.001s90.5 184.667 90.5 240c0 41.333 -12.167 74.333 -36.5 99s-58.166 37 -101.499 37
c-26.667 0 -50.334 -5.33301 -71.001 -16s-43 -26.334 -67 -47.001v50c32.667 29.333 64.334 50.166 95.001 62.499s61.667 18.5 93 18.5c66 0 120.167 -17.167 162.5 -51.5s63.5 -81.833 63.5 -142.5c0 -37.333 -9.16699 -75 -27.5 -113s-49.833 -84.333 -94.5 -139
c-46.667 -59.333 -83.167 -108.166 -109.5 -146.499s-39.5 -74.833 -39.5 -109.5c0 -28 8.66699 -77 26 -147zM474.999 236.001c-8 0 -15.333 3.66699 -22 11l-68 78c-4.66699 6.66699 -7 13.334 -7 20.001c0 7.33301 4 15.666 12 24.999l63 64c8 7.33301 15.333 11 22 11
c7.33301 0 15.333 -4 24 -12l62 -67c6.66699 -8 10 -15.333 10 -22c0 -8 -3.66699 -16 -11 -24l-62 -69c-10 -10 -17.667 -15 -23 -15z" />
    <glyph glyph-name="egrave" unicode="&#xe8;" 
d="M982 0h-912v1587h912v-1587zM927 55v1477h-802v-1477h802zM488 503l-35.001 0.000976562c-26 71.333 -39 125.666 -39 162.999c0 56.667 30.167 137.334 90.5 242.001s90.5 184.667 90.5 240c0 41.333 -12.167 74.333 -36.5 99s-58.166 37 -101.499 37
c-26.667 0 -50.334 -5.33301 -71.001 -16s-43 -26.334 -67 -47.001v50c32.667 29.333 64.334 50.166 95.001 62.499s61.667 18.5 93 18.5c66 0 120.167 -17.167 162.5 -51.5s63.5 -81.833 63.5 -142.5c0 -37.333 -9.16699 -75 -27.5 -113s-49.833 -84.333 -94.5 -139
c-46.667 -59.333 -83.167 -108.166 -109.5 -146.499s-39.5 -74.833 -39.5 -109.5c0 -28 8.66699 -77 26 -147zM474.999 236.001c-8 0 -15.333 3.66699 -22 11l-68 78c-4.66699 6.66699 -7 13.334 -7 20.001c0 7.33301 4 15.666 12 24.999l63 64c8 7.33301 15.333 11 22 11
c7.33301 0 15.333 -4 24 -12l62 -67c6.66699 -8 10 -15.333 10 -22c0 -8 -3.66699 -16 -11 -24l-62 -69c-10 -10 -17.667 -15 -23 -15z" />
    <glyph glyph-name="eacute" unicode="&#xe9;" 
d="M982 0h-912v1587h912v-1587zM927 55v1477h-802v-1477h802zM488 503l-35.001 0.000976562c-26 71.333 -39 125.666 -39 162.999c0 56.667 30.167 137.334 90.5 242.001s90.5 184.667 90.5 240c0 41.333 -12.167 74.333 -36.5 99s-58.166 37 -101.499 37
c-26.667 0 -50.334 -5.33301 -71.001 -16s-43 -26.334 -67 -47.001v50c32.667 29.333 64.334 50.166 95.001 62.499s61.667 18.5 93 18.5c66 0 120.167 -17.167 162.5 -51.5s63.5 -81.833 63.5 -142.5c0 -37.333 -9.16699 -75 -27.5 -113s-49.833 -84.333 -94.5 -139
c-46.667 -59.333 -83.167 -108.166 -109.5 -146.499s-39.5 -74.833 -39.5 -109.5c0 -28 8.66699 -77 26 -147zM474.999 236.001c-8 0 -15.333 3.66699 -22 11l-68 78c-4.66699 6.66699 -7 13.334 -7 20.001c0 7.33301 4 15.666 12 24.999l63 64c8 7.33301 15.333 11 22 11
c7.33301 0 15.333 -4 24 -12l62 -67c6.66699 -8 10 -15.333 10 -22c0 -8 -3.66699 -16 -11 -24l-62 -69c-10 -10 -17.667 -15 -23 -15z" />
    <glyph glyph-name="ecircumflex" unicode="&#xea;" 
d="M982 0h-912v1587h912v-1587zM927 55v1477h-802v-1477h802zM488 503l-35.001 0.000976562c-26 71.333 -39 125.666 -39 162.999c0 56.667 30.167 137.334 90.5 242.001s90.5 184.667 90.5 240c0 41.333 -12.167 74.333 -36.5 99s-58.166 37 -101.499 37
c-26.667 0 -50.334 -5.33301 -71.001 -16s-43 -26.334 -67 -47.001v50c32.667 29.333 64.334 50.166 95.001 62.499s61.667 18.5 93 18.5c66 0 120.167 -17.167 162.5 -51.5s63.5 -81.833 63.5 -142.5c0 -37.333 -9.16699 -75 -27.5 -113s-49.833 -84.333 -94.5 -139
c-46.667 -59.333 -83.167 -108.166 -109.5 -146.499s-39.5 -74.833 -39.5 -109.5c0 -28 8.66699 -77 26 -147zM474.999 236.001c-8 0 -15.333 3.66699 -22 11l-68 78c-4.66699 6.66699 -7 13.334 -7 20.001c0 7.33301 4 15.666 12 24.999l63 64c8 7.33301 15.333 11 22 11
c7.33301 0 15.333 -4 24 -12l62 -67c6.66699 -8 10 -15.333 10 -22c0 -8 -3.66699 -16 -11 -24l-62 -69c-10 -10 -17.667 -15 -23 -15z" />
    <glyph glyph-name="edieresis" unicode="&#xeb;" 
d="M982 0h-912v1587h912v-1587zM927 55v1477h-802v-1477h802zM488 503l-35.001 0.000976562c-26 71.333 -39 125.666 -39 162.999c0 56.667 30.167 137.334 90.5 242.001s90.5 184.667 90.5 240c0 41.333 -12.167 74.333 -36.5 99s-58.166 37 -101.499 37
c-26.667 0 -50.334 -5.33301 -71.001 -16s-43 -26.334 -67 -47.001v50c32.667 29.333 64.334 50.166 95.001 62.499s61.667 18.5 93 18.5c66 0 120.167 -17.167 162.5 -51.5s63.5 -81.833 63.5 -142.5c0 -37.333 -9.16699 -75 -27.5 -113s-49.833 -84.333 -94.5 -139
c-46.667 -59.333 -83.167 -108.166 -109.5 -146.499s-39.5 -74.833 -39.5 -109.5c0 -28 8.66699 -77 26 -147zM474.999 236.001c-8 0 -15.333 3.66699 -22 11l-68 78c-4.66699 6.66699 -7 13.334 -7 20.001c0 7.33301 4 15.666 12 24.999l63 64c8 7.33301 15.333 11 22 11
c7.33301 0 15.333 -4 24 -12l62 -67c6.66699 -8 10 -15.333 10 -22c0 -8 -3.66699 -16 -11 -24l-62 -69c-10 -10 -17.667 -15 -23 -15z" />
    <glyph glyph-name="igrave" unicode="&#xec;" 
d="M982 0h-912v1587h912v-1587zM927 55v1477h-802v-1477h802zM488 503l-35.001 0.000976562c-26 71.333 -39 125.666 -39 162.999c0 56.667 30.167 137.334 90.5 242.001s90.5 184.667 90.5 240c0 41.333 -12.167 74.333 -36.5 99s-58.166 37 -101.499 37
c-26.667 0 -50.334 -5.33301 -71.001 -16s-43 -26.334 -67 -47.001v50c32.667 29.333 64.334 50.166 95.001 62.499s61.667 18.5 93 18.5c66 0 120.167 -17.167 162.5 -51.5s63.5 -81.833 63.5 -142.5c0 -37.333 -9.16699 -75 -27.5 -113s-49.833 -84.333 -94.5 -139
c-46.667 -59.333 -83.167 -108.166 -109.5 -146.499s-39.5 -74.833 -39.5 -109.5c0 -28 8.66699 -77 26 -147zM474.999 236.001c-8 0 -15.333 3.66699 -22 11l-68 78c-4.66699 6.66699 -7 13.334 -7 20.001c0 7.33301 4 15.666 12 24.999l63 64c8 7.33301 15.333 11 22 11
c7.33301 0 15.333 -4 24 -12l62 -67c6.66699 -8 10 -15.333 10 -22c0 -8 -3.66699 -16 -11 -24l-62 -69c-10 -10 -17.667 -15 -23 -15z" />
    <glyph glyph-name="iacute" unicode="&#xed;" 
d="M982 0h-912v1587h912v-1587zM927 55v1477h-802v-1477h802zM488 503l-35.001 0.000976562c-26 71.333 -39 125.666 -39 162.999c0 56.667 30.167 137.334 90.5 242.001s90.5 184.667 90.5 240c0 41.333 -12.167 74.333 -36.5 99s-58.166 37 -101.499 37
c-26.667 0 -50.334 -5.33301 -71.001 -16s-43 -26.334 -67 -47.001v50c32.667 29.333 64.334 50.166 95.001 62.499s61.667 18.5 93 18.5c66 0 120.167 -17.167 162.5 -51.5s63.5 -81.833 63.5 -142.5c0 -37.333 -9.16699 -75 -27.5 -113s-49.833 -84.333 -94.5 -139
c-46.667 -59.333 -83.167 -108.166 -109.5 -146.499s-39.5 -74.833 -39.5 -109.5c0 -28 8.66699 -77 26 -147zM474.999 236.001c-8 0 -15.333 3.66699 -22 11l-68 78c-4.66699 6.66699 -7 13.334 -7 20.001c0 7.33301 4 15.666 12 24.999l63 64c8 7.33301 15.333 11 22 11
c7.33301 0 15.333 -4 24 -12l62 -67c6.66699 -8 10 -15.333 10 -22c0 -8 -3.66699 -16 -11 -24l-62 -69c-10 -10 -17.667 -15 -23 -15z" />
    <glyph glyph-name="icircumflex" unicode="&#xee;" 
d="M982 0h-912v1587h912v-1587zM927 55v1477h-802v-1477h802zM488 503l-35.001 0.000976562c-26 71.333 -39 125.666 -39 162.999c0 56.667 30.167 137.334 90.5 242.001s90.5 184.667 90.5 240c0 41.333 -12.167 74.333 -36.5 99s-58.166 37 -101.499 37
c-26.667 0 -50.334 -5.33301 -71.001 -16s-43 -26.334 -67 -47.001v50c32.667 29.333 64.334 50.166 95.001 62.499s61.667 18.5 93 18.5c66 0 120.167 -17.167 162.5 -51.5s63.5 -81.833 63.5 -142.5c0 -37.333 -9.16699 -75 -27.5 -113s-49.833 -84.333 -94.5 -139
c-46.667 -59.333 -83.167 -108.166 -109.5 -146.499s-39.5 -74.833 -39.5 -109.5c0 -28 8.66699 -77 26 -147zM474.999 236.001c-8 0 -15.333 3.66699 -22 11l-68 78c-4.66699 6.66699 -7 13.334 -7 20.001c0 7.33301 4 15.666 12 24.999l63 64c8 7.33301 15.333 11 22 11
c7.33301 0 15.333 -4 24 -12l62 -67c6.66699 -8 10 -15.333 10 -22c0 -8 -3.66699 -16 -11 -24l-62 -69c-10 -10 -17.667 -15 -23 -15z" />
    <glyph glyph-name="idieresis" unicode="&#xef;" 
d="M982 0h-912v1587h912v-1587zM927 55v1477h-802v-1477h802zM488 503l-35.001 0.000976562c-26 71.333 -39 125.666 -39 162.999c0 56.667 30.167 137.334 90.5 242.001s90.5 184.667 90.5 240c0 41.333 -12.167 74.333 -36.5 99s-58.166 37 -101.499 37
c-26.667 0 -50.334 -5.33301 -71.001 -16s-43 -26.334 -67 -47.001v50c32.667 29.333 64.334 50.166 95.001 62.499s61.667 18.5 93 18.5c66 0 120.167 -17.167 162.5 -51.5s63.5 -81.833 63.5 -142.5c0 -37.333 -9.16699 -75 -27.5 -113s-49.833 -84.333 -94.5 -139
c-46.667 -59.333 -83.167 -108.166 -109.5 -146.499s-39.5 -74.833 -39.5 -109.5c0 -28 8.66699 -77 26 -147zM474.999 236.001c-8 0 -15.333 3.66699 -22 11l-68 78c-4.66699 6.66699 -7 13.334 -7 20.001c0 7.33301 4 15.666 12 24.999l63 64c8 7.33301 15.333 11 22 11
c7.33301 0 15.333 -4 24 -12l62 -67c6.66699 -8 10 -15.333 10 -22c0 -8 -3.66699 -16 -11 -24l-62 -69c-10 -10 -17.667 -15 -23 -15z" />
    <glyph glyph-name="ntilde" unicode="&#xf1;" 
d="M982 0h-912v1587h912v-1587zM927 55v1477h-802v-1477h802zM488 503l-35.001 0.000976562c-26 71.333 -39 125.666 -39 162.999c0 56.667 30.167 137.334 90.5 242.001s90.5 184.667 90.5 240c0 41.333 -12.167 74.333 -36.5 99s-58.166 37 -101.499 37
c-26.667 0 -50.334 -5.33301 -71.001 -16s-43 -26.334 -67 -47.001v50c32.667 29.333 64.334 50.166 95.001 62.499s61.667 18.5 93 18.5c66 0 120.167 -17.167 162.5 -51.5s63.5 -81.833 63.5 -142.5c0 -37.333 -9.16699 -75 -27.5 -113s-49.833 -84.333 -94.5 -139
c-46.667 -59.333 -83.167 -108.166 -109.5 -146.499s-39.5 -74.833 -39.5 -109.5c0 -28 8.66699 -77 26 -147zM474.999 236.001c-8 0 -15.333 3.66699 -22 11l-68 78c-4.66699 6.66699 -7 13.334 -7 20.001c0 7.33301 4 15.666 12 24.999l63 64c8 7.33301 15.333 11 22 11
c7.33301 0 15.333 -4 24 -12l62 -67c6.66699 -8 10 -15.333 10 -22c0 -8 -3.66699 -16 -11 -24l-62 -69c-10 -10 -17.667 -15 -23 -15z" />
    <glyph glyph-name="ograve" unicode="&#xf2;" 
d="M982 0h-912v1587h912v-1587zM927 55v1477h-802v-1477h802zM488 503l-35.001 0.000976562c-26 71.333 -39 125.666 -39 162.999c0 56.667 30.167 137.334 90.5 242.001s90.5 184.667 90.5 240c0 41.333 -12.167 74.333 -36.5 99s-58.166 37 -101.499 37
c-26.667 0 -50.334 -5.33301 -71.001 -16s-43 -26.334 -67 -47.001v50c32.667 29.333 64.334 50.166 95.001 62.499s61.667 18.5 93 18.5c66 0 120.167 -17.167 162.5 -51.5s63.5 -81.833 63.5 -142.5c0 -37.333 -9.16699 -75 -27.5 -113s-49.833 -84.333 -94.5 -139
c-46.667 -59.333 -83.167 -108.166 -109.5 -146.499s-39.5 -74.833 -39.5 -109.5c0 -28 8.66699 -77 26 -147zM474.999 236.001c-8 0 -15.333 3.66699 -22 11l-68 78c-4.66699 6.66699 -7 13.334 -7 20.001c0 7.33301 4 15.666 12 24.999l63 64c8 7.33301 15.333 11 22 11
c7.33301 0 15.333 -4 24 -12l62 -67c6.66699 -8 10 -15.333 10 -22c0 -8 -3.66699 -16 -11 -24l-62 -69c-10 -10 -17.667 -15 -23 -15z" />
    <glyph glyph-name="oacute" unicode="&#xf3;" 
d="M982 0h-912v1587h912v-1587zM927 55v1477h-802v-1477h802zM488 503l-35.001 0.000976562c-26 71.333 -39 125.666 -39 162.999c0 56.667 30.167 137.334 90.5 242.001s90.5 184.667 90.5 240c0 41.333 -12.167 74.333 -36.5 99s-58.166 37 -101.499 37
c-26.667 0 -50.334 -5.33301 -71.001 -16s-43 -26.334 -67 -47.001v50c32.667 29.333 64.334 50.166 95.001 62.499s61.667 18.5 93 18.5c66 0 120.167 -17.167 162.5 -51.5s63.5 -81.833 63.5 -142.5c0 -37.333 -9.16699 -75 -27.5 -113s-49.833 -84.333 -94.5 -139
c-46.667 -59.333 -83.167 -108.166 -109.5 -146.499s-39.5 -74.833 -39.5 -109.5c0 -28 8.66699 -77 26 -147zM474.999 236.001c-8 0 -15.333 3.66699 -22 11l-68 78c-4.66699 6.66699 -7 13.334 -7 20.001c0 7.33301 4 15.666 12 24.999l63 64c8 7.33301 15.333 11 22 11
c7.33301 0 15.333 -4 24 -12l62 -67c6.66699 -8 10 -15.333 10 -22c0 -8 -3.66699 -16 -11 -24l-62 -69c-10 -10 -17.667 -15 -23 -15z" />
    <glyph glyph-name="ocircumflex" unicode="&#xf4;" 
d="M982 0h-912v1587h912v-1587zM927 55v1477h-802v-1477h802zM488 503l-35.001 0.000976562c-26 71.333 -39 125.666 -39 162.999c0 56.667 30.167 137.334 90.5 242.001s90.5 184.667 90.5 240c0 41.333 -12.167 74.333 -36.5 99s-58.166 37 -101.499 37
c-26.667 0 -50.334 -5.33301 -71.001 -16s-43 -26.334 -67 -47.001v50c32.667 29.333 64.334 50.166 95.001 62.499s61.667 18.5 93 18.5c66 0 120.167 -17.167 162.5 -51.5s63.5 -81.833 63.5 -142.5c0 -37.333 -9.16699 -75 -27.5 -113s-49.833 -84.333 -94.5 -139
c-46.667 -59.333 -83.167 -108.166 -109.5 -146.499s-39.5 -74.833 -39.5 -109.5c0 -28 8.66699 -77 26 -147zM474.999 236.001c-8 0 -15.333 3.66699 -22 11l-68 78c-4.66699 6.66699 -7 13.334 -7 20.001c0 7.33301 4 15.666 12 24.999l63 64c8 7.33301 15.333 11 22 11
c7.33301 0 15.333 -4 24 -12l62 -67c6.66699 -8 10 -15.333 10 -22c0 -8 -3.66699 -16 -11 -24l-62 -69c-10 -10 -17.667 -15 -23 -15z" />
    <glyph glyph-name="otilde" unicode="&#xf5;" 
d="M982 0h-912v1587h912v-1587zM927 55v1477h-802v-1477h802zM488 503l-35.001 0.000976562c-26 71.333 -39 125.666 -39 162.999c0 56.667 30.167 137.334 90.5 242.001s90.5 184.667 90.5 240c0 41.333 -12.167 74.333 -36.5 99s-58.166 37 -101.499 37
c-26.667 0 -50.334 -5.33301 -71.001 -16s-43 -26.334 -67 -47.001v50c32.667 29.333 64.334 50.166 95.001 62.499s61.667 18.5 93 18.5c66 0 120.167 -17.167 162.5 -51.5s63.5 -81.833 63.5 -142.5c0 -37.333 -9.16699 -75 -27.5 -113s-49.833 -84.333 -94.5 -139
c-46.667 -59.333 -83.167 -108.166 -109.5 -146.499s-39.5 -74.833 -39.5 -109.5c0 -28 8.66699 -77 26 -147zM474.999 236.001c-8 0 -15.333 3.66699 -22 11l-68 78c-4.66699 6.66699 -7 13.334 -7 20.001c0 7.33301 4 15.666 12 24.999l63 64c8 7.33301 15.333 11 22 11
c7.33301 0 15.333 -4 24 -12l62 -67c6.66699 -8 10 -15.333 10 -22c0 -8 -3.66699 -16 -11 -24l-62 -69c-10 -10 -17.667 -15 -23 -15z" />
    <glyph glyph-name="odieresis" unicode="&#xf6;" 
d="M982 0h-912v1587h912v-1587zM927 55v1477h-802v-1477h802zM488 503l-35.001 0.000976562c-26 71.333 -39 125.666 -39 162.999c0 56.667 30.167 137.334 90.5 242.001s90.5 184.667 90.5 240c0 41.333 -12.167 74.333 -36.5 99s-58.166 37 -101.499 37
c-26.667 0 -50.334 -5.33301 -71.001 -16s-43 -26.334 -67 -47.001v50c32.667 29.333 64.334 50.166 95.001 62.499s61.667 18.5 93 18.5c66 0 120.167 -17.167 162.5 -51.5s63.5 -81.833 63.5 -142.5c0 -37.333 -9.16699 -75 -27.5 -113s-49.833 -84.333 -94.5 -139
c-46.667 -59.333 -83.167 -108.166 -109.5 -146.499s-39.5 -74.833 -39.5 -109.5c0 -28 8.66699 -77 26 -147zM474.999 236.001c-8 0 -15.333 3.66699 -22 11l-68 78c-4.66699 6.66699 -7 13.334 -7 20.001c0 7.33301 4 15.666 12 24.999l63 64c8 7.33301 15.333 11 22 11
c7.33301 0 15.333 -4 24 -12l62 -67c6.66699 -8 10 -15.333 10 -22c0 -8 -3.66699 -16 -11 -24l-62 -69c-10 -10 -17.667 -15 -23 -15z" />
    <glyph glyph-name="divide" unicode="&#xf7;" 
d="M982 0h-912v1587h912v-1587zM927 55v1477h-802v-1477h802zM488 503l-35.001 0.000976562c-26 71.333 -39 125.666 -39 162.999c0 56.667 30.167 137.334 90.5 242.001s90.5 184.667 90.5 240c0 41.333 -12.167 74.333 -36.5 99s-58.166 37 -101.499 37
c-26.667 0 -50.334 -5.33301 -71.001 -16s-43 -26.334 -67 -47.001v50c32.667 29.333 64.334 50.166 95.001 62.499s61.667 18.5 93 18.5c66 0 120.167 -17.167 162.5 -51.5s63.5 -81.833 63.5 -142.5c0 -37.333 -9.16699 -75 -27.5 -113s-49.833 -84.333 -94.5 -139
c-46.667 -59.333 -83.167 -108.166 -109.5 -146.499s-39.5 -74.833 -39.5 -109.5c0 -28 8.66699 -77 26 -147zM474.999 236.001c-8 0 -15.333 3.66699 -22 11l-68 78c-4.66699 6.66699 -7 13.334 -7 20.001c0 7.33301 4 15.666 12 24.999l63 64c8 7.33301 15.333 11 22 11
c7.33301 0 15.333 -4 24 -12l62 -67c6.66699 -8 10 -15.333 10 -22c0 -8 -3.66699 -16 -11 -24l-62 -69c-10 -10 -17.667 -15 -23 -15z" />
    <glyph glyph-name="oslash" unicode="&#xf8;" 
d="M982 0h-912v1587h912v-1587zM927 55v1477h-802v-1477h802zM488 503l-35.001 0.000976562c-26 71.333 -39 125.666 -39 162.999c0 56.667 30.167 137.334 90.5 242.001s90.5 184.667 90.5 240c0 41.333 -12.167 74.333 -36.5 99s-58.166 37 -101.499 37
c-26.667 0 -50.334 -5.33301 -71.001 -16s-43 -26.334 -67 -47.001v50c32.667 29.333 64.334 50.166 95.001 62.499s61.667 18.5 93 18.5c66 0 120.167 -17.167 162.5 -51.5s63.5 -81.833 63.5 -142.5c0 -37.333 -9.16699 -75 -27.5 -113s-49.833 -84.333 -94.5 -139
c-46.667 -59.333 -83.167 -108.166 -109.5 -146.499s-39.5 -74.833 -39.5 -109.5c0 -28 8.66699 -77 26 -147zM474.999 236.001c-8 0 -15.333 3.66699 -22 11l-68 78c-4.66699 6.66699 -7 13.334 -7 20.001c0 7.33301 4 15.666 12 24.999l63 64c8 7.33301 15.333 11 22 11
c7.33301 0 15.333 -4 24 -12l62 -67c6.66699 -8 10 -15.333 10 -22c0 -8 -3.66699 -16 -11 -24l-62 -69c-10 -10 -17.667 -15 -23 -15z" />
    <glyph glyph-name="ugrave" unicode="&#xf9;" 
d="M982 0h-912v1587h912v-1587zM927 55v1477h-802v-1477h802zM488 503l-35.001 0.000976562c-26 71.333 -39 125.666 -39 162.999c0 56.667 30.167 137.334 90.5 242.001s90.5 184.667 90.5 240c0 41.333 -12.167 74.333 -36.5 99s-58.166 37 -101.499 37
c-26.667 0 -50.334 -5.33301 -71.001 -16s-43 -26.334 -67 -47.001v50c32.667 29.333 64.334 50.166 95.001 62.499s61.667 18.5 93 18.5c66 0 120.167 -17.167 162.5 -51.5s63.5 -81.833 63.5 -142.5c0 -37.333 -9.16699 -75 -27.5 -113s-49.833 -84.333 -94.5 -139
c-46.667 -59.333 -83.167 -108.166 -109.5 -146.499s-39.5 -74.833 -39.5 -109.5c0 -28 8.66699 -77 26 -147zM474.999 236.001c-8 0 -15.333 3.66699 -22 11l-68 78c-4.66699 6.66699 -7 13.334 -7 20.001c0 7.33301 4 15.666 12 24.999l63 64c8 7.33301 15.333 11 22 11
c7.33301 0 15.333 -4 24 -12l62 -67c6.66699 -8 10 -15.333 10 -22c0 -8 -3.66699 -16 -11 -24l-62 -69c-10 -10 -17.667 -15 -23 -15z" />
    <glyph glyph-name="uacute" unicode="&#xfa;" 
d="M982 0h-912v1587h912v-1587zM927 55v1477h-802v-1477h802zM488 503l-35.001 0.000976562c-26 71.333 -39 125.666 -39 162.999c0 56.667 30.167 137.334 90.5 242.001s90.5 184.667 90.5 240c0 41.333 -12.167 74.333 -36.5 99s-58.166 37 -101.499 37
c-26.667 0 -50.334 -5.33301 -71.001 -16s-43 -26.334 -67 -47.001v50c32.667 29.333 64.334 50.166 95.001 62.499s61.667 18.5 93 18.5c66 0 120.167 -17.167 162.5 -51.5s63.5 -81.833 63.5 -142.5c0 -37.333 -9.16699 -75 -27.5 -113s-49.833 -84.333 -94.5 -139
c-46.667 -59.333 -83.167 -108.166 -109.5 -146.499s-39.5 -74.833 -39.5 -109.5c0 -28 8.66699 -77 26 -147zM474.999 236.001c-8 0 -15.333 3.66699 -22 11l-68 78c-4.66699 6.66699 -7 13.334 -7 20.001c0 7.33301 4 15.666 12 24.999l63 64c8 7.33301 15.333 11 22 11
c7.33301 0 15.333 -4 24 -12l62 -67c6.66699 -8 10 -15.333 10 -22c0 -8 -3.66699 -16 -11 -24l-62 -69c-10 -10 -17.667 -15 -23 -15z" />
    <glyph glyph-name="ucircumflex" unicode="&#xfb;" 
d="M982 0h-912v1587h912v-1587zM927 55v1477h-802v-1477h802zM488 503l-35.001 0.000976562c-26 71.333 -39 125.666 -39 162.999c0 56.667 30.167 137.334 90.5 242.001s90.5 184.667 90.5 240c0 41.333 -12.167 74.333 -36.5 99s-58.166 37 -101.499 37
c-26.667 0 -50.334 -5.33301 -71.001 -16s-43 -26.334 -67 -47.001v50c32.667 29.333 64.334 50.166 95.001 62.499s61.667 18.5 93 18.5c66 0 120.167 -17.167 162.5 -51.5s63.5 -81.833 63.5 -142.5c0 -37.333 -9.16699 -75 -27.5 -113s-49.833 -84.333 -94.5 -139
c-46.667 -59.333 -83.167 -108.166 -109.5 -146.499s-39.5 -74.833 -39.5 -109.5c0 -28 8.66699 -77 26 -147zM474.999 236.001c-8 0 -15.333 3.66699 -22 11l-68 78c-4.66699 6.66699 -7 13.334 -7 20.001c0 7.33301 4 15.666 12 24.999l63 64c8 7.33301 15.333 11 22 11
c7.33301 0 15.333 -4 24 -12l62 -67c6.66699 -8 10 -15.333 10 -22c0 -8 -3.66699 -16 -11 -24l-62 -69c-10 -10 -17.667 -15 -23 -15z" />
    <glyph glyph-name="udieresis" unicode="&#xfc;" 
d="M982 0h-912v1587h912v-1587zM927 55v1477h-802v-1477h802zM488 503l-35.001 0.000976562c-26 71.333 -39 125.666 -39 162.999c0 56.667 30.167 137.334 90.5 242.001s90.5 184.667 90.5 240c0 41.333 -12.167 74.333 -36.5 99s-58.166 37 -101.499 37
c-26.667 0 -50.334 -5.33301 -71.001 -16s-43 -26.334 -67 -47.001v50c32.667 29.333 64.334 50.166 95.001 62.499s61.667 18.5 93 18.5c66 0 120.167 -17.167 162.5 -51.5s63.5 -81.833 63.5 -142.5c0 -37.333 -9.16699 -75 -27.5 -113s-49.833 -84.333 -94.5 -139
c-46.667 -59.333 -83.167 -108.166 -109.5 -146.499s-39.5 -74.833 -39.5 -109.5c0 -28 8.66699 -77 26 -147zM474.999 236.001c-8 0 -15.333 3.66699 -22 11l-68 78c-4.66699 6.66699 -7 13.334 -7 20.001c0 7.33301 4 15.666 12 24.999l63 64c8 7.33301 15.333 11 22 11
c7.33301 0 15.333 -4 24 -12l62 -67c6.66699 -8 10 -15.333 10 -22c0 -8 -3.66699 -16 -11 -24l-62 -69c-10 -10 -17.667 -15 -23 -15z" />
    <glyph glyph-name="yacute" unicode="&#xfd;" 
d="M982 0h-912v1587h912v-1587zM927 55v1477h-802v-1477h802zM488 503l-35.001 0.000976562c-26 71.333 -39 125.666 -39 162.999c0 56.667 30.167 137.334 90.5 242.001s90.5 184.667 90.5 240c0 41.333 -12.167 74.333 -36.5 99s-58.166 37 -101.499 37
c-26.667 0 -50.334 -5.33301 -71.001 -16s-43 -26.334 -67 -47.001v50c32.667 29.333 64.334 50.166 95.001 62.499s61.667 18.5 93 18.5c66 0 120.167 -17.167 162.5 -51.5s63.5 -81.833 63.5 -142.5c0 -37.333 -9.16699 -75 -27.5 -113s-49.833 -84.333 -94.5 -139
c-46.667 -59.333 -83.167 -108.166 -109.5 -146.499s-39.5 -74.833 -39.5 -109.5c0 -28 8.66699 -77 26 -147zM474.999 236.001c-8 0 -15.333 3.66699 -22 11l-68 78c-4.66699 6.66699 -7 13.334 -7 20.001c0 7.33301 4 15.666 12 24.999l63 64c8 7.33301 15.333 11 22 11
c7.33301 0 15.333 -4 24 -12l62 -67c6.66699 -8 10 -15.333 10 -22c0 -8 -3.66699 -16 -11 -24l-62 -69c-10 -10 -17.667 -15 -23 -15z" />
    <glyph glyph-name="thorn" unicode="&#xfe;" 
d="M982 0h-912v1587h912v-1587zM927 55v1477h-802v-1477h802zM488 503l-35.001 0.000976562c-26 71.333 -39 125.666 -39 162.999c0 56.667 30.167 137.334 90.5 242.001s90.5 184.667 90.5 240c0 41.333 -12.167 74.333 -36.5 99s-58.166 37 -101.499 37
c-26.667 0 -50.334 -5.33301 -71.001 -16s-43 -26.334 -67 -47.001v50c32.667 29.333 64.334 50.166 95.001 62.499s61.667 18.5 93 18.5c66 0 120.167 -17.167 162.5 -51.5s63.5 -81.833 63.5 -142.5c0 -37.333 -9.16699 -75 -27.5 -113s-49.833 -84.333 -94.5 -139
c-46.667 -59.333 -83.167 -108.166 -109.5 -146.499s-39.5 -74.833 -39.5 -109.5c0 -28 8.66699 -77 26 -147zM474.999 236.001c-8 0 -15.333 3.66699 -22 11l-68 78c-4.66699 6.66699 -7 13.334 -7 20.001c0 7.33301 4 15.666 12 24.999l63 64c8 7.33301 15.333 11 22 11
c7.33301 0 15.333 -4 24 -12l62 -67c6.66699 -8 10 -15.333 10 -22c0 -8 -3.66699 -16 -11 -24l-62 -69c-10 -10 -17.667 -15 -23 -15z" />
    <glyph glyph-name="ydieresis" unicode="&#xff;" 
d="M982 0h-912v1587h912v-1587zM927 55v1477h-802v-1477h802zM488 503l-35.001 0.000976562c-26 71.333 -39 125.666 -39 162.999c0 56.667 30.167 137.334 90.5 242.001s90.5 184.667 90.5 240c0 41.333 -12.167 74.333 -36.5 99s-58.166 37 -101.499 37
c-26.667 0 -50.334 -5.33301 -71.001 -16s-43 -26.334 -67 -47.001v50c32.667 29.333 64.334 50.166 95.001 62.499s61.667 18.5 93 18.5c66 0 120.167 -17.167 162.5 -51.5s63.5 -81.833 63.5 -142.5c0 -37.333 -9.16699 -75 -27.5 -113s-49.833 -84.333 -94.5 -139
c-46.667 -59.333 -83.167 -108.166 -109.5 -146.499s-39.5 -74.833 -39.5 -109.5c0 -28 8.66699 -77 26 -147zM474.999 236.001c-8 0 -15.333 3.66699 -22 11l-68 78c-4.66699 6.66699 -7 13.334 -7 20.001c0 7.33301 4 15.666 12 24.999l63 64c8 7.33301 15.333 11 22 11
c7.33301 0 15.333 -4 24 -12l62 -67c6.66699 -8 10 -15.333 10 -22c0 -8 -3.66699 -16 -11 -24l-62 -69c-10 -10 -17.667 -15 -23 -15z" />
    <glyph glyph-name="Amacron" unicode="&#x100;" 
d="M982 0h-912v1587h912v-1587zM927 55v1477h-802v-1477h802zM488 503l-35.001 0.000976562c-26 71.333 -39 125.666 -39 162.999c0 56.667 30.167 137.334 90.5 242.001s90.5 184.667 90.5 240c0 41.333 -12.167 74.333 -36.5 99s-58.166 37 -101.499 37
c-26.667 0 -50.334 -5.33301 -71.001 -16s-43 -26.334 -67 -47.001v50c32.667 29.333 64.334 50.166 95.001 62.499s61.667 18.5 93 18.5c66 0 120.167 -17.167 162.5 -51.5s63.5 -81.833 63.5 -142.5c0 -37.333 -9.16699 -75 -27.5 -113s-49.833 -84.333 -94.5 -139
c-46.667 -59.333 -83.167 -108.166 -109.5 -146.499s-39.5 -74.833 -39.5 -109.5c0 -28 8.66699 -77 26 -147zM474.999 236.001c-8 0 -15.333 3.66699 -22 11l-68 78c-4.66699 6.66699 -7 13.334 -7 20.001c0 7.33301 4 15.666 12 24.999l63 64c8 7.33301 15.333 11 22 11
c7.33301 0 15.333 -4 24 -12l62 -67c6.66699 -8 10 -15.333 10 -22c0 -8 -3.66699 -16 -11 -24l-62 -69c-10 -10 -17.667 -15 -23 -15z" />
    <glyph glyph-name="amacron" unicode="&#x101;" 
d="M982 0h-912v1587h912v-1587zM927 55v1477h-802v-1477h802zM488 503l-35.001 0.000976562c-26 71.333 -39 125.666 -39 162.999c0 56.667 30.167 137.334 90.5 242.001s90.5 184.667 90.5 240c0 41.333 -12.167 74.333 -36.5 99s-58.166 37 -101.499 37
c-26.667 0 -50.334 -5.33301 -71.001 -16s-43 -26.334 -67 -47.001v50c32.667 29.333 64.334 50.166 95.001 62.499s61.667 18.5 93 18.5c66 0 120.167 -17.167 162.5 -51.5s63.5 -81.833 63.5 -142.5c0 -37.333 -9.16699 -75 -27.5 -113s-49.833 -84.333 -94.5 -139
c-46.667 -59.333 -83.167 -108.166 -109.5 -146.499s-39.5 -74.833 -39.5 -109.5c0 -28 8.66699 -77 26 -147zM474.999 236.001c-8 0 -15.333 3.66699 -22 11l-68 78c-4.66699 6.66699 -7 13.334 -7 20.001c0 7.33301 4 15.666 12 24.999l63 64c8 7.33301 15.333 11 22 11
c7.33301 0 15.333 -4 24 -12l62 -67c6.66699 -8 10 -15.333 10 -22c0 -8 -3.66699 -16 -11 -24l-62 -69c-10 -10 -17.667 -15 -23 -15z" />
    <glyph glyph-name="Emacron" unicode="&#x112;" 
d="M982 0h-912v1587h912v-1587zM927 55v1477h-802v-1477h802zM488 503l-35.001 0.000976562c-26 71.333 -39 125.666 -39 162.999c0 56.667 30.167 137.334 90.5 242.001s90.5 184.667 90.5 240c0 41.333 -12.167 74.333 -36.5 99s-58.166 37 -101.499 37
c-26.667 0 -50.334 -5.33301 -71.001 -16s-43 -26.334 -67 -47.001v50c32.667 29.333 64.334 50.166 95.001 62.499s61.667 18.5 93 18.5c66 0 120.167 -17.167 162.5 -51.5s63.5 -81.833 63.5 -142.5c0 -37.333 -9.16699 -75 -27.5 -113s-49.833 -84.333 -94.5 -139
c-46.667 -59.333 -83.167 -108.166 -109.5 -146.499s-39.5 -74.833 -39.5 -109.5c0 -28 8.66699 -77 26 -147zM474.999 236.001c-8 0 -15.333 3.66699 -22 11l-68 78c-4.66699 6.66699 -7 13.334 -7 20.001c0 7.33301 4 15.666 12 24.999l63 64c8 7.33301 15.333 11 22 11
c7.33301 0 15.333 -4 24 -12l62 -67c6.66699 -8 10 -15.333 10 -22c0 -8 -3.66699 -16 -11 -24l-62 -69c-10 -10 -17.667 -15 -23 -15z" />
    <glyph glyph-name="emacron" unicode="&#x113;" 
d="M982 0h-912v1587h912v-1587zM927 55v1477h-802v-1477h802zM488 503l-35.001 0.000976562c-26 71.333 -39 125.666 -39 162.999c0 56.667 30.167 137.334 90.5 242.001s90.5 184.667 90.5 240c0 41.333 -12.167 74.333 -36.5 99s-58.166 37 -101.499 37
c-26.667 0 -50.334 -5.33301 -71.001 -16s-43 -26.334 -67 -47.001v50c32.667 29.333 64.334 50.166 95.001 62.499s61.667 18.5 93 18.5c66 0 120.167 -17.167 162.5 -51.5s63.5 -81.833 63.5 -142.5c0 -37.333 -9.16699 -75 -27.5 -113s-49.833 -84.333 -94.5 -139
c-46.667 -59.333 -83.167 -108.166 -109.5 -146.499s-39.5 -74.833 -39.5 -109.5c0 -28 8.66699 -77 26 -147zM474.999 236.001c-8 0 -15.333 3.66699 -22 11l-68 78c-4.66699 6.66699 -7 13.334 -7 20.001c0 7.33301 4 15.666 12 24.999l63 64c8 7.33301 15.333 11 22 11
c7.33301 0 15.333 -4 24 -12l62 -67c6.66699 -8 10 -15.333 10 -22c0 -8 -3.66699 -16 -11 -24l-62 -69c-10 -10 -17.667 -15 -23 -15z" />
    <glyph glyph-name="Imacron" unicode="&#x12a;" 
d="M982 0h-912v1587h912v-1587zM927 55v1477h-802v-1477h802zM488 503l-35.001 0.000976562c-26 71.333 -39 125.666 -39 162.999c0 56.667 30.167 137.334 90.5 242.001s90.5 184.667 90.5 240c0 41.333 -12.167 74.333 -36.5 99s-58.166 37 -101.499 37
c-26.667 0 -50.334 -5.33301 -71.001 -16s-43 -26.334 -67 -47.001v50c32.667 29.333 64.334 50.166 95.001 62.499s61.667 18.5 93 18.5c66 0 120.167 -17.167 162.5 -51.5s63.5 -81.833 63.5 -142.5c0 -37.333 -9.16699 -75 -27.5 -113s-49.833 -84.333 -94.5 -139
c-46.667 -59.333 -83.167 -108.166 -109.5 -146.499s-39.5 -74.833 -39.5 -109.5c0 -28 8.66699 -77 26 -147zM474.999 236.001c-8 0 -15.333 3.66699 -22 11l-68 78c-4.66699 6.66699 -7 13.334 -7 20.001c0 7.33301 4 15.666 12 24.999l63 64c8 7.33301 15.333 11 22 11
c7.33301 0 15.333 -4 24 -12l62 -67c6.66699 -8 10 -15.333 10 -22c0 -8 -3.66699 -16 -11 -24l-62 -69c-10 -10 -17.667 -15 -23 -15z" />
    <glyph glyph-name="imacron" unicode="&#x12b;" 
d="M982 0h-912v1587h912v-1587zM927 55v1477h-802v-1477h802zM488 503l-35.001 0.000976562c-26 71.333 -39 125.666 -39 162.999c0 56.667 30.167 137.334 90.5 242.001s90.5 184.667 90.5 240c0 41.333 -12.167 74.333 -36.5 99s-58.166 37 -101.499 37
c-26.667 0 -50.334 -5.33301 -71.001 -16s-43 -26.334 -67 -47.001v50c32.667 29.333 64.334 50.166 95.001 62.499s61.667 18.5 93 18.5c66 0 120.167 -17.167 162.5 -51.5s63.5 -81.833 63.5 -142.5c0 -37.333 -9.16699 -75 -27.5 -113s-49.833 -84.333 -94.5 -139
c-46.667 -59.333 -83.167 -108.166 -109.5 -146.499s-39.5 -74.833 -39.5 -109.5c0 -28 8.66699 -77 26 -147zM474.999 236.001c-8 0 -15.333 3.66699 -22 11l-68 78c-4.66699 6.66699 -7 13.334 -7 20.001c0 7.33301 4 15.666 12 24.999l63 64c8 7.33301 15.333 11 22 11
c7.33301 0 15.333 -4 24 -12l62 -67c6.66699 -8 10 -15.333 10 -22c0 -8 -3.66699 -16 -11 -24l-62 -69c-10 -10 -17.667 -15 -23 -15z" />
    <glyph glyph-name="dotlessi" unicode="&#x131;" 
d="M982 0h-912v1587h912v-1587zM927 55v1477h-802v-1477h802zM488 503l-35.001 0.000976562c-26 71.333 -39 125.666 -39 162.999c0 56.667 30.167 137.334 90.5 242.001s90.5 184.667 90.5 240c0 41.333 -12.167 74.333 -36.5 99s-58.166 37 -101.499 37
c-26.667 0 -50.334 -5.33301 -71.001 -16s-43 -26.334 -67 -47.001v50c32.667 29.333 64.334 50.166 95.001 62.499s61.667 18.5 93 18.5c66 0 120.167 -17.167 162.5 -51.5s63.5 -81.833 63.5 -142.5c0 -37.333 -9.16699 -75 -27.5 -113s-49.833 -84.333 -94.5 -139
c-46.667 -59.333 -83.167 -108.166 -109.5 -146.499s-39.5 -74.833 -39.5 -109.5c0 -28 8.66699 -77 26 -147zM474.999 236.001c-8 0 -15.333 3.66699 -22 11l-68 78c-4.66699 6.66699 -7 13.334 -7 20.001c0 7.33301 4 15.666 12 24.999l63 64c8 7.33301 15.333 11 22 11
c7.33301 0 15.333 -4 24 -12l62 -67c6.66699 -8 10 -15.333 10 -22c0 -8 -3.66699 -16 -11 -24l-62 -69c-10 -10 -17.667 -15 -23 -15z" />
    <glyph glyph-name="OE" unicode="&#x152;" 
d="M982 0h-912v1587h912v-1587zM927 55v1477h-802v-1477h802zM488 503l-35.001 0.000976562c-26 71.333 -39 125.666 -39 162.999c0 56.667 30.167 137.334 90.5 242.001s90.5 184.667 90.5 240c0 41.333 -12.167 74.333 -36.5 99s-58.166 37 -101.499 37
c-26.667 0 -50.334 -5.33301 -71.001 -16s-43 -26.334 -67 -47.001v50c32.667 29.333 64.334 50.166 95.001 62.499s61.667 18.5 93 18.5c66 0 120.167 -17.167 162.5 -51.5s63.5 -81.833 63.5 -142.5c0 -37.333 -9.16699 -75 -27.5 -113s-49.833 -84.333 -94.5 -139
c-46.667 -59.333 -83.167 -108.166 -109.5 -146.499s-39.5 -74.833 -39.5 -109.5c0 -28 8.66699 -77 26 -147zM474.999 236.001c-8 0 -15.333 3.66699 -22 11l-68 78c-4.66699 6.66699 -7 13.334 -7 20.001c0 7.33301 4 15.666 12 24.999l63 64c8 7.33301 15.333 11 22 11
c7.33301 0 15.333 -4 24 -12l62 -67c6.66699 -8 10 -15.333 10 -22c0 -8 -3.66699 -16 -11 -24l-62 -69c-10 -10 -17.667 -15 -23 -15z" />
    <glyph glyph-name="oe" unicode="&#x153;" 
d="M982 0h-912v1587h912v-1587zM927 55v1477h-802v-1477h802zM488 503l-35.001 0.000976562c-26 71.333 -39 125.666 -39 162.999c0 56.667 30.167 137.334 90.5 242.001s90.5 184.667 90.5 240c0 41.333 -12.167 74.333 -36.5 99s-58.166 37 -101.499 37
c-26.667 0 -50.334 -5.33301 -71.001 -16s-43 -26.334 -67 -47.001v50c32.667 29.333 64.334 50.166 95.001 62.499s61.667 18.5 93 18.5c66 0 120.167 -17.167 162.5 -51.5s63.5 -81.833 63.5 -142.5c0 -37.333 -9.16699 -75 -27.5 -113s-49.833 -84.333 -94.5 -139
c-46.667 -59.333 -83.167 -108.166 -109.5 -146.499s-39.5 -74.833 -39.5 -109.5c0 -28 8.66699 -77 26 -147zM474.999 236.001c-8 0 -15.333 3.66699 -22 11l-68 78c-4.66699 6.66699 -7 13.334 -7 20.001c0 7.33301 4 15.666 12 24.999l63 64c8 7.33301 15.333 11 22 11
c7.33301 0 15.333 -4 24 -12l62 -67c6.66699 -8 10 -15.333 10 -22c0 -8 -3.66699 -16 -11 -24l-62 -69c-10 -10 -17.667 -15 -23 -15z" />
    <glyph glyph-name="Scaron" unicode="&#x160;" 
d="M982 0h-912v1587h912v-1587zM927 55v1477h-802v-1477h802zM488 503l-35.001 0.000976562c-26 71.333 -39 125.666 -39 162.999c0 56.667 30.167 137.334 90.5 242.001s90.5 184.667 90.5 240c0 41.333 -12.167 74.333 -36.5 99s-58.166 37 -101.499 37
c-26.667 0 -50.334 -5.33301 -71.001 -16s-43 -26.334 -67 -47.001v50c32.667 29.333 64.334 50.166 95.001 62.499s61.667 18.5 93 18.5c66 0 120.167 -17.167 162.5 -51.5s63.5 -81.833 63.5 -142.5c0 -37.333 -9.16699 -75 -27.5 -113s-49.833 -84.333 -94.5 -139
c-46.667 -59.333 -83.167 -108.166 -109.5 -146.499s-39.5 -74.833 -39.5 -109.5c0 -28 8.66699 -77 26 -147zM474.999 236.001c-8 0 -15.333 3.66699 -22 11l-68 78c-4.66699 6.66699 -7 13.334 -7 20.001c0 7.33301 4 15.666 12 24.999l63 64c8 7.33301 15.333 11 22 11
c7.33301 0 15.333 -4 24 -12l62 -67c6.66699 -8 10 -15.333 10 -22c0 -8 -3.66699 -16 -11 -24l-62 -69c-10 -10 -17.667 -15 -23 -15z" />
    <glyph glyph-name="scaron" unicode="&#x161;" 
d="M982 0h-912v1587h912v-1587zM927 55v1477h-802v-1477h802zM488 503l-35.001 0.000976562c-26 71.333 -39 125.666 -39 162.999c0 56.667 30.167 137.334 90.5 242.001s90.5 184.667 90.5 240c0 41.333 -12.167 74.333 -36.5 99s-58.166 37 -101.499 37
c-26.667 0 -50.334 -5.33301 -71.001 -16s-43 -26.334 -67 -47.001v50c32.667 29.333 64.334 50.166 95.001 62.499s61.667 18.5 93 18.5c66 0 120.167 -17.167 162.5 -51.5s63.5 -81.833 63.5 -142.5c0 -37.333 -9.16699 -75 -27.5 -113s-49.833 -84.333 -94.5 -139
c-46.667 -59.333 -83.167 -108.166 -109.5 -146.499s-39.5 -74.833 -39.5 -109.5c0 -28 8.66699 -77 26 -147zM474.999 236.001c-8 0 -15.333 3.66699 -22 11l-68 78c-4.66699 6.66699 -7 13.334 -7 20.001c0 7.33301 4 15.666 12 24.999l63 64c8 7.33301 15.333 11 22 11
c7.33301 0 15.333 -4 24 -12l62 -67c6.66699 -8 10 -15.333 10 -22c0 -8 -3.66699 -16 -11 -24l-62 -69c-10 -10 -17.667 -15 -23 -15z" />
    <glyph glyph-name="Ycircumflex" unicode="&#x176;" 
d="M982 0h-912v1587h912v-1587zM927 55v1477h-802v-1477h802zM488 503l-35.001 0.000976562c-26 71.333 -39 125.666 -39 162.999c0 56.667 30.167 137.334 90.5 242.001s90.5 184.667 90.5 240c0 41.333 -12.167 74.333 -36.5 99s-58.166 37 -101.499 37
c-26.667 0 -50.334 -5.33301 -71.001 -16s-43 -26.334 -67 -47.001v50c32.667 29.333 64.334 50.166 95.001 62.499s61.667 18.5 93 18.5c66 0 120.167 -17.167 162.5 -51.5s63.5 -81.833 63.5 -142.5c0 -37.333 -9.16699 -75 -27.5 -113s-49.833 -84.333 -94.5 -139
c-46.667 -59.333 -83.167 -108.166 -109.5 -146.499s-39.5 -74.833 -39.5 -109.5c0 -28 8.66699 -77 26 -147zM474.999 236.001c-8 0 -15.333 3.66699 -22 11l-68 78c-4.66699 6.66699 -7 13.334 -7 20.001c0 7.33301 4 15.666 12 24.999l63 64c8 7.33301 15.333 11 22 11
c7.33301 0 15.333 -4 24 -12l62 -67c6.66699 -8 10 -15.333 10 -22c0 -8 -3.66699 -16 -11 -24l-62 -69c-10 -10 -17.667 -15 -23 -15z" />
    <glyph glyph-name="ycircumflex" unicode="&#x177;" 
d="M982 0h-912v1587h912v-1587zM927 55v1477h-802v-1477h802zM488 503l-35.001 0.000976562c-26 71.333 -39 125.666 -39 162.999c0 56.667 30.167 137.334 90.5 242.001s90.5 184.667 90.5 240c0 41.333 -12.167 74.333 -36.5 99s-58.166 37 -101.499 37
c-26.667 0 -50.334 -5.33301 -71.001 -16s-43 -26.334 -67 -47.001v50c32.667 29.333 64.334 50.166 95.001 62.499s61.667 18.5 93 18.5c66 0 120.167 -17.167 162.5 -51.5s63.5 -81.833 63.5 -142.5c0 -37.333 -9.16699 -75 -27.5 -113s-49.833 -84.333 -94.5 -139
c-46.667 -59.333 -83.167 -108.166 -109.5 -146.499s-39.5 -74.833 -39.5 -109.5c0 -28 8.66699 -77 26 -147zM474.999 236.001c-8 0 -15.333 3.66699 -22 11l-68 78c-4.66699 6.66699 -7 13.334 -7 20.001c0 7.33301 4 15.666 12 24.999l63 64c8 7.33301 15.333 11 22 11
c7.33301 0 15.333 -4 24 -12l62 -67c6.66699 -8 10 -15.333 10 -22c0 -8 -3.66699 -16 -11 -24l-62 -69c-10 -10 -17.667 -15 -23 -15z" />
    <glyph glyph-name="Ydieresis" unicode="&#x178;" 
d="M982 0h-912v1587h912v-1587zM927 55v1477h-802v-1477h802zM488 503l-35.001 0.000976562c-26 71.333 -39 125.666 -39 162.999c0 56.667 30.167 137.334 90.5 242.001s90.5 184.667 90.5 240c0 41.333 -12.167 74.333 -36.5 99s-58.166 37 -101.499 37
c-26.667 0 -50.334 -5.33301 -71.001 -16s-43 -26.334 -67 -47.001v50c32.667 29.333 64.334 50.166 95.001 62.499s61.667 18.5 93 18.5c66 0 120.167 -17.167 162.5 -51.5s63.5 -81.833 63.5 -142.5c0 -37.333 -9.16699 -75 -27.5 -113s-49.833 -84.333 -94.5 -139
c-46.667 -59.333 -83.167 -108.166 -109.5 -146.499s-39.5 -74.833 -39.5 -109.5c0 -28 8.66699 -77 26 -147zM474.999 236.001c-8 0 -15.333 3.66699 -22 11l-68 78c-4.66699 6.66699 -7 13.334 -7 20.001c0 7.33301 4 15.666 12 24.999l63 64c8 7.33301 15.333 11 22 11
c7.33301 0 15.333 -4 24 -12l62 -67c6.66699 -8 10 -15.333 10 -22c0 -8 -3.66699 -16 -11 -24l-62 -69c-10 -10 -17.667 -15 -23 -15z" />
    <glyph glyph-name="Zcaron" unicode="&#x17d;" 
d="M982 0h-912v1587h912v-1587zM927 55v1477h-802v-1477h802zM488 503l-35.001 0.000976562c-26 71.333 -39 125.666 -39 162.999c0 56.667 30.167 137.334 90.5 242.001s90.5 184.667 90.5 240c0 41.333 -12.167 74.333 -36.5 99s-58.166 37 -101.499 37
c-26.667 0 -50.334 -5.33301 -71.001 -16s-43 -26.334 -67 -47.001v50c32.667 29.333 64.334 50.166 95.001 62.499s61.667 18.5 93 18.5c66 0 120.167 -17.167 162.5 -51.5s63.5 -81.833 63.5 -142.5c0 -37.333 -9.16699 -75 -27.5 -113s-49.833 -84.333 -94.5 -139
c-46.667 -59.333 -83.167 -108.166 -109.5 -146.499s-39.5 -74.833 -39.5 -109.5c0 -28 8.66699 -77 26 -147zM474.999 236.001c-8 0 -15.333 3.66699 -22 11l-68 78c-4.66699 6.66699 -7 13.334 -7 20.001c0 7.33301 4 15.666 12 24.999l63 64c8 7.33301 15.333 11 22 11
c7.33301 0 15.333 -4 24 -12l62 -67c6.66699 -8 10 -15.333 10 -22c0 -8 -3.66699 -16 -11 -24l-62 -69c-10 -10 -17.667 -15 -23 -15z" />
    <glyph glyph-name="zcaron" unicode="&#x17e;" 
d="M982 0h-912v1587h912v-1587zM927 55v1477h-802v-1477h802zM488 503l-35.001 0.000976562c-26 71.333 -39 125.666 -39 162.999c0 56.667 30.167 137.334 90.5 242.001s90.5 184.667 90.5 240c0 41.333 -12.167 74.333 -36.5 99s-58.166 37 -101.499 37
c-26.667 0 -50.334 -5.33301 -71.001 -16s-43 -26.334 -67 -47.001v50c32.667 29.333 64.334 50.166 95.001 62.499s61.667 18.5 93 18.5c66 0 120.167 -17.167 162.5 -51.5s63.5 -81.833 63.5 -142.5c0 -37.333 -9.16699 -75 -27.5 -113s-49.833 -84.333 -94.5 -139
c-46.667 -59.333 -83.167 -108.166 -109.5 -146.499s-39.5 -74.833 -39.5 -109.5c0 -28 8.66699 -77 26 -147zM474.999 236.001c-8 0 -15.333 3.66699 -22 11l-68 78c-4.66699 6.66699 -7 13.334 -7 20.001c0 7.33301 4 15.666 12 24.999l63 64c8 7.33301 15.333 11 22 11
c7.33301 0 15.333 -4 24 -12l62 -67c6.66699 -8 10 -15.333 10 -22c0 -8 -3.66699 -16 -11 -24l-62 -69c-10 -10 -17.667 -15 -23 -15z" />
    <glyph glyph-name="circumflex" unicode="&#x2c6;" 
d="M982 0h-912v1587h912v-1587zM927 55v1477h-802v-1477h802zM488 503l-35.001 0.000976562c-26 71.333 -39 125.666 -39 162.999c0 56.667 30.167 137.334 90.5 242.001s90.5 184.667 90.5 240c0 41.333 -12.167 74.333 -36.5 99s-58.166 37 -101.499 37
c-26.667 0 -50.334 -5.33301 -71.001 -16s-43 -26.334 -67 -47.001v50c32.667 29.333 64.334 50.166 95.001 62.499s61.667 18.5 93 18.5c66 0 120.167 -17.167 162.5 -51.5s63.5 -81.833 63.5 -142.5c0 -37.333 -9.16699 -75 -27.5 -113s-49.833 -84.333 -94.5 -139
c-46.667 -59.333 -83.167 -108.166 -109.5 -146.499s-39.5 -74.833 -39.5 -109.5c0 -28 8.66699 -77 26 -147zM474.999 236.001c-8 0 -15.333 3.66699 -22 11l-68 78c-4.66699 6.66699 -7 13.334 -7 20.001c0 7.33301 4 15.666 12 24.999l63 64c8 7.33301 15.333 11 22 11
c7.33301 0 15.333 -4 24 -12l62 -67c6.66699 -8 10 -15.333 10 -22c0 -8 -3.66699 -16 -11 -24l-62 -69c-10 -10 -17.667 -15 -23 -15z" />
    </font>
</defs>
</svg>
